<svg width="170" height="134" fill="none" xmlns="http://www.w3.org/2000/svg">
    <path opacity=".1" d="M98.773 22.093c-10.898-.445-21.279-4.591-31.19-9.124-9.911-4.532-19.731-9.556-30.367-11.958-6.843-1.545-14.667-1.76-20.18 2.557-5.306 4.156-7.02 11.34-7.94 17.993-.694 5.01-1.101 10.277.797 14.974 1.32 3.255 3.662 5.992 5.282 9.11C20.81 56.5 16.83 69.884 10.72 80.48c-2.858 4.972-6.188 9.713-8.398 15.006-2.21 5.292-3.233 11.354-1.3 16.751 1.919 5.351 6.486 9.37 11.434 12.196 10.051 5.741 21.896 7.385 33.446 8.315 25.568 2.052 51.271 1.166 76.906.28 9.487-.331 19.014-.666 28.348-2.394 5.181-.958 10.531-2.48 14.292-6.157 4.777-4.667 5.961-12.57 2.76-18.427-5.368-9.815-20.213-12.253-23.965-22.787-2.065-5.797.056-12.255 3.057-17.633 6.439-11.537 17.232-21.656 17.801-34.842.391-9.056-4.798-18.126-12.82-22.41-8.409-4.492-20.069-3.927-26.273 3.508-6.385 7.656-17.611 10.6-27.234 10.208z" fill="#FFD037"/>
    <path d="M81.43 128c19.76 0 35.78-.81 35.78-1.8s-16.02-1.8-35.78-1.8-35.78.8-35.78 1.8c0 .99 16.02 1.8 35.78 1.8zM40.75 50.51c9.81 0 17.76-7.95 17.76-17.76 0-9.8-7.95-17.75-17.76-17.75C30.95 15 23 22.95 23 32.75c0 9.81 7.95 17.76 17.75 17.76z" fill="#E6E6E6"/>
    <path d="M40.75 47.55c8.17 0 14.8-6.62 14.8-14.8 0-8.17-6.62-14.8-14.8-14.8-8.17 0-14.8 6.62-14.8 14.8.01 8.18 6.63 14.8 14.8 14.8z" fill="#FFD037"/>
    <path d="M87.9 50.51c9.81 0 17.75-7.95 17.75-17.76.01-9.8-7.94-17.75-17.75-17.75-9.8 0-17.75 7.95-17.75 17.75 0 9.81 7.95 17.76 17.75 17.76z" fill="#E6E6E6"/>
    <path d="M87.9 47.55c8.17 0 14.8-6.62 14.8-14.8 0-8.17-6.62-14.8-14.8-14.8-8.17 0-14.8 6.62-14.8 14.8.01 8.18 6.63 14.8 14.8 14.8z" fill="#fff"/>
    <path d="M135.05 50.51c9.81 0 17.76-7.95 17.76-17.76 0-9.81-7.95-17.75-17.76-17.75-9.8 0-17.75 7.95-17.75 17.75 0 9.81 7.95 17.76 17.75 17.76z" fill="#E6E6E6"/>
    <path d="M135.05 47.55c8.17 0 14.8-6.62 14.8-14.8 0-8.17-6.63-14.8-14.8-14.8-8.17 0-14.8 6.62-14.8 14.8.01 8.18 6.63 14.8 14.8 14.8zM39.38 38.83l-4.31-5.54 2.51-1.95 2.04 2.62 6.89-7.28 2.31 2.18-9.44 9.97z" fill="#fff"/>
    <path d="M72.22 36.38c-1.17-2.82-1.36-5.47.29-7.84.03-.79.22-1.57.55-2.29.33-.72.81-1.36 1.4-1.89.59-.53 1.28-.94 2.03-1.2.75-.26 1.54-.37 2.34-.31l1.07.07c1.11.07 2.17.45 3.07 1.1.9.65 1.6 1.54 2.02 2.56 2 4.96 2.06 11.54 1.56 18.6H71.89c.87-3.3 1.32-6.4.33-8.8z" fill="#2F2E41"/>
    <path d="m53.29 45.02-3.87-1.74c-.39-.17-.73-.43-1.01-.75s-.49-.69-.61-1.1a3.11 3.11 0 0 1-.1-1.25c.06-.42.2-.82.43-1.18.25-.4.59-.73.99-.96.4-.24.86-.38 1.32-.4.47-.03.93.06 1.36.24.43.18.81.48 1.1.84l1.79 2.2 8.34 7.4 5.55-3.7 2.51 4.26-9 5.43-8.8-9.29z" fill="#9F616A"/>
    <path d="m70.7 50.13-3.06-5.85 11.91-5.3.1 1.12c.09 1.03-.08 2.07-.51 3.01a6.01 6.01 0 0 1-1.94 2.36l-6.5 4.66z" fill="#FFD037"/>
    <path d="M86.13 38.62 73.99 48.68l-.7-.98 3.35-6 1.54-.7c.37-1.56-.57-3.65-1.81-5.86l5.86-.84c.28 1.9 1.56 3.35 3.9 4.32z" fill="#9F616A"/>
    <path d="m100.79 108-2.02 3-16.12-9.14 2.23-11.03L100.79 108z" fill="#2F2E41"/>
    <path d="m79.5 122.31-3.28-1.47-.84-38.39-3.14-20.87 12.21-2.3 2.51 5.44c6.18 8.48-2.82 34.43-7.46 57.59z" fill="#2F2E41"/>
    <path d="m79.76 121.79.67 1.46c.13.28.19.58.18.88-.01.3-.09.6-.24.86s-.35.49-.6.67c-.25.18-.53.29-.83.33l-8.9 1.27c-.44.06-.88-.03-1.25-.28a1.83 1.83 0 0 1-.76-1.03c-.11-.39-.09-.81.06-1.19.15-.38.43-.69.78-.9l7.48-3.74 3.41 1.67zM100.37 107.44l1.61-.12c.3-.02.61.03.89.14.28.12.53.29.73.52.2.23.34.5.42.79.07.29.08.6.02.9l-1.92 8.78c-.09.43-.34.81-.7 1.08a1.8 1.8 0 0 1-1.23.35 1.829 1.829 0 0 1-1.66-1.51l-.89-8.31 2.73-2.62z" fill="#2F2E41"/>
    <path d="M78.45 37.09c3.08 0 5.58-2.5 5.58-5.58s-2.5-5.58-5.58-5.58-5.58 2.5-5.58 5.58 2.5 5.58 5.58 5.58z" fill="#9F616A"/>
    <path d="m84.18 60.12-12.15 2.51-.28-8.1c-1.76-1.86 2.34-9.32 3.77-12.84l1.81-.56-3.07 5.58 10.75-8.79 2.09.56.56 10.19-3.48 11.45z" fill="#FFD037"/>
    <path d="m85.01 65.01-2.63 3.33c-.26.33-.59.6-.97.8-.38.19-.79.3-1.21.32a2.95 2.95 0 0 1-2.97-2.12 2.931 2.931 0 0 1 .5-2.64c.29-.37.66-.67 1.08-.86l2.57-1.2 9.21-6.28-2.23-6.28 4.75-1.4 3.07 10.05-11.17 6.28z" fill="#9F616A"/>
    <path d="M85.5 44.07H75.39c.38-1.91 1.4-3.65 4.19-4.89 2.03-3.88 2.9-7.41 0-9.76-3.31-.76-4.6-2.15-4.19-4.05l5.93-.98c4.87 4.34 4.93 11.75 4.18 19.68z" fill="#2F2E41"/>
    <path d="m94.23 49.37-6.42 1.54-2.23-12.84 1.11.17a5.934 5.934 0 0 1 4.6 3.68l2.94 7.45z" fill="#FFD037"/>
</svg>
