<svg width="189" height="142" fill="none" xmlns="http://www.w3.org/2000/svg">
    <g clip-path="url(#a)">
        <path opacity=".1" d="M96.868 28.646c-11.832 1.976-23.682.912-35.09-.56-11.408-1.471-22.79-3.35-34.647-2.986-7.623.237-16.102 1.735-21.377 6.332C.679 35.856-.046 41.904.002 47.37c.036 4.114.422 8.375 3.208 11.681 1.934 2.297 4.89 3.962 7.126 6.085 7.789 7.388 5.58 18.832.648 28.525-2.32 4.546-5.156 9.01-6.712 13.67s-1.71 9.686 1.223 13.553c2.907 3.824 8.467 6.03 14.252 7.21 11.748 2.398 24.786 1.16 37.397-.56 27.912-3.833 55.521-10.033 83.03-16.214 10.186-2.289 20.418-4.589 30.218-7.954 5.443-1.866 10.979-4.215 14.464-7.927 4.423-4.714 4.463-11.222.093-15.171-7.323-6.614-23.729-5.378-29.425-12.911-3.138-4.143-1.861-9.713.537-14.612 5.137-10.506 15.205-20.822 13.755-31.38-.995-7.252-8.018-13.322-17.348-15-9.777-1.76-22.274 1.178-27.804 8.386-5.702 7.421-17.349 12.15-27.796 13.894z" fill="#6C63FF"/>
        <path d="M173.122 36.952s-2.332-.948-9.746 2.454c-7.414 3.402-8.341 2.97-10.261 2.45-1.921-.521-2.983-.644-5.048-3.48 0 0-1.45-7.87-2.855-9.087-1.406-1.218-7.375.694-7.375.694s-7.157 1.64-8.521-7.924c0 0 .968-7.21-.35-9.421 0 0 2.652 1.146 7.05-.706 4.398-1.853 7.903 1.988 7.903 1.988s1.107 2.865.994 4.574c-.112 1.709.585 2.352 2.68 1.526 0 0 1.027-1.463-.428-3.882-1.455-2.42-2.495-4.22-2.089-6.097.406-1.878 1.574-4.475 5.331-5.785 3.757-1.311 8.856-1.553 11.305-2.572C164.161.664 164.753 0 164.753 0s-1.506 1.51 2.042 7.91 1.287 9.177 1.287 9.177-1.889 4.5-10.225 4.135c0 0-8.032.293-3.654 3.699 0 0 2.806-.57 6.999-1.904 4.192-1.334 7.22 4.169 7.971 7.997.75 3.828 3.949 5.938 3.949 5.938z" fill="#6C63FF"/>
        <path d="m162.324 4.858.044-.011c.322 1.221-3.268 6.131-6.337 10.029l-.036-.028c4.33-5.504 6.577-9.052 6.329-9.99z" fill="#444053"/>
        <path d="m156.06 14.769.018.05c-2.451 3.115-5.535 6.835-8.003 9.59a18.32 18.32 0 0 0-.692.818l-.072-.056c.226-.282.461-.559.696-.829a209.662 209.662 0 0 0 8.053-9.573z" fill="#444053"/>
        <path d="m147.371 25.1.05.084c-4.491 5.606-4.788 14.311-4.806 14.386l-.947-1.094c.017-.08 1.182-7.734 5.703-13.376z" fill="#444053"/>
        <path d="M167.915 33.91s-5.303-2.752-9.423-1.764c-4.12.988-13.423-3.492-13.423-3.492s-3.944-1.602-4.738-3.428c0 0-2.706-2.862-2.86-4.344-.154-1.481-2.789-5.202-4.508-5.346" stroke="#444053" stroke-miterlimit="10"/>
        <path d="M167.148 36.56s-2.667-1.796-2.357-3.891M163.056 38.881s-3.812-1.384-4.196-6.813M156.911 40.286s-3.646-3.023-2.434-8.306M149.509 38.81s-2.428-5.093-.267-8.408M167.976 30.556s-2.757.875-2.166 2.32M164.649 25.549s-3.689 1.172-3.777 6.392M159.501 24.344s-3.359 4.143-3.112 7.914M153.62 25.972s-3.337 3.188-2.912 4.961M151.608 24.845s-3.128.56-3.566-.466M147.542 21.067s1.58 2.093 1.988 1.624M163.209 19.743s-7.885.572-9.67-1.804M145.883 10.517s3.7 7.942 6.388 8.948M149.765 6.736s2.272 7.305 5.088 9.585" stroke="#444053" stroke-miterlimit="10"/>
        <path d="M166.523 13.713s-5.997 2.576-9.598-.03M155.107 5.179s1.37 5.37 3.216 6.663M165.625 7.7s-3.371 1.275-4.629.298" stroke="#444053" stroke-width=".75" stroke-miterlimit="10"/>
        <path d="M144.656 22.822s-.01 4.682-1.276 5.013M134.236 28.888s5.061.433 7.396-2.179M143.349 17.291s-1.225 4.75-4.602 6.027M131.2 23.886s3.583 1.245 6.664-1.927M139.365 13.209s-.331 4.034-2.53 5.92M131.336 17.742s2.973.02 3.671-.95" stroke="#444053" stroke-miterlimit="10"/>
        <path opacity=".1" d="M112 136.797c32.355 0 58.583-1.249 58.583-2.789 0-1.541-26.228-2.789-58.583-2.789-32.354 0-58.583 1.248-58.583 2.789 0 1.54 26.229 2.789 58.583 2.789z" fill="#6C63FF"/>
        <path d="M30.595 136.011s-5.984-.362-5.278 3.831c0 0-.14.741.532 1.077 0 0 .01-.31.613-.205.214.036.432.048.65.031.294-.021.573-.137.795-.331 0 0 1.682-.695 2.335-3.444 0 0 .484-.598.465-.752l-1.01.431s.346.727.074 1.334c0 0-.033-1.308-.227-1.278-.04 0-.525.254-.525.254s.595 1.267.146 2.19c0 0 .165-1.564-.332-2.099l-.71.414s.689 1.318.225 2.383c0 0 .119-1.639-.373-2.279l-.645.498s.651 1.291.255 2.177c0 0-.053-1.909-.394-2.053 0 0-.563.497-.65.701 0 0 .446.938.166 1.432 0 0-.166-1.271-.308-1.278 0 0-.562.843-.62 1.42a3.05 3.05 0 0 1 .484-1.501 1.671 1.671 0 0 0-.86.446s.088-.597.994-.648c0 0 .464-.64.588-.678 0 0-.906-.076-1.454.166 0 0 .483-.562 1.62-.307l.637-.519s-1.194-.165-1.7.017c0 0 .583-.497 1.87-.134l.693-.415s-1.016-.218-1.622-.141c0 0 .64-.344 1.822.03l.498-.222s-.744-.147-.963-.165c-.219-.019-.23-.085-.23-.085a2.57 2.57 0 0 1 1.4.156s1.055-.388 1.039-.454z" fill="#6C63FF"/>
        <path opacity=".1" d="M26.473 142c2.339 0 4.234-.32 4.234-.716 0-.395-1.895-.716-4.234-.716-2.338 0-4.234.321-4.234.716 0 .396 1.896.716 4.234.716z" fill="#6C63FF"/>
        <path d="M20.111 136.235s-3.372-.204-2.974 2.154a.576.576 0 0 0 .3.608s0-.175.346-.116c.121.02.244.027.366.019a.762.762 0 0 0 .448-.186s.948-.391 1.317-1.941c0 0 .272-.331.262-.425l-.57.243c.11.237.124.506.041.753 0 0-.018-.738-.127-.72-.022 0-.295.141-.295.141s.331.716.081 1.236c0 0 .096-.881-.186-1.183l-.4.234s.39.739.125 1.341c0 0 .068-.925-.21-1.285l-.363.284s.368.727.144 1.228c0 0-.03-1.076-.222-1.16a2.115 2.115 0 0 0-.366.396s.25.528.094.807c0 0-.094-.718-.165-.72 0 0-.317.474-.35.801.017-.302.111-.593.273-.847a.961.961 0 0 0-.485.25s.05-.331.563-.364c.096-.14.207-.269.332-.383a2.132 2.132 0 0 0-.82.094s.271-.316.914-.165l.358-.292s-.673-.093-.958 0c0 0 .332-.28 1.054-.076l.391-.232a3.516 3.516 0 0 0-.914-.08s.36-.194 1.029.017l.278-.126s-.42-.083-.544-.095c-.124-.011-.129-.048-.129-.048.267-.043.539-.013.79.088 0 0 .584-.214.572-.25z" fill="#6C63FF"/>
        <path opacity=".1" d="M17.79 139.611c1.319 0 2.388-.181 2.388-.404 0-.223-1.07-.404-2.388-.404-1.319 0-2.388.181-2.388.404 0 .223 1.069.404 2.388.404z" fill="#6C63FF"/>
        <path d="M26.533 131.223s-4.072-.245-3.593 2.608a.697.697 0 0 0 .363.733s0-.211.418-.139c.146.025.295.031.442.021a.924.924 0 0 0 .54-.223s1.146-.473 1.591-2.344c0 0 .332-.407.315-.513l-.686.29s.234.497.05.908c0 0-.022-.89-.154-.869-.027 0-.358.166-.358.166s.404.863.1 1.492c0 0 .115-1.064-.226-1.429l-.484.283s.472.892.152 1.619c0 0 .083-1.115-.253-1.551l-.438.343s.443.879.166 1.482c0 0-.035-1.299-.268-1.397a2.773 2.773 0 0 0-.443.477s.305.638.116.975c0 0-.116-.865-.21-.87 0 0-.381.573-.421.967.02-.364.134-.716.331-1.022a1.14 1.14 0 0 0-.585.303s.06-.406.68-.441c0 0 .316-.435.4-.462 0 0-.616-.051-.994.114 0 0 .332-.382 1.104-.208l.433-.353s-.812-.111-1.16.011c0 0 .396-.331 1.27-.091l.485-.282a4.275 4.275 0 0 0-1.106-.094s.436-.235 1.243.02l.332-.151s-.508-.101-.655-.116c-.148-.015-.166-.056-.166-.056.322-.053.651-.017.953.106 0 0 .73-.262.716-.307z" fill="#6C63FF"/>
        <path opacity=".1" d="M23.729 135.3c1.592 0 2.882-.219 2.882-.488s-1.29-.487-2.882-.487-2.882.218-2.882.487 1.29.488 2.882.488z" fill="#6C63FF"/>
        <path d="M110.799 129.938v1.296H72.475v-1.054c6.523-2.416 9.852-9.663 7.434-16.186a12.59 12.59 0 0 0-6.567-7.076h37.196a12.621 12.621 0 0 0-6.96 8.352 12.595 12.595 0 0 0 4.874 13.335c.733.527 1.52.973 2.347 1.333z" fill="#D2D4DE"/>
        <path opacity=".1" d="M110.539 106.918a12.62 12.62 0 0 0-6.961 8.352H80.305a12.618 12.618 0 0 0-6.96-8.352h37.194z" fill="#000"/>
        <path d="M28.593 100.317v7.274c0 4.018 2.94 7.275 6.567 7.275h112.751c3.628 0 6.567-3.257 6.567-7.275v-7.274H28.593z" fill="#D2D4DE"/>
        <path opacity=".1" d="M110.799 129.938v1.296H72.475v-1.054a12.59 12.59 0 0 0 2.956-1.575h33.018c.734.527 1.521.975 2.35 1.333z" fill="#000"/>
        <path d="M61.385 129.009h60.502c.87 0 1.574.704 1.574 1.574v.691c0 .87-.704 1.574-1.574 1.574H61.385c-.87 0-1.574-.704-1.574-1.574v-.691c0-.87.706-1.574 1.574-1.574z" fill="#D2D4DE"/>
        <path d="M154.478 20.602a6.566 6.566 0 0 0-6.567-6.568H35.161a6.567 6.567 0 0 0-6.568 6.568v81.128h125.885V20.602z" fill="#30374E"/>
        <path d="M151.045 23.532v69.712a3.232 3.232 0 0 1-3.233 3.234H35.262a3.231 3.231 0 0 1-3.234-3.23V23.532a3.232 3.232 0 0 1 3.228-3.238h112.556a3.236 3.236 0 0 1 3.233 3.238c0-.002 0 0 0 0z" fill="#DFE3EF"/>
        <path d="M91.536 18.683a1.516 1.516 0 1 0 0-3.033 1.516 1.516 0 0 0 0 3.033zM91.536 111.632a3.738 3.738 0 1 0 .001-7.476 3.738 3.738 0 0 0-.001 7.476zM151.043 23.532H32.028a3.232 3.232 0 0 1 3.225-3.238H147.81a3.231 3.231 0 0 1 3.233 3.23v.008z" fill="#fff"/>
        <path d="M35.261 22.723a.809.809 0 1 0 0-1.617.809.809 0 0 0 0 1.617zM37.686 22.723a.809.809 0 1 0 0-1.618.809.809 0 0 0 0 1.618zM40.11 22.723a.809.809 0 1 0 0-1.617.809.809 0 0 0 0 1.617z" fill="#DFE3EF"/>
        <path d="M139.287 32.485H43.234v56.132h96.053V32.485z" fill="#fff"/>
        <path d="M166.095 108.262c.035-.095-.228-.625-.228-.652 0-.026-.27-.321-.27-.485 0-.164-.36-.522-.36-.522s-.481-.199-.532-.633c-.051-.435-.577-.443-.578-.443v-.099a1.434 1.434 0 0 0-.063-.509.519.519 0 0 0-.299-.252 1.119 1.119 0 0 0-.165-.442.497.497 0 0 1-.123-.469c.053-.166-.069-.582-.331-.643-.262-.062-.542-.156-.542-.156l-.07.012-.035-.012a1.622 1.622 0 0 1-.184.023.226.226 0 0 1-.149-.05c-.088-.094-.795-.276-.926-.276a2.198 2.198 0 0 1-.507-.166l-.376-.287a2.395 2.395 0 0 1-.332-.454 1.82 1.82 0 0 1-.079-.229c.131-.134.242-.283.331-.447l.025-.051a.175.175 0 0 0 .056 0l.024-.01a.365.365 0 0 0 .185-.222.374.374 0 0 0 .017-.057v-.192c.008-.061.015-.123.028-.184.076-.227.174-.446.295-.653a1.251 1.251 0 0 0 .074-.2v-.033c0-.025.014-.052.019-.078.005-.027 0-.023 0-.035 0-.037.01-.073.013-.11a1.325 1.325 0 0 0-.09-.61c-.064-.165-.165-.31-.228-.472-.101-.246-.128-.527-.251-.762a.909.909 0 0 0-1.088-.444c-.191.071-.355.209-.549.27-.258.083-.533.02-.802-.016-.268-.037-.563-.04-.777.134-.249.2-.317.578-.549.8-.097.093-.218.151-.321.237a.529.529 0 0 0-.166.22v.087a.36.36 0 0 0 0 .046l.008.043v.012c.004.013.007.025.012.036l.015.04.01.02a.024.024 0 0 0 0 .016c.033.065.061.133.081.203a.23.23 0 0 1 0 .132.362.362 0 0 1-.098.128c-.174.18-.308.396-.394.631l-.028.081h.011a.33.33 0 0 0 .077.017h.044c.06.003.12-.002.178-.013l.044-.01a.93.93 0 0 0 .178-.067V100.09a2.064 2.064 0 0 0 1.147 1.846V102.039l-.024-.022s-.165-.078-.306.148c-.11.147-.259.263-.429.331 0 0-1.591.252-1.658.461l-.742.043s-.262.035-.288.582c-.027.547-.166.598-.166.598s-.307.539-.28.817a.455.455 0 0 1-.237.416l-.035.497a.332.332 0 0 0-.366.293v.002c-.033.181-.11.35-.219.497 0 0-.481.4-.507.738l-.298.182s-.69-.156-.847-.434l-.05-.045a2.409 2.409 0 0 0-.288-.255c.02.043.025.093.013.139l-.051-.056-.085-.173s-1.027-1.18-1.682-1.263a.417.417 0 0 0-.295.286c-.083.281-.166.749.047.979l1.035 1.104.027.019.225.289a3.8 3.8 0 0 0-.098.26c0 .018-.011.035-.016.051v.017l-.015.048c0 .01 0 .02-.008.028v.017c-.025.088-.04.154-.048.192l-.058-.018.056.025v.018l.053.023c.307.134 1.834.804 1.914.907.33.283.794.349 1.188.165.297-.141.525-.394.638-.702.189-.252.361-.514.517-.788.017-.102.411-.225.411-.225s.035 1.16-.166 1.589c-.2.429-.576 2.307-.576 2.307a.305.305 0 0 1 .074 0l-.021.109a.29.29 0 0 1 .093 0c-.029.216-.189 1.21-.189 1.21a2.533 2.533 0 0 1-.14.608c-.087.156-.097.971-.097.971l-.139.592s.018.04.053.101c.094.201.232.378.402.519a1.006 1.006 0 0 1-.071.27.95.95 0 0 0-.07.418 5.21 5.21 0 0 0-.131.86 3.176 3.176 0 0 1-.096.663l-.165 1.511s-.105 1.309-.053 1.657c.026.282.015.564-.035.842 0 0 .104 1.034.079 1.147-.025.112-.165.6-.079.868.086.268.035 1.008.035 1.008s.053.972.114 1.284a2.21 2.21 0 0 1-.018.712 6.103 6.103 0 0 1-.088.663c-.025 0-.254.461.21.913.464.453.176.382.176.382s-.368-.183-.331.19c.036.373.099.264.104.254l-.086.285.061.008-.051.061a1.27 1.27 0 0 1-.176.183.377.377 0 0 0-.114.252 6.836 6.836 0 0 1-1.25 1.058 3.673 3.673 0 0 0-.711.478c-.107.117-.089.214.135.286a3.375 3.375 0 0 0 1.895.035c.355-.117.675-.323.928-.598.231-.111.489-.154.743-.123.368.07 1.102-.407 1.102-.407l-.013-.123-.04-.355a.284.284 0 0 1-.062-.217 1.168 1.168 0 0 0-.029-.311c0-.035-.014-.07-.02-.101l.068-.014s-.088-.442.069-.528c.158-.086.113-1.225.113-1.225a1.391 1.391 0 0 0-.305-.303c-.104-.045-.01-.583 0-.651.01-.068.166-1.417.166-1.417a1.82 1.82 0 0 1 .018-.607c.07-.182-.088-.885-.088-.885a.166.166 0 0 1 .043-.192c.096-.104.062-1.032.062-1.032s-.009-.469-.009-.592c.025-.247.093-.487.201-.711.096-.147.036-.608.036-.608v-.131c.042-.254.096-.505.166-.752.114-.365.245-1.008.245-1.008l.814-2.119v-.025c.219.414.346.87.376 1.337.045.325.068.653.07.981.006.398.033.794.079 1.188 0 0 .113 1.407.113 1.469 0 .061.141 1.145.229 1.31.087.166-.088.663-.141.721-.053.058.016 1.326.016 1.326l-.157 1.216c-.027.209-.131 1.008-.043 1.326.088.318.053.355.053.355s.315.321.131.348a.48.48 0 0 0-.35.633c.109.318.237.628.385.929l.145-.029v.102l.01.517c.03.201.038.405.027.609-.025.082-.061.472-.078.674 0 .075-.01.124-.01.124s0 .461.971.322 1.145-.521 1.145-.521v-.048c.015-.087.047-.275.071-.377.035-.14-.278-.764-.278-.764s-.053-.426-.141-.522a.463.463 0 0 1-.069-.183c0-.034-.015-.071-.022-.106l.065.012s-.052-.305.149-.4a.287.287 0 0 0 .122-.382c.007-.194.034-.386.078-.574a.284.284 0 0 1 .07-.276c.124-.123.219-.973.219-.973l.018-3.283c.033-.272.03-.545-.008-.815-.072-.236-.141-.686-.045-.809.096-.123.01-.685.01-.685s0-1.189.131-1.491c.131-.302.088-2.163.088-2.163l.034-1.224s.285-.269.217-1.679c.305-.018.648-.03.701.012.097.078.716.479 1.084.227.151-.106.297-.219.436-.34l-.154-2.603c.096.145.156.241.156.241 0-.364 1.03-1.546 1.03-1.546s.962-1.241 1.172-1.388c.211-.148.622-.928.622-.928.059-.15.129-.294.208-.435.148-.15-.167-.566-.131-.662zm-2.257.911c-.261.027-.812.626-.828.756a.513.513 0 0 1-.116.233c0-.053 0-.106-.012-.165-.063-.768-.129-1.702-.099-1.792.035-.285.046-.573.035-.86l.01-.013c.175.545.724 1.186.724 1.186s.096.279.208.287c.113.008.078.368.078.368z" fill="url(#b)"/>
        <path d="M149.82 108.976s.32-1.672 1.346-1.68l.749 1.541-.497.345s-1.089.035-1.598-.206z" fill="#65617D"/>
        <path opacity=".1" d="m151.915 108.836-.497.345a5.922 5.922 0 0 1-1.309-.109 1.606 1.606 0 0 1-.286-.097v-.028a3.743 3.743 0 0 1 .3-.843c.135-.3.363-.55.65-.713a.858.858 0 0 1 .341-.089h.047l.015.033.253.522.486.979z" fill="#000"/>
        <path d="M160.428 115.782s1.077-.102 1.171-.024c.095.077.708.473 1.069.223.362-.25.121-1.12.121-1.16 0-.04-.035-1.266-.035-1.266l-.646-.87-.81-1.526-1.657-.166.043 2.421v1.24l.744 1.128z" fill="#65617D"/>
        <path opacity=".1" d="M160.428 115.782s1.077-.102 1.171-.024c.095.077.708.473 1.069.223.362-.25.121-1.12.121-1.16 0-.04-.035-1.266-.035-1.266l-.646-.87-.81-1.526-1.657-.166.043 2.421v1.24l.744 1.128z" fill="#000"/>
        <path d="M150.945 107.252s-.084 1.051-.74 1.067c0 0-.186-.111-.435-.298-.576-.431-1.491-1.258-1.236-2.029.361-1.102 2.12.932 2.12.932l.136.151.155.177z" fill="#FBBEBE"/>
        <path opacity=".1" d="M150.945 107.253s-.084 1.05-.74 1.067c0 0-.186-.111-.435-.299l-.056-.071a.85.85 0 0 0 .358.096.482.482 0 0 0 .469-.295c.07-.136.131-.275.182-.417.03-.085.053-.171.067-.259l.155.178z" fill="#000"/>
        <path d="m150.666 109.157-.148-.191-.497-.638-.254-.331a.883.883 0 0 0 .36.098.485.485 0 0 0 .467-.297c.07-.134.131-.273.183-.416.081-.234.079-.353.051-.393.101.078.195.164.283.257l.048.045.017.035.25.497v.021c.028.164.113 1.17-.76 1.313z" fill="#E7EFFD"/>
        <path d="M155.828 131.336s-.725.474-1.088.404c-.25-.031-.505.01-.732.121a2.184 2.184 0 0 1-.913.595c-.585.197-1.404.119-1.869-.035-.221-.073-.239-.165-.133-.285.215-.184.449-.343.701-.474.452-.3.865-.653 1.233-1.05a.377.377 0 0 1 .111-.251c.061-.054.116-.116.166-.18.093-.11.179-.224.179-.224l2.129.068s.037.154.065.312c.023.101.035.205.03.309a.276.276 0 0 0 .059.216l.038.351.024.123zM160.282 131.93c-.027.104-.056.288-.071.376v.046s-.166.38-1.129.517c-.963.138-.956-.318-.956-.318s0-.05.01-.123c.013-.222.04-.444.076-.662.01-.203.002-.403-.026-.604l-.01-.513v-.358l1.584-.166c.01.119.028.237.051.353.01.065.035.126.07.181.086.094.137.517.137.517s.299.616.264.754z" fill="#65617D"/>
        <path opacity=".1" d="M155.62 130.025s.037.154.065.312c-.23.041-1.234.215-1.491.094a3.848 3.848 0 0 0-.897-.215l.01-.035c.093-.11.179-.224.179-.224l2.134.068zM159.798 130.474c-.401-.069-1.283.096-1.629.166v-.358l1.584-.166c.008.12.023.241.045.358z" fill="#000"/>
        <path d="m160.695 117.404-.034 1.214s.044 1.853-.086 2.155c-.129.301-.129 1.473-.129 1.473s.086.56-.01.681c-.096.121-.025.568.043.8.038.269.042.541.008.811l-.016 3.258s-.095.843-.216.964a.28.28 0 0 0-.068.275 2.894 2.894 0 0 0-.077.57.285.285 0 0 1-.121.378c-.199.096-.148.398-.148.398-.472-.113-1.823.189-1.823.189a7.952 7.952 0 0 1-.379-.923.475.475 0 0 1 .344-.628c.181-.027-.129-.345-.129-.345s.035-.043-.053-.353.018-1.104.043-1.311l.156-1.205s-.07-1.267-.017-1.325c.053-.058.224-.552.138-.714-.086-.163-.224-1.242-.224-1.303 0-.061-.112-1.457-.112-1.457s-.103-.972-.078-1.18a7.732 7.732 0 0 0-.068-.972 3.325 3.325 0 0 0-.371-1.326l-.009.025-.802 2.103s-.129.638-.24.994c-.07.247-.124.497-.166.749v.129s.061.456-.033.604c-.108.222-.174.46-.199.705 0 .121.008.587.008.587s.035.922-.059 1.024a.166.166 0 0 0-.043.191s.154.698.086.878c-.04.199-.047.403-.018.603 0 0-.138 1.336-.154 1.406-.017.069-.113.603-.009.646.115.084.216.186.3.302 0 0 .045 1.128-.111 1.214-.156.086-.069.526-.069.526s-1.25.242-1.533.102a3.95 3.95 0 0 0-.897-.215l.086-.283c0 .009-.063.102-.102-.251-.04-.353.318-.19.318-.19s.285.069-.166-.378c-.451-.448-.232-.905-.207-.905.041-.219.071-.441.086-.663.043-.233.05-.472.018-.707-.061-.31-.112-1.276-.112-1.276s.043-.731-.035-.995c-.078-.263.051-.749.078-.861.026-.113-.078-1.137-.078-1.137.048-.274.059-.552.035-.829-.052-.355.051-1.657.051-1.657l.156-1.492c.054-.217.086-.439.094-.662.02-.287.063-.572.129-.852a.958.958 0 0 1 .068-.414c.07-.241.111-.491.121-.741l.829-1.896.404-1.672 5.469-.052s.02.146.053.41c.033.263.08.653.131 1.133.048.438.101.953.151 1.525.142 1.826-.202 2.148-.202 2.148z" fill="#3F3D56"/>
        <path d="m160.187 102.324-1.276 1.362s-1.637-.663-1.464-.878c.066-.088.056-.361.018-.663-.062-.477-.191-1.026-.191-1.026s2.86-.466 2.62.017a.782.782 0 0 0-.018.571c.07.222.176.43.311.617z" fill="#FBBEBE"/>
        <path opacity=".1" d="M159.894 101.134c-.088.175-.131.194-.076.383-.373.401-.849.84-1.44.84a2.035 2.035 0 0 1-.913-.214c-.062-.477-.191-1.026-.191-1.026s2.86-.465 2.62.017z" fill="#000"/>
        <path d="M160.428 100.254a2.054 2.054 0 0 1-1.992 2.11 2.055 2.055 0 0 1-2.11-2.108v-.028a2.055 2.055 0 0 1 2.122-1.98 2.05 2.05 0 0 1 1.98 2.006z" fill="#FBBEBE"/>
        <path opacity=".1" d="M160.723 113.785c-.27 0-1.175.01-2.186.025H158.181c-1.199.018-2.38-.215-2.854-.166-1.008.095.361-.931.361-.931.751.182 1.525.26 2.297.232l.29-.015c.916-.051 1.838-.137 2.32-.282.032.269.078.655.128 1.137z" fill="#000"/>
        <path d="M160.723 113.732c-.27 0-1.175.01-2.186.026H158.181c-1.199.02-2.38-.213-2.854-.165-1.008.094.361-.932.361-.932.751.183 1.525.26 2.297.232l.29-.015c.916-.051 1.838-.137 2.32-.281.032.266.078.654.128 1.135z" fill="#E3A79F"/>
        <path opacity=".1" d="m157.826 102.892-1.578.741-1.231 9.462s.724-.331 1.137-.121c.413.211 1.689.019 1.689.019s.931-.053 1.068.051c.138.104 1.759-.431 1.759-.431s.291-.663.068-.759c-.224-.096.069-1.12.069-1.12l-.137-6.824-.277-.879-.741-.447-.752.6-.363.053-.711-.345z" fill="#000"/>
        <path d="m157.826 102.788-1.578.741-1.223 9.463s.725-.332 1.137-.121c.413.21 1.689.016 1.689.016s.931-.051 1.069.052c.137.102 1.758-.431 1.758-.431s.292-.663.068-.758c-.224-.094.07-1.12.07-1.12l-.138-6.824-.277-.88-.74-.447-.761.603-.363.051-.711-.345z" fill="#E7EFFD"/>
        <path opacity=".1" d="M157.799 103.228s.458.543.449.662l-.026.378-.345.7s-.189.87-.189 1.05c0 .181-.301 1.749-.301 1.749l-.363 2.412-.456 3.164.464.8.552-.465.732-5.635.156-1.112s.166-1.998.166-2.205a6.696 6.696 0 0 0-.096-.749s.112-.517.578-.638c.466-.121-.035-.027-.035-.027l-.266-.215-.234.094s-.648-.204-.786.037z" fill="#000"/>
        <path d="M157.748 103.176s.458.544.448.663c-.01.119-.025.379-.025.379l-.345.698s-.19.872-.19 1.052c0 .181-.302 1.749-.302 1.749l-.361 2.413-.458 3.162.466.802.552-.466.732-5.634.156-1.112s.166-1.999.166-2.206a7.037 7.037 0 0 0-.095-.751s.113-.517.579-.636c.465-.119-.035-.027-.035-.027l-.267-.215-.234.094s-.649-.205-.787.035z" fill="#3F3D56"/>
        <path opacity=".1" d="M157.447 102.271s-.07.053-.086.397c-.055.38-.141.754-.259 1.119 0 0 .897-.62 1.344-.55l-.999-.966z" fill="#000"/>
        <path d="M157.447 102.168s-.07.051-.086.396c-.055.38-.141.754-.259 1.12 0 0 .897-.62 1.344-.552l-.999-.964z" fill="#E7EFFD"/>
        <path opacity=".1" d="m159.894 101.992-1.414 1.241s1.19.706 1.344.879c.155.172.31-1.689.31-1.689l-.24-.431z" fill="#000"/>
        <path d="m159.946 101.893-1.414 1.239s1.19.708 1.344.88c.154.172.312-1.689.312-1.689l-.242-.43z" fill="#E7EFFD"/>
        <path opacity=".1" d="M157.498 102.271s-.154-.076-.302.148a.968.968 0 0 1-.422.331s-1.568.25-1.628.458l-.732.043s-.259.035-.285.576c-.027.542-.166.595-.166.595s-.301.534-.275.811a.45.45 0 0 1-.232.412l1.077 2.801s.033 1.16-.166 1.578c-.198.417-.568 2.291-.568 2.291s.154-.034.146.068c-.008.103-.189 1.233-.189 1.233-.022.206-.068.41-.139.604-.086.155-.095.964-.095.964l-.137.587s.331.732.828.629c.498-.102 1.406-2.059 1.406-2.059l.576-2.112.448-2.084.129-1.414.207-3.129.302-2.068s.338-1.115.217-1.263z" fill="#000"/>
        <path d="M157.447 102.168s-.156-.077-.302.146a.959.959 0 0 1-.423.332s-1.567.25-1.627.455l-.732.043s-.259.035-.285.579c-.027.543-.166.595-.166.595s-.302.533-.275.808a.458.458 0 0 1-.234.415l1.077 2.8s.035 1.16-.166 1.576c-.2.416-.57 2.294-.57 2.294s.156-.035.148.068a65.756 65.756 0 0 1-.191 1.233c-.02.205-.066.409-.137.603-.086.154-.095.964-.095.964l-.137.587s.331.733.828.628c.498-.104 1.406-2.06 1.406-2.06l.576-2.109.448-2.087.129-1.413.207-3.127.302-2.068s.346-1.116.219-1.262z" fill="#65617D"/>
        <path opacity=".1" d="m151.915 108.837-.497.345a5.868 5.868 0 0 1-1.309-.11l-.279-.124-.056-.023.058.018c.222.08.462.086.689.023.708-.237.63-1.405.602-1.669v-.051l.031.045.032.033.25.497v.022l.479.994z" fill="#000"/>
        <path d="m153.647 105.473-.242.069-.033.497a.332.332 0 0 0-.363.294 1.19 1.19 0 0 1-.216.497s-.474.396-.497.731l-.293.182s-.681-.156-.829-.431c0 0 .31 2.222-1.345 1.68 0 0 1.852.809 1.939.922.323.282.782.346 1.171.166.293-.143.519-.393.63-.698 0 0 .497-.699.517-.802.02-.103.404-.224.404-.224l.743-1.793-1.586-1.09z" fill="#65617D"/>
        <path opacity=".1" d="m159.695 103.029.251-1.136c.044.164.121.319.223.455l.372.285c.159.075.324.131.497.166.129 0 .828.181.913.275.084.095.431.027.431.027s.285.094.535.154c.25.059.369.474.318.638a.494.494 0 0 0 .121.465c.083.135.136.284.156.44a.498.498 0 0 1 .292.25c.054.195.076.399.061.603l-1.283 1.81c.012.285 0 .57-.035.851-.051.156.181 2.793.181 2.793l.268 4.532a5.126 5.126 0 0 1-.43.332c-.078.034-.156-1.603-.156-1.658 0-.054-1.989-2.982-1.989-2.982a2.738 2.738 0 0 1-.267-.526c0-.094-.25-.964-.25-.964l-.379-1.681.17-5.129z" fill="#000"/>
        <path d="M163.973 105.559v.099l-1.286 1.803c.011.285.001.569-.033.852-.03.091.034 1.017.096 1.78.043.55.084 1.012.084 1.012l.113 1.923.154 2.61a5.08 5.08 0 0 1-.431.331c-.078.035-.156-1.602-.156-1.657 0-.055-1.988-2.983-1.988-2.983a2.701 2.701 0 0 1-.267-.525c0-.095-.25-.965-.25-.965l-.378-1.68.166-5.137.145-1.137c.093.164.204.316.332.455l.369.286c.159.074.325.13.498.165.129 0 .828.181.913.275.084.095.431.027.431.027s.283.094.533.154c.25.06.371.474.32.638a.498.498 0 0 0 .119.466c.083.134.136.283.156.439.128.04.234.131.293.25.055.167.078.343.067.519z" fill="#65617D"/>
        <path opacity=".1" d="M153.439 128.518c.044 0 1.853.069 1.823.362-.029.294-1.823-.362-1.823-.362zM153.845 129.005s1.215.197.895.379c-.32.183-.895-.379-.895-.379zM158.36 128.328s2.016.166 1.715.396c-.302.231-1.018.259-1.051.267a9.439 9.439 0 0 1-.664-.663zM158.119 129.217s1.121.189 1.16.404c.04.216-1.16-.404-1.16-.404zM158.734 124.033s1.026.242 1.086.406l-1.086-.406zM154.784 124.771s-.534.154-.017.464c.517.309.017-.464.017-.464zM157.153 116.489c.062 0 .995-.31 1.326-.166.235.088.482.135.733.138l-2.059.028zM157.274 117.47l-.008.087-.802 2.103s-.129.638-.24.994a6.68 6.68 0 0 0-.166.749l.711-4.41.505.477z" fill="#000"/>
        <path d="M158.525 113.758h-.343l-.195-.868.29-.015.248.883z" fill="#3F3D56"/>
        <path d="m162.591 112.706-.214.177-.716.59s-1.939 1.034-2.474.051c-.471-.865 1.728-1.491 2.257-1.617l.112-.028 1.035.827z" fill="#FBBEBE"/>
        <path opacity=".1" d="M154.309 104.236s.38.166.466.413c.086.247-.466-.413-.466-.413zM153.138 106.821s-.552.671-.332.93c.221.259.332-.93.332-.93zM162.996 104.615s-.517.052-.535.497l.535-.497zM158.206 111.68c.051-.051 1.239-1.809 1.516-1.657l-1.516 1.657zM160.428 100.254c0 .339-.083.672-.242.97h-.015c-.131-.028-.199-.179-.298-.273a.399.399 0 0 0-.464-.065.466.466 0 0 0-.229.441c-.066-.275-.045-.569-.11-.845-.064-.277-.256-.557-.522-.562-.112 0-.245.043-.331-.043-.05-.052-.06-.133-.098-.194-.187-.307-.762-.151-.994 0a6.048 6.048 0 0 1-.799.542 2.055 2.055 0 0 1 2.121-1.98 2.054 2.054 0 0 1 1.981 2.008v.001z" fill="#000"/>
        <path d="M158.123 99.626c.038.063.048.144.098.195.083.085.215.042.331.044.264 0 .456.285.52.561.065.277.044.57.11.845a.467.467 0 0 1 .229-.442.402.402 0 0 1 .464.066c.099.095.165.246.298.274.132.028.255-.098.301-.236a3.63 3.63 0 0 0 .075-.429c.058-.268.234-.489.331-.744a1.354 1.354 0 0 0-.01-.963c-.064-.165-.165-.306-.225-.469-.099-.245-.126-.522-.247-.755a.89.89 0 0 0-1.072-.441c-.187.07-.35.205-.54.267-.255.082-.527.02-.791-.017-.263-.036-.555-.04-.767.134-.244.2-.31.574-.54.794-.096.091-.216.15-.317.235a.435.435 0 0 0-.177.35c.015.179.189.341.124.505a.386.386 0 0 1-.094.126 1.815 1.815 0 0 0-.418.711c.461.145.96-.364 1.326-.605.229-.157.804-.311.991-.006z" fill="#3F3D56"/>
        <path opacity=".1" d="m162.591 112.706-.214.177c-.189-.315-.966-.944-.966-.944l.033-.032.112-.028 1.035.827z" fill="#000"/>
        <path d="M162.798 112.388s-.077.191-.158.358c-.081.167-.165.317-.165.194-.01-.242-1.01-1.052-1.01-1.052l.136-.133.166-.152 1.031.785z" fill="#E7EFFD"/>
        <path opacity=".1" d="m162.832 111.107.113 1.922c-.267-.416-.994-1.491-1.475-1.448l1.147-1.318c.046-.053.091-.107.131-.165.043.551.084 1.009.084 1.009z" fill="#000"/>
        <path opacity=".1" d="M162.797 112.387s-.076.191-.157.358c-.3-.412-.713-.899-1.042-.994l.165-.152 1.034.788z" fill="#000"/>
        <path d="m163.659 105.416.31.242s.517 0 .569.439c.051.439.527.63.527.63s.353.353.353.517c0 .164.266.456.266.482 0 .027.259.55.224.646-.035.097.275.508.181.663a3.705 3.705 0 0 0-.207.431s-.405.776-.612.922c-.207.145-1.16 1.378-1.16 1.378s-1.017 1.172-1.017 1.535c0 0-.995-1.657-1.578-1.611l1.147-1.326s.199-.215.207-.344c.008-.13.552-.725.81-.749 0 0 .043-.355-.069-.363-.113-.009-.208-.284-.208-.284s-.757-.896-.767-1.465c-.01-.568 1.024-1.743 1.024-1.743z" fill="#65617D"/>
        <path opacity=".1" d="M164.117 106.235s-.724.536-.57.708c.154.172.57-.708.57-.708zM164.15 108.441s1.344-.431 1.491 0h-1.491zM155.828 131.337s-.725.473-1.088.404c-.25-.032-.505.01-.732.121a2.184 2.184 0 0 1-.913.595c-.585.197-1.404.119-1.869-.035-.221-.073-.239-.166-.133-.285.507.101 1.637.302 1.942.156.335-.179.658-.38.965-.604 0 0 .74-.104.845-.104.33-.104.653-.229.968-.371l.015.123zM160.211 132.306v.046s-.166.38-1.129.517c-.963.138-.956-.318-.956-.318s0-.05.01-.123c.295.115.956.242 2.075-.122zM154.667 106.136s0 1.963-.165 2.154c-.166.191.165-2.154.165-2.154zM162.436 106.765l.249.702s.099-.689-.249-.702z" fill="#000"/>
        <g opacity=".1" fill="#000">
            <path opacity=".1" d="M156.343 99.234c.063-.166-.103-.32-.125-.498a.348.348 0 0 0-.026.156c.01.131.108.252.132.373.007-.01.014-.02.019-.031zM159.203 101.09c-.063-.272-.045-.56-.106-.829-.061-.268-.259-.555-.522-.56-.114 0-.247.042-.331-.043-.05-.051-.06-.132-.098-.195-.189-.305-.763-.151-.995 0-.353.235-.836.725-1.289.614a2.51 2.51 0 0 0-.058.166c.461.144.96-.364 1.326-.605.235-.165.81-.311.994 0 .038.063.048.144.098.196.083.084.215.041.331.043.264 0 .456.285.521.562.064.276.043.57.109.845a.491.491 0 0 1 .02-.194zM160.499 100.766c-.048.136-.166.262-.303.234-.138-.028-.198-.179-.297-.274a.408.408 0 0 0-.466-.064.47.47 0 0 0-.228.417.449.449 0 0 1 .203-.25.403.403 0 0 1 .464.066c.1.095.166.246.299.274.132.028.255-.098.301-.235a1.24 1.24 0 0 0 .048-.247 1.153 1.153 0 0 1-.021.079zM160.903 99.591c-.096.257-.271.478-.331.746a1.305 1.305 0 0 0-.027.166c.06-.269.234-.488.332-.743.043-.114.069-.235.079-.358a1.12 1.12 0 0 1-.053.19z"/>
        </g>
        <path d="M64.524 37.79H52.26v12.714h12.263V37.79zM80.267 37.79H68.004v12.714h12.263V37.79z" fill="#DFE3EF"/>
        <path opacity=".2" d="M96.01 37.79H83.747v12.714H96.01V37.79zM111.753 37.79H99.49v12.714h12.263V37.79zM127.496 37.79h-12.263v12.714h12.263V37.79z" fill="#6C63FF"/>
        <path opacity=".1" d="m126.487 33.066-9.78 7.398 7.67 10.14 9.78-7.4-7.67-10.139z" fill="#6C63FF"/>
        <path d="M58.392 39.11a2.047 2.047 0 1 0 0 4.096 2.048 2.048 0 0 0 2.049-2.048v-.002c0-1.13-.917-2.047-2.047-2.047h-.002zm1.409 2.598c-.08-.027-.232-.035-.29-.103-.028-.035-.01-.166-.01-.166a.607.607 0 0 0 .305-.06c.038-.023.021-.026 0-.059-.108-.18-.06-.41-.065-.606a.499.499 0 0 0-.197-.438.622.622 0 0 0-.308-.068.703.703 0 0 0-.249.04c-.417.166-.166.72-.315 1.037-.024.055-.06.073 0 .105.09.038.188.06.285.061v.138c-.011.048-.116.08-.155.092a1.146 1.146 0 0 0-.166.057.04.04 0 0 0-.023.051c.003.012.013.02.023.023a.68.68 0 0 1 .114.028c.17.045.323.128.453.246a.676.676 0 0 1 .197.439.122.122 0 0 1-.055.114l-.056.035a.027.027 0 0 1-.042-.023.664.664 0 0 0-.45-.642c-.135-.046-.277-.05-.41-.096-.041-.013-.12-.031-.137-.076a.483.483 0 0 1-.019-.146v-.112c0-.037.063-.077.077-.1a.733.733 0 0 0 .068-.308c.086.023.096-.134.11-.184.016-.05.05-.206-.024-.232a.402.402 0 0 0 .041-.144.875.875 0 0 0-.011-.388.611.611 0 0 0-.584-.408.626.626 0 0 0-.624.373.817.817 0 0 0-.029.39.48.48 0 0 0 .047.177c-.063.028-.045.166-.033.21.011.045.03.23.119.206.007.081.018.16.038.239.017.05.043.099.081.137.017.02.027.022.025.047a1.02 1.02 0 0 1-.018.235c-.02.074-.184.106-.25.12-.141.017-.279.056-.408.114a1.773 1.773 0 1 1 3.154-.208.45.45 0 0 0-.22-.149l.01.002z" fill="#fff"/>
        <path opacity=".5" d="M58.58 48.502v-2.266l1.044 1.044.26-.27-1.492-1.491-1.491 1.491.262.26 1.044-1.034v2.266h.373zM74.323 48.502v-2.266l1.044 1.044.26-.27-1.492-1.491-1.491 1.491.26.26 1.046-1.034v2.266h.373z" fill="#6C63FF"/>
        <path d="M74.193 40.76a.045.045 0 0 0-.063-.008.02.02 0 0 0-.008.008l-.85 1.129a.044.044 0 0 0 .005.061c.006.007.016.01.025.01l1.491.13c.023.001.045-.016.046-.039a.051.051 0 0 0-.004-.026l-.64-1.26-.002-.005zm.97.6a.045.045 0 0 0-.063-.008.02.02 0 0 0-.009.008l-.228.232a.04.04 0 0 0 0 .05l.235.457c.007.012.02.02.033.022l.416.035c.023.001.045-.015.047-.038a.051.051 0 0 0-.005-.027l-.421-.726-.005-.005zm.1-.366a.219.219 0 1 0-.219-.26.219.219 0 0 0 .22.26z" fill="#fff"/>
        <path d="m75.977 40.116-.609-.053-.056-.62a.252.252 0 0 0-.273-.227l-2.746.249a.25.25 0 0 0-.227.271l.246 2.741a.25.25 0 0 0 .274.226l.144-.012-.013.154a.249.249 0 0 0 .225.27h.004l2.747.24a.252.252 0 0 0 .272-.228l.242-2.741a.249.249 0 0 0-.225-.27h-.005zm-3.4 1.584a.066.066 0 0 1-.067-.056l-.166-1.85a.062.062 0 0 1 .055-.068h.001l2.58-.232a.066.066 0 0 1 .069.057l.044.489-1.864-.166a.25.25 0 0 0-.272.227l-.137 1.574-.242.025zm3.35-1.254-.166 1.849a.062.062 0 0 1-.068.056l-.165-.014-2.41-.21a.063.063 0 0 1-.058-.067l.035-.406.127-1.442a.061.061 0 0 1 .065-.058h.002l1.83.166.274.024.478.042a.06.06 0 0 1 .056.06z" fill="#fff"/>
        <path d="M80.267 63.001H52.261v20.88h28.006v-20.88z" fill="#DFE3EF"/>
        <path d="M69.477 69.414c-5.134-1.773-10.734.953-12.507 6.087a9.816 9.816 0 0 0-.538 3.207.697.697 0 1 1-1.396 0c.004-6.203 5.033-11.23 11.238-11.227 1.23 0 2.449.202 3.612.598" fill="#6C63FF"/>
        <path d="M69.886 68.078a11.248 11.248 0 0 1 7.605 10.63.697.697 0 1 1-1.395 0 9.85 9.85 0 0 0-6.619-9.294" fill="#fff"/>
        <path d="M67.298 73.742h-.012a1.22 1.22 0 0 0-1.022.56 1.22 1.22 0 0 0-1.023-.56h-.011a1.216 1.216 0 0 0-1.207 1.217c.027.517.206 1.014.516 1.43.647.886 1.725 1.657 1.725 1.657s1.077-.776 1.725-1.657c.31-.416.489-.913.515-1.43 0-.668-.538-1.212-1.206-1.217z" fill="#6C63FF"/>
        <path d="M130.479 54.273H87.991V85.87h42.488V54.272z" fill="#DFE3EF"/>
        <path d="M94.104 78.05h-1.74v5.831h1.74V78.05zM97.419 70.831h-1.74v13.05h1.74v-13.05z" fill="#fff"/>
        <path d="M100.733 64.326h-1.74v19.555h1.74V64.326z" fill="#DFE3EF"/>
        <path d="M104.047 59.687h-1.74V83.88h1.74V59.687z" fill="#fff"/>
        <path d="M100.733 59.687h-1.74V83.88h1.74V59.687zM107.362 70.583h-1.74v13.299h1.74V70.583z" fill="#6C63FF"/>
        <path d="M110.676 67.144h-1.74V83.88h1.74V67.144zM113.991 61.924h-1.741V83.88h1.741V61.924z" fill="#fff"/>
        <path opacity=".2" d="M117.305 74.103h-1.74v9.778h1.74v-9.778zM120.619 69.588h-1.74V83.88h1.74V69.588zM123.934 64.326h-1.74v19.555h1.74V64.326zM127.248 64.326h-1.74v19.555h1.74V64.326z" fill="#6C63FF"/>
        <path d="m135.229 51.22 1.703-.958.799.479 15.965 76.846-.956.182-1.995-1.731-15.516-74.818z" fill="#65617D"/>
        <path opacity=".1" d="m136.932 50.262 15.808 77.507.956-.182-15.965-76.846-.799-.48z" fill="#000"/>
        <path d="m125.181 54.463 12.151 1.163v.94l-12.086-1.053-.065-1.05zM126.469 65.911h12.884v1.376h-13.05l.166-1.376zM127.651 77.913l13.007-.516 1.627.516v.882l-11.557.608h-2.971l-.106-1.49z" fill="#65617D"/>
        <path opacity=".1" d="m130.894 78.63 11.391-.716v.882l-11.557.608.166-.774zM127.651 77.914l3.243.716-.166.774h-2.971l-.106-1.49z" fill="#000"/>
        <path d="m128.829 90.94 14.361-1.332 1.583.413v.92l-12.829 1.347-3.115.277V90.94z" fill="#65617D"/>
        <path opacity=".1" d="m131.89 91.515 11.456-1.152 1.427-.341v.92l-12.829 1.347-.054-.774z" fill="#000"/>
        <path opacity=".1" d="m128.636 91.684 3.253-.17.055.775-3.116.276-.192-.881z" fill="#000"/>
        <path d="m129.512 103.897 16.195-2.151 1.389.552v1.051l-13.97 2.101h-3.283l-.331-1.553z" fill="#65617D"/>
        <path opacity=".1" d="m133.126 104.784 13.97-2.487v1.051l-13.97 2.101v-.665zM129.706 104.803l3.42-.018v.665h-3.283l-.137-.647z" fill="#000"/>
        <path d="m130.468 117.237 17.765-3.313 1.572.925v.73l-15.587 3.782-3.213.244-.537-2.368z" fill="#65617D"/>
        <path opacity=".1" d="m134.218 118.609 15.587-3.76v.73l-15.587 3.782v-.752z" fill="#000"/>
        <path opacity=".1" d="m130.817 118.779 3.401-.171v.753l-3.213.243-.188-.825z" fill="#000"/>
        <path d="m126.313 49.304-1.437.32 5.191 82.633 1.516.558h1.198l-6.468-83.511z" fill="#65617D"/>
        <path opacity=".1" d="m125.612 49.46 5.971 83.355h1.198l-6.468-83.511-.701.155z" fill="#000"/>
        <path d="m127.988 32.546-9.78 7.398 7.671 10.14 9.78-7.399-7.671-10.139z" fill="#fff"/>
        <path d="m127.988 32.546-9.78 7.398 7.671 10.14 9.78-7.399-7.671-10.139z" fill="#DFE3EF"/>
        <path opacity=".5" d="m129.812 44.806-1.366-1.81 1.462.203.044-.373-2.088-.29-.285 2.093.365.052.209-1.456 1.367 1.807.292-.225z" fill="#6C63FF"/>
        <path d="M126.585 40.858a1.921 1.921 0 0 1-3.058-1.823.154.154 0 1 1 .305.048 1.613 1.613 0 0 0 2.566 1.536 1.613 1.613 0 0 0-1.823-2.651l.363.478a.156.156 0 0 1-.247.188l-.461-.609a.156.156 0 0 1 .03-.217 1.923 1.923 0 0 1 2.32 3.064l.005-.014z" fill="#fff"/>
        <path d="m124.273 39.068 1.177-.029a.29.29 0 0 1 .056.577c-.013.002-.028.002-.041.002a.252.252 0 0 1-.093-.014l-1.125-.347a.095.095 0 0 1-.063-.121.097.097 0 0 1 .089-.069z" fill="#fff"/>
        <path d="M139.209 78.182c-.122-.444-.202-.828-.202-.828a1.748 1.748 0 0 0-.227-.847v-.123l-.035-.901c.057-.166.128-.327.211-.48.15-.29-.052-1.327-.052-1.327s-.663-1.441-.547-2.376c.116-.935-1.395-4.077-1.395-4.077a4.052 4.052 0 0 1 .095-.918.771.771 0 0 0 .009-.192v-.023c-.044-.612-.573-1.742-.573-1.742l-.018-2.19s.258-1.303-.312-3.015a15.957 15.957 0 0 1-.444-1.57c1.031-.198 1.823-.36 1.823-.36s-.699-2.496-1.123-2.92c-.425-.425-.803-1.799-.803-1.799s-.28-1.771.042-2.305c.321-.533.331-1.431.331-1.431s.759-.597.847-.852c.124-.365.197-.744.217-1.129-.011-.298-.119-.563-.093-.72.027-.158-.256-.748-.137-1.036a.736.736 0 0 0 .041-.276v-.008a3.721 3.721 0 0 0-.096-.736 2.102 2.102 0 0 0-.789-.384l-.019-.066-.052-.176a.675.675 0 0 0-.078-.041v-.065l-.016-.255.101-.58c.2-1.01-1.139-1.107-1.139-1.107a.704.704 0 0 0-.402-.318c-.272-.085.013 1.504.142 1.602.207.252.395.522.559.804l.023.04a.493.493 0 0 0-.058.066l.064.344.01.054a1.415 1.415 0 0 0-.199.37c.145.15.223.352.218.56-.01.235.026.468.106.689-.015-.015-.194-.196-.363-.143-.169.053-.643.214-.643.214s-.357.076-.32.154c.036.078-.227.434-.227.434l-.994-.873-.032-.083a2.307 2.307 0 0 1-.098-.394c.103-.03.206-.067.304-.111a.686.686 0 0 0 .26-.181c.076-.128.122-.272.137-.42.091-.278.202-.548.332-.81.18-.455.228-.954.137-1.437a.95.95 0 0 0-.165-.412c-.166-.209-.455-.287-.663-.45-.209-.165-.357-.423-.604-.543a1.154 1.154 0 0 0-.732-.035c-.482.102-.941.29-1.354.56a.7.7 0 0 1-.449.166.61.61 0 0 1-.331-.228v-.014l-.01-.013a1.67 1.67 0 0 0-.113.84v.04a.102.102 0 0 1 0 .035.22.22 0 0 1 0 .051.365.365 0 0 1-.086.133.84.84 0 0 0-.073.11c.003-.014.006-.027.011-.04a.58.58 0 0 0-.089.308.306.306 0 0 0 .081.213c.052.045.106.085.166.12a1.726 1.726 0 0 0-.017.321c.028.652.395 1.24.966 1.553.014.026.025.053.037.081.152.325.225.681.215 1.04 0 .027 0 .052-.01.079l-.033.041s-1.586.076-1.973-.248c-.388-.325-.912.863-.912.863s-.565.133-.683.026c-.117-.105-.782.015-.782.015a1.433 1.433 0 0 0-1.006-.331 2.903 2.903 0 0 0-.744-.376h-.02a.825.825 0 0 0-.359-.032s-.806-.614-1.048-.953c-.242-.338-1.373-1.58-1.38-1.585v-.062l-.02-.187a.637.637 0 0 1-.098.012l-.023-.063a3.52 3.52 0 0 0-.252-.52s0-.238.058-.299-.064-.925-.064-.925-.766-1.617-1.349-.364c0 0-1.16.84-.126 1.727 0 0 .406.177.469.33.041.1.187.372.285.553l.044.08-.011.01.021.155v.06c-.184.114-.306.225-.273.305.061.134.104.275.131.419 0 0 1.45 1.678 1.657 2.413 0 0 3.793 2.061 5.02 2.172l-.166 1.109s-.04.663-.015.9-.096 1.312-.096 1.312-.151 1.583-.322 1.81c-.17.227-.101 1.172-.101 1.172a7.843 7.843 0 0 1-.192 1.347 3.437 3.437 0 0 0 0 1.34s-.563 1.44.88.423c0 0 .726-.073 1.561-.134v.431c.02.812.058 1.93.128 2.775.122 1.492.692 4.437.692 4.437l.057 1.491a2.767 2.767 0 0 0 .431 1.9l.152.995s.293.643.313 1.033a.623.623 0 0 1-.008.096.556.556 0 0 0 0 .152c0 .45.315 1.518.315 1.518s.058 1.086.224 1.142c.165.056-.166.633-.254.8v-.03l-.018.034a.789.789 0 0 0-.042.276.4.4 0 0 0 .196.375c.316.177.489.331.229.401a2.704 2.704 0 0 0-.284.071c0-.011-.011-.025-.015-.035a.165.165 0 0 0-.101.194c.008.13.047.254.111.365.126.278.285.543.472.785l.125-.018a.654.654 0 0 1-.068.138.517.517 0 0 1-.177.165.586.586 0 0 1-.219.087.622.622 0 0 0-.453.242c-.154.215-.245.505.085.744l1.18.356s2 .162 1.884-.28c-.116-.443-.204-.829-.204-.829a1.793 1.793 0 0 0-.192-.79 1.04 1.04 0 0 0-.076-.114l.071-.01s.108-.995.295-1.195c.045-.045.053-.08.041-.105.019-.054-.034-.084-.101-.1 0 .014-.008.026-.011.04a.975.975 0 0 0-.196-.014s-.084-.517.119-.715a.197.197 0 0 0 .035-.155.828.828 0 0 0-.03-.21v.01a7.588 7.588 0 0 0-.515-1.2s-.033-.473.09-.663c.122-.191-.116-2.566-.116-2.566s0-1.151-.166-1.682c-.166-.53.134-1.171.134-1.171v-.034l-.026-.18v.011a22 22 0 0 0-.184-1.105c-.078-.36-.063-2.095-.063-2.095l.263-.75.57 1.254.618 1.679c.166.205.272.45.309.712v.053a1.09 1.09 0 0 0 0 .115c-.002.215.066.426.192.6 0 0 .177.797.412.994.153.16.242.37.251.59 0 0 .321 1.16.459 1.354.117.166.141.643.145.787v.043s.054.414.067.766v.114c-.004.09-.015.177-.037.264v.016-.06c-.048.24-.066.486-.054.73.008.419.091.913.356 1.195.459.487.732.412.732.412s-.187.638-.442.774a.116.116 0 0 0-.027.02v-.037a.313.313 0 0 0-.068.237c.025.337.15.658.358.922.065.058.141.1.226.12l-.04.026a.607.607 0 0 1-.22.086.622.622 0 0 0-.453.242c-.152.215-.243.505.086.744l1.179.356s2.002.182 1.877-.262z" fill="url(#c)"/>
        <path d="m131.596 79.22-1.142-.359c-.319-.238-.232-.528-.082-.744a.599.599 0 0 1 .437-.242.516.516 0 0 0 .212-.084.5.5 0 0 0 .166-.166.823.823 0 0 0 .111-.44s1.223-.41 1.574-.06a.836.836 0 0 1 .166.213c.121.246.185.516.187.79 0 0 .08.39.199.828.119.437-1.828.263-1.828.263zM137.087 78.46l-1.142-.357c-.32-.24-.232-.53-.085-.744a.594.594 0 0 1 .438-.242.699.699 0 0 0 .212-.084c.308-.186.285-.612.285-.612s1.221-.41 1.574-.06c.048.046.09.1.125.156.142.26.218.552.222.848 0 0 .078.391.197.829.119.437-1.826.267-1.826.267z" fill="#2D293D"/>
        <path opacity=".1" d="M132.882 77.122a.836.836 0 0 1 .166.214l-1.845.286a.823.823 0 0 0 .111-.44s1.213-.41 1.568-.06zM138.493 76.51l.013.346c-.27.488-1.667.436-2.081.214a.728.728 0 0 0 .085-.045c.308-.185.285-.611.285-.611s1.221-.41 1.574-.06c.048.047.089.1.124.156z" fill="#000"/>
        <path d="M138.656 75.007a3.088 3.088 0 0 0-.202.48l.048 1.244c-.295.531-1.939.422-2.171.147-.232-.275-.497-1.006-.249-1.142.249-.136.428-.774.428-.774s-.265.075-.709-.414c-.445-.489-.362-1.61-.294-1.88.068-.273-.045-1.161-.045-1.161s-.008-.63-.142-.829c-.134-.198-.446-1.353-.446-1.353a.922.922 0 0 0-.243-.59c-.229-.196-.401-.995-.401-.995a1.043 1.043 0 0 1-.184-.663c.033-.396-.299-.808-.299-.808l-.601-1.68-.552-1.257-.255.75s-.014 1.736.064 2.096c.078.36.209 1.317.209 1.317s-.292.641-.129 1.172c.162.53.166 1.68.166 1.68s.233 2.373.114 2.565c-.119.193-.085.663-.085.663s.7 1.36.498 1.558c-.203.197-.115.714-.115.714s.441-.018.259.18c-.183.196-.285 1.192-.285 1.192l-1.896.294a3.979 3.979 0 0 1-.457-.786c-.274-.573.028-.522.278-.595.25-.073.084-.224-.222-.4-.307-.178-.149-.61-.149-.61s.427-.79.267-.846c-.161-.056-.218-1.143-.218-1.143s-.364-1.278-.298-1.628c.066-.35-.298-1.171-.298-1.171l-.148-.995a2.728 2.728 0 0 1-.419-1.859l-.058-1.528s-.555-2.943-.676-4.436a61.009 61.009 0 0 1-.134-3.08c-.01-.458-.013-.761-.013-.761l6.774-.975c.025.34.08.676.166 1.006.083.371.21.85.404 1.448.555 1.714.305 3.016.305 3.016l.022 2.191s.662 1.442.548 1.95a4.29 4.29 0 0 0-.091.917s1.462 3.149 1.355 4.08c-.106.931.532 2.377.532 2.377s.194 1.032.047 1.322z" fill="#575988"/>
        <path opacity=".05" d="m134.451 66.953 2.06-.354s-1.127 1.24-2.06.354z" fill="#000"/>
        <path opacity=".1" d="M136.134 64.587s.099.73-.332 1.022c-.006 0 .791-.157.332-1.022zM135.918 62.262s-1.677 1.491-2.31 1.397c-.633-.095 2.31-1.397 2.31-1.397zM131.911 67.722s-1.302.35-1.325.878c-.024.529 1.325-.878 1.325-.878z" fill="#000"/>
        <path opacity=".05" d="M132.453 74.276s-1.844.418-1.307.633c.459.163.929.285 1.408.372 0 0 .6.008-.101-1.005z" fill="#000"/>
        <g opacity=".05" fill="#000">
            <path opacity=".05" d="M130.784 75.299a.367.367 0 0 1-.181-.264l-.018.035s-.156.43.151.608l.099.062c.055-.014.115-.024.166-.04.255-.073.09-.222-.217-.401zM133.172 75.08c.05-.049.043-.166 0-.332a.9.9 0 0 0-.088.46.377.377 0 0 1 .088-.129zM132.586 67.258a2.154 2.154 0 0 0-.105.585c.032-.14.075-.274.129-.404l-.024-.181zM136.806 66.269a.784.784 0 0 0 .012-.174c-.02.119-.032.228-.04.331.008-.063.018-.106.028-.157zM132.756 72.857c.032-.114.041-.233.033-.351a1.184 1.184 0 0 0-.074.444.443.443 0 0 1 .041-.093zM133.26 75.809c-.086.32-.146.646-.179.976l-1.896.293a4.032 4.032 0 0 1-.457-.785c-.025-.052-.043-.097-.06-.138-.111.056-.152.177.012.517a3.9 3.9 0 0 0 .457.787l1.894-.295s.105-.994.285-1.193c.09-.095.029-.14-.056-.162zM130.635 73.081s.058 1.086.219 1.142c.073-.184.119-.356.048-.381-.166-.058-.217-1.143-.217-1.143s-.365-1.278-.3-1.628c.064-.35-.297-1.171-.297-1.171l-.149-.995a2.723 2.723 0 0 1-.418-1.86l-.059-1.527s-.555-2.943-.675-4.436c-.078-.956-.116-2.264-.134-3.08 0-.148 0-.28-.008-.389h-.055s0 .303.013.763c.019.815.058 2.122.135 3.079.121 1.491.676 4.436.676 4.436l.058 1.528c-.09.656.063 1.322.427 1.874l.148.994s.363.829.298 1.172c-.065.343.29 1.622.29 1.622zM136.379 76.455a1.852 1.852 0 0 1-.332-.737c-.189.184.061.856.282 1.117.22.26 1.874.386 2.169-.146l-.011-.3c-.408.437-1.89.326-2.108.066zM138.704 74.585a2.999 2.999 0 0 0-.202.48l.008.22a3.2 3.2 0 0 1 .146-.32.956.956 0 0 0 .053-.394l-.005.014zM136.417 74.92c.055-.124.103-.251.141-.38 0 0-.265.074-.711-.415-.323-.354-.366-1.045-.332-1.491-.069.27-.152 1.394.292 1.88.283.31.496.39.61.407zM135.461 71.46c.039.308.063.62.068.931 0-.06.018-.11.026-.147.07-.27-.045-1.16-.045-1.16s-.01-.63-.142-.829c-.133-.198-.448-1.353-.448-1.353a.922.922 0 0 0-.243-.59c-.227-.196-.399-.995-.399-.995a1.025 1.025 0 0 1-.184-.663c.031-.396-.3-.808-.3-.808l-.6-1.68-.554-1.257-.255.738v.24l.207-.61.554 1.256.6 1.679s.331.413.3.809c-.017.235.048.469.182.662 0 0 .166.798.401.995.149.16.235.37.243.588 0 0 .314 1.16.446 1.356.133.195.143.838.143.838z"/>
        </g>
        <path d="m135.668 42.443-.096.578.016.257.014.188-.655.092-.079-.132a5.818 5.818 0 0 0-.541-.806c-.126-.097-.404-1.687-.141-1.602a.689.689 0 0 1 .38.316s1.299.1 1.102 1.11z" fill="#FFCDD3"/>
        <path opacity=".1" d="m135.602 43.466-.655.093-.079-.132a.579.579 0 0 1 .721-.148l.013.187z" fill="#000"/>
        <path d="m135.779 43.771-.859.236-.023-.13-.063-.345a.599.599 0 0 1 .829-.147l.05.176.066.21z" fill="#DCE6F2"/>
        <path d="m121.698 43.043-.905.532-.091-.166c-.095-.18-.237-.454-.277-.552-.061-.15-.454-.331-.454-.331-1.004-.889.119-1.727.119-1.727.564-1.251 1.308.366 1.308.366s.128.864.063.925c-.065.061-.056.298-.056.298.096.166.177.34.243.52l.05.135z" fill="#FFCDD3"/>
        <path opacity=".1" d="m121.698 43.043-.905.532-.091-.166c.126-.114.575-.507.728-.497.073.007.145.007.218 0 .034.085.05.131.05.131z" fill="#000"/>
        <path d="m121.802 43.328-1.017.544-.028-.224-.022-.152s.583-.54.761-.527c.091.01.182.006.272-.012l.019.187.015.184z" fill="#DCE6F2"/>
        <path d="M133.296 46.358s-4.51.686-3.675.378c.583-.214.802-.598.828-1.016a2.382 2.382 0 0 0-.208-1.042 4.516 4.516 0 0 0-.436-.802s3.39-2.038 2.764-.28a2.765 2.765 0 0 0-.166.828c-.01.282.032.562.121.829.151.432.418.815.772 1.105z" fill="#FFCDD3"/>
        <path opacity=".1" d="M132.576 43.596a2.765 2.765 0 0 0-.166.828c-.315.287-.674.282-1.134.3-.353.014-.74.115-1.029-.046a4.448 4.448 0 0 0-.435-.802s3.39-2.038 2.764-.28z" fill="#000"/>
        <path d="M131.149 44.846a1.874 1.874 0 1 0 0-3.748 1.874 1.874 0 0 0 0 3.748z" fill="#FFCDD3"/>
        <path opacity=".1" d="M133.296 46.358s-4.51.686-3.675.378c.583-.214.802-.599.828-1.016.217-.252.663-.446.952-.552.261-.1.548-.114.82-.045.106.028.209.071.303.128.151.432.418.817.772 1.107zM135.779 43.771l-.859.235-.023-.129a.766.766 0 0 1 .829-.317l.053.211zM121.802 43.329l-1.017.543-.028-.224c.331-.19.676-.357 1.03-.497l.015.178zM135.534 57.706c-1.745.345-4.228.802-4.629.696-.331-.088-1.382-.036-2.295.03-.01-.457-.013-.76-.013-.76l6.771-.972c.025.34.081.676.166 1.006z" fill="#000"/>
        <path d="M137.262 57.227s-5.74 1.215-6.369 1.05c-.628-.166-3.811.165-3.811.165-1.395 1.016-.852-.424-.852-.424a3.516 3.516 0 0 1 0-1.34c.101-.445.164-.897.189-1.351 0 0-.068-.943.096-1.17.164-.227.308-1.81.308-1.81s.116-1.077.093-1.313c-.023-.235.012-.9.012-.9l.166-1.108c-1.187-.113-4.861-2.18-4.861-2.18-.202-.732-1.607-2.412-1.607-2.412a1.822 1.822 0 0 0-.126-.42c-.105-.25 1.292-.808 1.292-.808s1.106 1.251 1.339 1.59c.234.337 1.014.952 1.014.952a.75.75 0 0 1 .348.033h.019c.257.09.5.217.721.378.354-.02.704.098.972.332 0 0 .643-.12.758-.014.114.106.663-.024.663-.024s.505-1.187.881-.862c.376.325 1.911.25 1.911.25.194-.28.684-.497.994-.608.262-.1.549-.115.82-.045.118.028.231.078.332.144l.966.877s.255-.356.22-.434c-.034-.078.31-.153.31-.153s.451-.166.622-.214c.17-.048.331.128.353.143a1.792 1.792 0 0 1-.106-.688.79.79 0 0 0-.211-.56c.497-1.375 1.787-.29 1.787-.29s.165.736.054 1.024c-.111.289.166.877.135 1.034-.032.158.079.423.091.723-.019.383-.09.762-.209 1.127-.085.257-.819.852-.819.852s-.011.9-.331 1.431c-.32.532-.038 2.304-.038 2.304s.369 1.374.779 1.8c.409.425 1.095 2.92 1.095 2.92z" fill="#656691"/>
        <path opacity=".1" d="M128.441 47.19s-.194-.511-.353-.553a3.644 3.644 0 0 1-.464-.187l.094-.197s.597.14.698.308c.101.17.025.63.025.63zM125.233 46.164c-.027.166-1.422.355-1.422.355l.681-.738h.018c.259.091.502.22.723.383z" fill="#000"/>
        <path d="M121.095 44.285a.126.126 0 0 0 .126-.126.126.126 0 1 0-.126.126zM121.265 44.53a.126.126 0 1 0 0-.251.126.126 0 0 0 0 .251zM121.433 44.757a.126.126 0 0 0 .126-.126.126.126 0 1 0-.126.126zM121.607 45.002a.126.126 0 0 0 .126-.126.126.126 0 1 0-.126.126zM136.447 44.395a.103.103 0 1 0 0-.206.103.103 0 0 0 0 .206zM136.472 44.627a.104.104 0 0 0 .104-.103.104.104 0 0 0-.104-.103.103.103 0 0 0 0 .206zM136.495 44.858a.103.103 0 1 0 0-.206.103.103 0 0 0 0 .206z" fill="#575988"/>
        <path opacity=".1" d="M128.613 51.459c-.016-.018 3.706 4.327 6.362 1.63 0 0-4.332.76-6.362-1.63zM126.663 53.866s2.126-.023 2.373.579l.023.636a.402.402 0 0 1-.394.015c-.219-.108-1.528-.711-1.969-.38l-.033-.85z" fill="#000"/>
        <path d="M126.703 53.865s2.033-.023 2.268.552l.024.607a.389.389 0 0 1-.378.013c-.209-.101-1.462-.676-1.883-.361l-.031-.81z" fill="#656691"/>
        <path opacity=".1" d="M127.646 49.21c.236.494.53.958.878 1.382.378.469.83.872 1.337 1.195 0 0-2.169-2.285-2.215-2.577zM126.855 46.769s.414 1.516 1.347 2l-1.347-2zM126.318 46.945c-.01-.028-.268 1.221 1.25 1.85 0 .002-.642-.191-1.25-1.85zM135.552 45.562c-.023 0 .756.456.969.663.007.008-.522-.713-.969-.663z" fill="#000"/>
        <path d="M130.707 44.69c.019.1.074.187.155.247a.395.395 0 0 0 .179.033c.572.014 1.169.015 1.687-.225a.637.637 0 0 0 .252-.18c.073-.13.119-.273.134-.42.085-.277.191-.549.315-.81.174-.458.219-.955.131-1.435a.964.964 0 0 0-.166-.413c-.165-.21-.439-.288-.646-.453-.207-.164-.346-.422-.585-.543a1.095 1.095 0 0 0-.709-.035 3.721 3.721 0 0 0-1.301.545.652.652 0 0 1-.434.166.609.609 0 0 1-.332-.235c-.101.26-.139.542-.107.82a.431.431 0 0 1 0 .124.402.402 0 0 1-.083.133c-.134.166-.212.43-.066.591.062.07.165.106.22.176.109.128.081.318.086.487a.25.25 0 0 0 .046.166.24.24 0 0 0 .234.046.651.651 0 0 1 .245-.033c.09.027.166.081.221.158.25.323.427.694.524 1.09z" fill="#2D293D"/>
        <g opacity=".1" fill="#000">
            <path opacity=".1" d="M133.036 44.419a.644.644 0 0 1-.25.18c-.52.241-1.115.238-1.689.224a.383.383 0 0 1-.177-.033.4.4 0 0 1-.156-.247 2.933 2.933 0 0 0-.52-1.09.398.398 0 0 0-.22-.156.656.656 0 0 0-.246.033.247.247 0 0 1-.233-.046.252.252 0 0 1-.048-.166c0-.166.024-.36-.087-.487-.061-.071-.155-.106-.22-.177a.37.37 0 0 1-.05-.375.435.435 0 0 0 0 .497c.065.07.166.105.221.176.111.127.083.318.086.487a.257.257 0 0 0 .048.166.24.24 0 0 0 .234.046.648.648 0 0 1 .245-.033.413.413 0 0 1 .22.157c.247.324.425.695.521 1.09.018.099.074.188.155.248a.388.388 0 0 0 .178.033c.573.013 1.16.015 1.688-.225a.626.626 0 0 0 .251-.181.524.524 0 0 0 .076-.154l-.027.033zM129.287 41.837a.243.243 0 0 0 .053-.098.317.317 0 0 0 0-.122 1.76 1.76 0 0 1 .061-.682l-.01-.011c-.102.26-.139.542-.109.82a.413.413 0 0 1 .005.093z"/>
        </g>
        <path opacity=".1" d="M130.416 45.84s2.353.22 2.549-.142l-2.549.141zM134.929 44.696s1.301-.05 1.606.427l-1.606-.427z" fill="#000"/>
        <path d="m137.351 102.558-.02 12.713 12.263.02.02-12.714-12.263-.019z" fill="#fff"/>
        <path d="m137.351 102.558-.02 12.713 12.263.02.02-12.714-12.263-.019z" fill="#fff"/>
        <path opacity=".5" d="M143.644 113.464V111.2l1.042 1.046.262-.27-1.491-1.492-1.492 1.492.261.26 1.045-1.032v2.265l.373-.005z" fill="#6C63FF"/>
        <path d="M141.427 105.794h2.033v-2.031h-.146a1.89 1.89 0 0 0-1.892 1.889v.002c0 .044.001.096.005.14z" fill="#DFE3EF"/>
        <path d="M142.129 107.13a1.893 1.893 0 0 0 2.953-2.367 1.887 1.887 0 0 0-1.332-.702v2.026h-2.032c.028.38.173.744.411 1.043z" fill="#DFE3EF"/>
        <path d="M35.43 17.12c-1.069 2.207-2.817 4.721-4.794 3.76-1.977-.961-3.453-5.031-2.384-7.238 1.068-2.208 3.543-3.22 5.531-2.26 1.989.962 2.718 3.529 1.647 5.738z" fill="#6C63FF"/>
        <path d="M31.2 22.283s-.387-.063-.24-.383a.5.5 0 0 1 .047-.081.886.886 0 0 0 .126-.297 1.529 1.529 0 0 0 .003-.626l1.053-.07s-.41.35-.361.53c.008.027.024.05.048.065a.256.256 0 0 0 .07.03c.026.007.052.013.079.023.276.096.165.237.165.237-.041.448-.99.572-.99.572z" fill="#6C63FF"/>
        <path d="m31.876 21.415-.743.101a.843.843 0 0 0 .022-.112c.187 0 .484-.035.673-.053.008.026.024.05.048.064z" fill="#444053"/>
        <path d="M31.2 22.282s-.387-.063-.24-.383c.15.037.306.044.456.019.252-.065.471-.224.609-.444.276.096.165.237.165.237-.041.447-.99.571-.99.571z" fill="#6C63FF"/>
        <path opacity=".1" d="M31.2 22.282s-.387-.063-.24-.383c.15.037.306.044.456.019.252-.065.471-.224.609-.444.276.096.165.237.165.237-.041.447-.99.571-.99.571z" fill="#000"/>
        <path opacity=".1" d="M31.761 11.61s-1.176-.14-1.51.642a.959.959 0 0 1 .423.025c.087.04.18.058.275.053a1.58 1.58 0 0 1 .812-.72z" fill="#fff"/>
        <path d="M29.425 27.625c-.194.214-.418.4-.663.55-.068.044-.14.087-.212.127-1.875 1.03-5.187 1.049-6.74-.32-1.45-1.278-1.95-3.194-1.387-4.76a3.634 3.634 0 0 1 .693-1.17c1.178-1.335 3.148-1.607 4.837-.802.15.071.295.15.436.237a4.836 4.836 0 0 1 .7.512c.085.076.165.154.26.234l.02.02c.533.48 1.025 1.002 1.47 1.564.137.174.266.35.38.529.081.122.166.247.229.371.308.499.477 1.07.487 1.657 0 .053 0 .106-.011.166v.025a1.82 1.82 0 0 1-.183.608 2.092 2.092 0 0 1-.316.452z" fill="#6C63FF"/>
        <path opacity=".1" d="M29.425 27.625c-.194.214-.418.4-.663.55-.068.044-.14.087-.212.127-1.875 1.03-5.187 1.049-6.74-.32-1.45-1.278-1.95-3.194-1.387-4.76a3.634 3.634 0 0 1 .693-1.17c1.178-1.335 3.148-1.607 4.837-.802.15.071.295.15.436.237a4.836 4.836 0 0 1 .7.512c.085.076.165.154.26.234l.02.02c.533.48 1.025 1.002 1.47 1.564.137.174.266.35.38.529.081.122.166.247.229.371.308.499.477 1.07.487 1.657 0 .053 0 .106-.011.166v.025a1.82 1.82 0 0 1-.183.608 2.092 2.092 0 0 1-.316.452z" fill="#000"/>
        <path d="M30.49 27.585a.424.424 0 0 1-.066-.066.897.897 0 0 0-.252-.2 1.368 1.368 0 0 0-.436-.15 1.378 1.378 0 0 0-.165-.021l.149-.713v-.01l.065-.31c.043.091.092.178.149.26.076.116.165.23.265.23a.12.12 0 0 0 .073-.03.185.185 0 0 0 .048-.059c.016-.026.03-.05.045-.071.165-.239.27-.088.27-.088.189.068.266.292.295.519 0 .033.003.066.01.1.01.16.003.323-.017.482 0 0-.164.354-.432.127z" fill="#6C63FF"/>
        <path d="M30.172 27.317a.766.766 0 0 0-.104-.052 11.25 11.25 0 0 0 .12-.606c.01-.014 0-.038.01-.055a.12.12 0 0 0 .074-.03l-.015.113v.045l-.085.585z" fill="#444053"/>
        <path d="M30.49 27.585a1.19 1.19 0 0 0 .14-.435.951.951 0 0 0-.032-.274c-.008-.028-.015-.053-.025-.08a.819.819 0 0 0-.209-.35c.166-.24.27-.088.27-.088.19.067.267.291.296.518 0 .033.003.066.01.1.01.16.003.323-.017.482 0 0-.164.355-.433.128z" fill="#6C63FF"/>
        <path opacity=".1" d="M30.49 27.585a1.19 1.19 0 0 0 .14-.435.951.951 0 0 0-.032-.274c-.008-.028-.015-.053-.025-.08a.819.819 0 0 0-.209-.35c.166-.24.27-.088.27-.088.19.067.267.291.296.518 0 .033.003.066.01.1.01.16.003.323-.017.482 0 0-.164.355-.433.128z" fill="#000"/>
        <path opacity=".1" d="M20.796 24.058s-.45 1.095.214 1.627a.933.933 0 0 1 .137-.401.581.581 0 0 0 .125-.252 1.576 1.576 0 0 1-.476-.974z" fill="#fff"/>
        <path d="M37.664 20.77c-.895.574-1.927 1.131-2.908 1.426-.754.23-1.477.302-2.081.11a1.883 1.883 0 0 1-.706-.407 2.076 2.076 0 0 1-.357-.424c-.7-1.095-.687-3.02-.132-4.69.386-1.16 1.03-2.187 1.877-2.729 2.065-1.326 4.703-.896 5.893.958 1.19 1.854.48 4.431-1.586 5.755z" fill="#6C63FF"/>
        <path opacity=".1" d="M37.664 20.77c-.895.574-1.927 1.131-2.908 1.426-.754.23-1.477.302-2.081.11a1.883 1.883 0 0 1-.706-.407 2.076 2.076 0 0 1-.357-.424c-.7-1.095-.687-3.02-.132-4.69.386-1.16 1.03-2.187 1.877-2.729 2.065-1.326 4.703-.896 5.893.958 1.19 1.854.48 4.431-1.586 5.755z" fill="#000"/>
        <path d="M32.5 22.985c-.265.37-1.136-.024-1.136-.024s-.297-.257 0-.451a.807.807 0 0 1 .083-.045.988.988 0 0 0 .263-.187 1.537 1.537 0 0 0 .328-.534l.935.497c-.1.017-.197.04-.293.072-.135.043-.267.107-.292.192a.11.11 0 0 0 0 .08.207.207 0 0 0 .045.06c.02.02.038.04.054.062.188.22.014.278.014.278z" fill="#6C63FF"/>
        <path d="m32.39 22.577-.685-.295a1.25 1.25 0 0 0 .076-.086c.166.091.431.224.602.307a.105.105 0 0 0 .006.074z" fill="#444053"/>
        <path d="M32.5 22.985c-.265.37-1.136-.024-1.136-.024s-.297-.257 0-.451c.11.107.238.194.38.253.25.076.518.055.75-.063.18.227.007.285.007.285z" fill="#6C63FF"/>
        <path opacity=".1" d="M32.5 22.985c-.265.37-1.136-.024-1.136-.024s-.297-.257 0-.451c.11.107.238.194.38.253.25.076.518.055.75-.063.18.227.007.285.007.285z" fill="#000"/>
        <path opacity=".1" d="M37.41 14.162s-.929-.735-1.622-.242c.133.054.25.136.347.242a.6.6 0 0 0 .209.19 1.57 1.57 0 0 1 1.067-.19z" fill="#fff"/>
        <g opacity=".1" fill="#000">
            <path opacity=".1" d="M18.998 20.022a.947.947 0 0 0-.136.4c-.663-.529-.214-1.626-.214-1.626.038.371.206.718.474.976a.574.574 0 0 1-.124.25zM27.421 21.884l.216-1.03c.043.089.092.175.149.258a1.856 1.856 0 0 1-.2.792 1.357 1.357 0 0 0-.165-.02zM27.368 22.253c-.028.036-.06.074-.09.11a3.06 3.06 0 0 1-.664.551 2.613 2.613 0 0 1-.21.126c-1.608.885-4.272 1.024-5.98.182a3.67 3.67 0 0 1 .694-1.17c1.178-1.335 3.148-1.607 4.837-.802a4.83 4.83 0 0 1 1.132.75c.093.082.189.165.281.253z"/>
            <path opacity=".1" d="M28.343 22.322a.42.42 0 0 1-.067-.066.92.92 0 0 0-.252-.201 1.444 1.444 0 0 0-.602-.17l.216-1.032c.043.09.093.176.15.259.076.116.173.229.265.23a.12.12 0 0 0 .072-.03.187.187 0 0 0 .049-.06l.043-.069c.165-.238.271-.09.271-.09.426.155.289 1.101.289 1.101s-.168.357-.434.128z"/>
            <path opacity=".1" d="M28.024 22.056a1.217 1.217 0 0 0-.104-.052c.043-.182.096-.475.13-.663a.12.12 0 0 0 .074-.03l-.1.745zM28.343 22.323c.073-.134.12-.282.139-.434a1.016 1.016 0 0 0-.267-.705c.166-.238.272-.09.272-.09.426.155.288 1.101.288 1.101s-.165.357-.432.128z"/>
            <path opacity=".1" d="M28.343 22.323c.073-.134.12-.282.139-.434a1.016 1.016 0 0 0-.267-.705c.166-.238.272-.09.272-.09.426.155.288 1.101.288 1.101s-.165.357-.432.128zM18.87 20.422c-.663-.529-.214-1.626-.214-1.626.038.371.206.718.474.976a.593.593 0 0 1-.124.25.947.947 0 0 0-.136.4z"/>
        </g>
        <path d="m27.413 22.16-.066.072a2.958 2.958 0 0 1-.597.477l-.063.04c-.048.03-.098.058-.147.086-1.623.892-4.32 1.026-6.024.166a3.35 3.35 0 0 1-.716-.477c-1.841-1.623-2.154-4.277-.696-5.931 1.18-1.336 3.149-1.608 4.839-.8.053.024.104.05.157.077.35.181.678.405.975.663.64.552 1.224 1.162 1.751 1.823.108.138.21.277.305.416.027.037.05.076.075.113.046.068.09.137.13.207l.097.166c.31.498.479 1.07.489 1.657a1.854 1.854 0 0 1-.2.792 2.068 2.068 0 0 1-.309.452z" fill="#6C63FF"/>
        <path d="M28.48 22.117a.416.416 0 0 1-.066-.067.922.922 0 0 0-.252-.2 1.444 1.444 0 0 0-.602-.17l.216-1.032c.043.09.093.176.15.259.075.116.173.229.264.23a.12.12 0 0 0 .073-.03.186.186 0 0 0 .048-.06c.015-.026.03-.049.043-.069.166-.24.272-.09.272-.09.426.155.288 1.101.288 1.101s-.169.358-.434.128z" fill="#6C63FF"/>
        <path d="M28.16 21.852a.755.755 0 0 0-.104-.052c.043-.182.096-.476.13-.663a.119.119 0 0 0 .074-.03l-.1.745z" fill="#444053"/>
        <path d="M28.48 22.116c.073-.134.121-.281.14-.434a1.015 1.015 0 0 0-.268-.704c.166-.24.272-.09.272-.09.426.155.289 1.1.289 1.1s-.168.359-.433.128z" fill="#6C63FF"/>
        <path opacity=".1" d="M28.48 22.116c.073-.134.121-.281.14-.434a1.015 1.015 0 0 0-.268-.704c.166-.24.272-.09.272-.09.426.155.289 1.1.289 1.1s-.168.359-.433.128z" fill="#000"/>
        <path opacity=".1" d="M18.784 18.592s-.452 1.095.214 1.627a.961.961 0 0 1 .136-.4.602.602 0 0 0 .126-.253 1.577 1.577 0 0 1-.476-.974z" fill="#fff"/>
        <g opacity=".1" fill="#000">
            <path opacity=".1" d="M25.564 11.2a.573.573 0 0 1-.279.039.943.943 0 0 0-.406.112c.061-.848 1.223-1.093 1.223-1.093-.285.24-.476.573-.538.941zM27.206 18.88c.081.123.157.247.227.373a3.897 3.897 0 0 1-.46-.199c-1.19-.601-2.37-1.887-3.03-3.268.41.196.79.448 1.132.748a13.6 13.6 0 0 1 1.751 1.822c.136.17.264.345.38.524zM29.343 19.109a1.9 1.9 0 0 1-.765.285 1.272 1.272 0 0 0-.078-.15l.974-.405a2.25 2.25 0 0 0-.13.27z"/>
            <path opacity=".1" d="M29.009 20.535s-.386.065-.35-.283a.575.575 0 0 1 .018-.093.995.995 0 0 0 .007-.435 1.379 1.379 0 0 0-.106-.332 1.281 1.281 0 0 0-.078-.15l.974-.405c-.05.086-.094.177-.13.27-.053.131-.09.274-.04.35a.12.12 0 0 0 .066.043c.025.005.05.005.075 0h.082c.294 0 .227.166.227.166.115.45-.745.87-.745.87z"/>
            <path opacity=".1" d="m29.37 19.501-.663.332a.9.9 0 0 0-.016-.115c.175-.068.447-.189.62-.265.014.022.034.04.06.048zM29.009 20.536s-.386.064-.35-.284c.153-.016.302-.06.438-.13.217-.143.372-.364.43-.617.294 0 .228.166.228.166.114.445-.746.865-.746.865z"/>
            <path opacity=".1" d="M29.009 20.536s-.386.064-.35-.284c.153-.016.302-.06.438-.13.217-.143.372-.364.43-.617.294 0 .228.166.228.166.114.445-.746.865-.746.865zM25.564 11.2a.573.573 0 0 1-.279.039.943.943 0 0 0-.406.112c.061-.848 1.223-1.093 1.223-1.093-.285.24-.476.573-.538.941z"/>
        </g>
        <path d="M29.412 19.008a1.876 1.876 0 0 1-1.32.291 2.858 2.858 0 0 1-.755-.205c-.1-.04-.197-.085-.295-.134l-.02-.01c-1.132-.579-2.252-1.775-2.922-3.08-.455-.888-.702-1.822-.6-2.65.302-2.435 2.32-4.19 4.505-3.92 2.184.27 3.715 2.462 3.413 4.897a13.705 13.705 0 0 1-.513 2.474c-.022.071-.045.14-.07.21-.321.927-.779 1.712-1.424 2.127z" fill="#6C63FF"/>
        <path opacity=".1" d="M29.412 19.008a1.876 1.876 0 0 1-1.32.291 2.858 2.858 0 0 1-.755-.205c-.1-.04-.197-.085-.295-.134l-.02-.01c-1.132-.579-2.252-1.775-2.922-3.08-.455-.888-.702-1.822-.6-2.65.302-2.435 2.32-4.19 4.505-3.92 2.184.27 3.715 2.462 3.413 4.897a13.705 13.705 0 0 1-.513 2.474c-.022.071-.045.14-.07.21-.321.927-.779 1.712-1.424 2.127z" fill="#000"/>
        <path d="M29.077 20.435s-.386.064-.35-.285a.57.57 0 0 1 .018-.093.984.984 0 0 0 .007-.436 1.384 1.384 0 0 0-.106-.331 1.28 1.28 0 0 0-.078-.15l.974-.406c-.05.088-.092.18-.13.272-.053.13-.09.274-.04.348.016.022.04.038.066.045.025.005.05.005.075 0h.083c.293 0 .227.166.227.166.114.45-.746.87-.746.87z" fill="#6C63FF"/>
        <path d="m29.438 19.4-.663.332a.888.888 0 0 0-.016-.116c.175-.068.447-.19.62-.265.014.023.034.04.059.05z" fill="#444053"/>
        <path d="M29.077 20.435s-.386.064-.35-.285c.152-.015.302-.058.438-.131.218-.143.372-.363.43-.617.294 0 .227.166.227.166.115.447-.745.867-.745.867z" fill="#6C63FF"/>
        <path opacity=".1" d="M29.077 20.435s-.386.064-.35-.285c.152-.015.302-.058.438-.131.218-.143.372-.363.43-.617.294 0 .227.166.227.166.115.447-.745.867-.745.867z" fill="#000"/>
        <path opacity=".1" d="M26.168 10.155s-1.16.247-1.221 1.096a.928.928 0 0 1 .408-.113.606.606 0 0 0 .276-.04c.063-.368.254-.7.537-.943z" fill="#fff"/>
        <path d="M41.61 28.945c-1.44 1.667-4.113 1.719-5.966.115-.901-.78-1.833-1.73-2.385-2.693a3.247 3.247 0 0 1-.497-1.657c.004-.276.068-.546.188-.794.08-.168.185-.322.306-.463a3.787 3.787 0 0 1 1.475-.972c1.909-.758 4.73-.676 6.131.54 1.85 1.606 2.188 4.257.748 5.924z" fill="#6C63FF"/>
        <path d="M32.901 24.972a1.926 1.926 0 0 0-.15-.26c-.08-.116-.178-.227-.267-.227a.104.104 0 0 0-.075.03.329.329 0 0 0-.048.06.625.625 0 0 1-.043.07c-.165.242-.27.093-.27.093-.428-.15-.298-1.098-.298-1.098s.166-.358.43-.133a.43.43 0 0 1 .069.066.92.92 0 0 0 .358.249 1.522 1.522 0 0 0 .497.114l-.203 1.036z" fill="#6C63FF"/>
        <path d="M32.484 24.485a.104.104 0 0 0-.075.03l.093-.742c.033.018.068.034.105.05-.042.183-.091.476-.123.662z" fill="#444053"/>
        <path d="M32.318 24.646c-.165.241-.27.092-.27.092-.428-.15-.298-1.098-.298-1.098s.166-.358.43-.133a1.159 1.159 0 0 0-.132.436c-.003.26.093.512.27.703z" fill="#6C63FF"/>
        <path opacity=".1" d="M32.318 24.646c-.165.241-.27.092-.27.092-.428-.15-.298-1.098-.298-1.098s.166-.358.43-.133a1.159 1.159 0 0 0-.132.436c-.003.26.093.512.27.703z" fill="#000"/>
        <path opacity=".1" d="M41.904 26.94s.44-1.103-.23-1.627a.943.943 0 0 1-.133.403.596.596 0 0 0-.123.252c.272.255.444.6.486.971z" fill="#fff"/>
        <path opacity=".1" d="M33.255 26.367a3.247 3.247 0 0 1-.498-1.657c-.08-.116-.177-.227-.267-.227a.104.104 0 0 0-.074.03.333.333 0 0 0-.048.06.625.625 0 0 1-.043.071c-.166.242-.27.093-.27.093-.428-.15-.299-1.099-.299-1.099s.166-.358.431-.132a.43.43 0 0 1 .068.066.921.921 0 0 0 .358.248c.106.045.217.077.332.097.08-.168.185-.322.306-.463a3.789 3.789 0 0 1 1.475-.973c-.232 1.47-.664 3.016-1.471 3.886zM30.93 26.875a3.414 3.414 0 0 1-.673-.187l-.068-.029a4.79 4.79 0 0 1-.267-.126c-.088-.044-.134-.07-.202-.109-1.261-.727-2.486-2.19-3.033-3.674a4.865 4.865 0 0 1-.297-1.263 3.407 3.407 0 0 1 .01-.688c.08-.654.29-1.285.622-1.855.036-.06.071-.118.11-.176.828-1.278 2.221-2.05 3.703-1.896-.322.93-.779 1.722-1.424 2.136-.053.13-.089.274-.04.348.017.022.04.038.067.045.025.005.05.005.075 0h.082c.294 0 .228.166.228.166.114.439-.746.858-.746.858s-.386.065-.35-.285a.57.57 0 0 1 .018-.093.985.985 0 0 0 .007-.436 1.38 1.38 0 0 0-.106-.331c-.184.025-.37.025-.554 0a2.86 2.86 0 0 1-.755-.206c.035.055.064.111.096.166.31.499.479 1.07.489 1.657.076.116.174.229.265.23a.12.12 0 0 0 .073-.03.187.187 0 0 0 .048-.059l.043-.07c.166-.24.272-.089.272-.089.426.154.288 1.1.288 1.1s-.166.357-.433.128a.42.42 0 0 1-.066-.066.92.92 0 0 0-.252-.2 1.442 1.442 0 0 0-.436-.15c-.082.164-.187.318-.31.457l-.066.073.022.02a13 13 0 0 1 1.47 1.565c.136.174.265.35.38.528.08.123.165.247.228.372.308.498.477 1.07.487 1.657.076.116.166.228.265.23a.12.12 0 0 0 .073-.03.187.187 0 0 0 .048-.06c.017-.026.03-.05.045-.07.166-.24.27-.089.27-.089.187.082.265.304.294.53z" fill="#000"/>
        <g opacity=".1" fill="#000">
            <path opacity=".1" d="M29.042 18.585a.59.59 0 0 1-.279.038.953.953 0 0 0-.407.113c.063-.847 1.223-1.092 1.223-1.092-.285.24-.474.573-.537.94zM34.827 21.674c-.02.166-.045.346-.071.522-.754.23-1.477.301-2.082.11-.134.042-.267.107-.291.191a.11.11 0 0 0 0 .08.21.21 0 0 0 .044.061c.02.02.038.04.055.062.186.227.012.285.012.285-.266.37-1.137-.025-1.137-.025s-.297-.257 0-.451a.806.806 0 0 1 .083-.045.988.988 0 0 0 .263-.187 1.537 1.537 0 0 0 .264-.378 2.085 2.085 0 0 1-.357-.424c-.7-1.095-.687-3.021-.132-4.69 2.152.307 3.647 2.48 3.349 4.889zM32.82 26.493c-.23.15-.492.247-.764.285a1.272 1.272 0 0 0-.078-.149l.975-.404c-.05.086-.095.175-.133.268z"/>
            <path opacity=".1" d="M32.487 27.916s-.388.065-.35-.285a.572.572 0 0 1 .017-.093.903.903 0 0 0 .023-.32.666.666 0 0 0-.015-.115 1.458 1.458 0 0 0-.184-.48l.975-.405c-.05.086-.095.175-.133.268-.051.131-.088.275-.038.35a.105.105 0 0 0 .065.045.196.196 0 0 0 .076 0h.083c.293 0 .227.165.227.165.112.456-.746.87-.746.87z"/>
            <path opacity=".1" d="m32.847 26.887-.663.331a.449.449 0 0 0-.015-.114c.174-.068.447-.189.62-.265.013.023.033.04.058.048zM32.485 27.916s-.386.065-.35-.285c.153-.013.302-.058.438-.13a1.01 1.01 0 0 0 .433-.617c.293 0 .227.165.227.165.113.453-.748.867-.748.867z"/>
            <path opacity=".1" d="M32.485 27.916s-.386.065-.35-.285c.153-.013.302-.058.438-.13a1.01 1.01 0 0 0 .433-.617c.293 0 .227.165.227.165.113.453-.748.867-.748.867zM29.042 18.585a.59.59 0 0 1-.279.038.953.953 0 0 0-.407.113c.063-.847 1.223-1.092 1.223-1.092-.285.24-.474.573-.537.94z"/>
        </g>
        <path d="M34.59 21.812c-.3 2.434-1.138 5.376-3.326 5.11-2.187-.265-4.892-3.645-4.592-6.085.3-2.439 2.32-4.189 4.504-3.919 2.185.27 3.716 2.458 3.414 4.894z" fill="#6C63FF"/>
        <path d="M32.249 28.057s-.388.065-.35-.285a.813.813 0 0 1 .017-.092.943.943 0 0 0 .024-.32c0-.04-.01-.078-.016-.115a1.528 1.528 0 0 0-.184-.48l.974-.405s-.275.463-.165.619a.11.11 0 0 0 .066.044c.025.005.05.005.075 0h.082c.294 0 .227.166.227.166.11.449-.75.868-.75.868z" fill="#6C63FF"/>
        <path d="m32.61 27.023-.663.332c0-.04-.01-.078-.017-.115.176-.07.448-.188.62-.266a.11.11 0 0 0 .06.05z" fill="#444053"/>
        <path d="M32.248 28.058s-.387.064-.35-.285c.153-.015.302-.058.438-.13.218-.142.373-.364.431-.618.294 0 .227.166.227.166.115.448-.745.867-.745.867z" fill="#6C63FF"/>
        <path opacity=".1" d="M32.248 28.058s-.387.064-.35-.285c.153-.015.302-.058.438-.13.218-.142.373-.364.431-.618.294 0 .227.166.227.166.115.448-.745.867-.745.867z" fill="#000"/>
        <path opacity=".1" d="M29.34 17.78s-1.16.245-1.223 1.093a.96.96 0 0 1 .41-.113.565.565 0 0 0 .276-.04c.062-.367.252-.7.537-.94z" fill="#fff"/>
        <path d="M32.189 27.242a.708.708 0 0 0-.628.87c.146.487.746.643 1.137.97.39.326.578.848.626 1.357a3.324 3.324 0 0 1-.956 2.63c-.351.348-.776.613-1.124.964-.397.44-.724.938-.967 1.478a3.417 3.417 0 0 0-.43 1.242c-.058.699.294 1.365.713 1.927.42.562.921 1.066 1.246 1.687a3.54 3.54 0 0 1 .202 2.777.327.327 0 0 1-.117.188.129.129 0 0 1-.183-.03l-.008-.012" stroke="#444053" stroke-miterlimit="10"/>
        <path d="M30.15 27.12a.33.33 0 0 0-.013.423c.1.119.249.189.405.187.187 0 .396-.058.55.05a.48.48 0 0 1 .166.36c-.002.137.013.274.041.407.038.11.1.207.179.29.09.104.204.187.331.242.275.108.597.011.879.101.374.118.575.519.688.895.154.447.182.926.08 1.389-.097.295-.223.58-.376.85a1.927 1.927 0 0 0-.245.89.813.813 0 0 0 .468.744" stroke="#444053" stroke-miterlimit="10"/>
        <path d="m44.555 43.698-.312.188.421 1.524s.14.08.34.212c.371.244.951.663 1.258 1.115.475.687 2.591 2.612 2.32 1.81-.272-.802-.391-.651-.391-.651s.464-1.212-.68-1.757c-.868-.414-2.128-1.607-2.683-2.154-.164-.177-.273-.287-.273-.287z" fill="#EFB7B9"/>
        <path d="M50.864 47.776c.187.18.346.386.475.611a.91.91 0 0 1 .067.751c-.057.134-.153.249-.21.381-.278.64.442 1.34.306 2.024-.083.422-.464.707-.792.994-.329.287-.652.663-.564 1.09.063.196.153.381.265.552a.599.599 0 0 1 .033.585c-.192.297-.755.247-.828.592-.073.308.351.624.182.89a.384.384 0 0 1-.418.116 3.214 3.214 0 0 0-.445-.121.549.549 0 0 0-.519.813c.088.158.257.292.237.47a.37.37 0 0 1-.204.261.77.77 0 0 1-1.022-.305c-.14-.27-.1-.595-.081-.898.018-.303 0-.645-.218-.858a1.417 1.417 0 0 0-.367-.224 3.868 3.868 0 0 1-1.018-.734c-.262-.264-.497-.598-.474-.968.025-.42.375-.78.346-1.198-.028-.418-.449-.728-.805-.983-.356-.255-.73-.648-.613-1.07.126-.456.716-.59 1.007-.961.106-.146.181-.312.22-.488.077-.308.097-.628.165-.936.058-.316.227-.6.479-.8.315-.218.732-.203 1.11-.146.378.056.767.147 1.139.058.276-.068.527-.232.807-.282.348-.05.697.078.933.34.132.144.132.182.318.202a.66.66 0 0 1 .489.242z" fill="#925978"/>
        <g opacity=".1" fill="#000">
            <path opacity=".1" d="M50.355 54.844c-.136.102-.288.18-.45.228.135-.102.288-.18.45-.228zM48.9 56.254a.52.52 0 0 0-.189.023.562.562 0 0 1 .433-.166c.15.029.3.07.446.121.06.014.122.019.183.012a.058.058 0 0 1-.008.018.39.39 0 0 1-.418.116 2.981 2.981 0 0 0-.447-.124zM45.806 48.025c-.074.31-.094.63-.166.938a1.296 1.296 0 0 1-.218.487c-.292.371-.884.505-1.008.961-.116.423.255.814.612 1.069.356.255.775.545.805.983.03.437-.32.78-.345 1.198-.023.37.212.706.474.97.297.297.642.546 1.018.733.134.055.257.13.366.224.219.212.239.554.219.857-.02.303-.058.628.081.9a.777.777 0 0 0 .898.358.499.499 0 0 1-.12.092.77.77 0 0 1-1.022-.305c-.139-.271-.1-.594-.08-.9.017-.304 0-.644-.22-.856a1.32 1.32 0 0 0-.366-.224 3.904 3.904 0 0 1-1.017-.734c-.262-.263-.498-.6-.474-.97.025-.417.374-.778.346-1.197-.028-.42-.449-.726-.805-.983-.357-.257-.73-.646-.614-1.07.126-.455.716-.59 1.008-.96.106-.146.18-.312.219-.487.078-.309.098-.629.166-.938.06-.317.23-.6.483-.8a.916.916 0 0 1 .178-.094 1.39 1.39 0 0 0-.418.748z"/>
        </g>
        <path d="m38.183 52.075-.34-.473s-.62.88.279 1.432c.898.552.06-.96.06-.96z" fill="#4C4981"/>
        <path opacity=".1" d="m38.183 52.075-.34-.473s-.62.88.279 1.432c.898.552.06-.96.06-.96z" fill="#000"/>
        <path d="M35.24 66.81s-.06.885-.199 1.747c-.1.617-.24 1.223-.43 1.482-.451.624-.352 2.651-.352 2.651l-.563 2.302c.041.467-.28 1.079-.433 1.337-.045.078-.076.125-.076.125l.393.663.633.157s1.085-.361.76-1.076a1.083 1.083 0 0 1-.073-.452c0-.923.612-2.476.612-2.476s1.491-2.843 1.335-3.427a1.073 1.073 0 0 1-.031-.192c-.046-.646.331-1.763.331-1.763L35.24 66.81zM25.48 62.56c-1.024.663-2.772 2.421-3.095 2.882-.401.572-1.417 1.221-1.417 1.221l-.716.43a.935.935 0 0 0-.247.236 1.59 1.59 0 0 0-.11.166l1.03 1.202s.283-.22.597-.498c.313-.278.694-.662.79-.91.186-.483 1.337-1.045 1.337-1.045s2.136-1.264 2.382-1.475c.237-.199.494-.373.767-.515.146-.08.315-.166.51-.25.552-.276 1.081-.592 1.583-.95l-.994-1.492-1.823.745c-.216.033-.42.12-.593.253z" fill="#EFB7B9"/>
        <path opacity=".1" d="M33.263 76.331c-.045.078-.076.125-.076.125l.393.662.633.158s1.085-.361.76-1.076a1.083 1.083 0 0 1-.073-.452c-.331.078-.445.542-.445.542s-.044.192-.55.371c-.344.114-.544-.152-.642-.33z" fill="#000"/>
        <path d="M33.167 76.283c-.15.12-.207.663-.229 1.036a7.264 7.264 0 0 0-.015.352c0 .084.563.275.915.18.351-.094 1.76.332 1.76.332.485.01.968-.07 1.423-.234.464-.166.416-.37.222-.54a1.612 1.612 0 0 0-.508-.274 1.216 1.216 0 0 1-.514-.417 2.897 2.897 0 0 0-.663-.633c-.229-.153-.486-.287-.65-.259-.358.058-.472.547-.472.547s-.043.19-.548.371c-.506.18-.708-.472-.721-.46z" fill="#444053"/>
        <path opacity=".1" d="M32.938 77.318a7.258 7.258 0 0 0-.015.352c0 .084.563.275.915.18.351-.094 1.76.332 1.76.332.485.01.968-.07 1.423-.234.464-.166.416-.37.222-.54-.37.12-1.102.331-1.54.303-.525-.023-2.288-.313-2.765-.393zM20.037 67.331h-.032c-.04.053-.078.108-.11.166l1.03 1.201s.283-.218.597-.497c-.085-.616-1.387-.984-1.387-.984l-.098.114z" fill="#000"/>
        <path d="M18.965 67.689s.097 1.334.387 1.823c.22.374.41.311.776.12.116-.06.25-.133.41-.211.662-.318.674-.645.674-.645.964-.943-1.139-1.538-1.139-1.538l-.098.121a1.493 1.493 0 0 0-.687.146c-.113.052-.22.113-.323.184z" fill="#444053"/>
        <path opacity=".1" d="M18.965 67.69s.097 1.333.387 1.822c.22.375.41.312.776.121a1.324 1.324 0 0 1-.681-.828 4.12 4.12 0 0 1-.166-1.303 2.094 2.094 0 0 0-.316.187z" fill="#000"/>
        <path d="m44.555 49.73-1.787 1.311-.368.27.259.883.267.912.749.79s1.007-.126 1.582-.634c.21-.171.347-.415.385-.683a.9.9 0 0 1 .49-.706c.514-.28 1.245-.196 1.245-.196s-.187-2.286-.559-1.94c-.24.225-.856.166-1.26.086-.22-.04-.377-.083-.377-.083l-.626-.01z" fill="#EFB7B9"/>
        <path opacity=".1" d="M47.823 52.328a1.886 1.886 0 1 0 0-3.771 1.886 1.886 0 0 0 0 3.771z" fill="#000"/>
        <path d="M47.883 52.292a1.886 1.886 0 1 0 0-3.771 1.886 1.886 0 0 0 0 3.771z" fill="#EFB7B9"/>
        <path d="M38.032 52.715c-.346.249-.784.883-.784.883l.46 2.673 2.548.942h.01c.146-.126 1.989-1.712 2.721-1.464.76.26 2.217-.598 2.217-.598s.617-1.294.78-1.573c.165-.278-.133-1.48-.133-1.48-.052.09-.101.166-.151.248a2.32 2.32 0 0 1-.464.528.967.967 0 0 1-.645.254.706.706 0 0 0-.187.01c-.907.165-1.16-.74-1.233-1.117-.017-.096-.021-.166-.021-.166l-.385-.812-.242-.509s-3.966 2.007-4.309 2.092a.552.552 0 0 0-.182.089z" fill="#444053"/>
        <path d="M45.698 52.337a2.753 2.753 0 0 1-.166.227l.498.828a2.745 2.745 0 0 0-.037-.57l-.295-.485z" fill="#925978"/>
        <path d="M45.408 52.705a1.86 1.86 0 0 1-.177.166l-.022.016.604 1.006c.056-.112.106-.209.144-.273l-.549-.915zM44.823 53.09l.758 1.266c.046-.096.094-.19.139-.281l-.655-1.09a.957.957 0 0 1-.242.105zM44.341 53.14l1.01 1.688.139-.284-.854-1.422h-.048a.787.787 0 0 0-.187.012l-.06.007zM45.2 55.144l-.123.075-1.294-2.154c.112.06.237.092.364.096l1.119 1.864-.066.12z" fill="#fff"/>
        <path d="m42.326 50.634.847 1.412v-.03c-.019-.098-.023-.166-.023-.166l-.385-.81-.242-.509-.197.103z" fill="#925978"/>
        <path d="m41.933 50.83 2.748 4.58c.088-.04.165-.079.238-.114l-2.749-4.585-.237.12zM41.54 51.026l2.732 4.555a4.33 4.33 0 0 0 .248-.099l-2.742-4.574-.237.118zM41.148 51.223l2.694 4.494c.088-.021.176-.048.262-.076l-2.72-4.535-.236.117zM40.755 51.42l2.621 4.371c.097-.003.193-.015.287-.033l-2.673-4.456-.235.117zM40.36 51.615l2.461 4.103c.057 0 .113.01.166.026.06.02.123.034.186.04l-2.57-4.287-.243.118zM39.966 51.808l2.4 4.004a1.65 1.65 0 0 1 .263-.076l-2.426-4.044-.237.116z" fill="#fff"/>
        <path d="m39.572 52 2.393 3.994c.08-.043.165-.081.238-.116l-2.394-3.992-.237.114zM39.174 52.193l2.413 4.021c.074-.048.15-.092.225-.136l-2.395-4-.243.114zM38.776 52.382l2.446 4.076c.07-.05.144-.099.217-.149l-2.423-4.032-.24.105zM38.375 52.562l2.486 4.156.212-.166-2.46-4.105-.238.115z" fill="#925978"/>
        <path d="m38.027 52.718-.048.036 2.54 4.238c.06-.05.132-.106.208-.166l-2.52-4.201a.52.52 0 0 0-.18.093zM37.847 52.872c-.063.061-.128.13-.19.199l2.455 4.092.14.053v-.009l.123-.104-2.528-4.23zM37.538 53.212a3.908 3.908 0 0 0-.165.222l2.09 3.48.394.146-2.319-3.848zM37.253 53.588l-.008.013.116.678 1.439 2.4.394.145-1.94-3.236z" fill="#fff"/>
        <path d="m37.442 54.755.125.717.576.963.395.146-1.096-1.826zM37.648 55.948l.056.325.177.066-.233-.39z" fill="#925978"/>
        <path opacity=".1" d="M38.032 52.715c.128.403.264.767.264.767l.94 1.957 2.08-.9c.115-.33.175-.68.178-1.032-.03-.398.166-.966 1.16-1.312.058-.02.118-.04.182-.058.115-.034.224-.075.332-.125.485-.208.861-.61 1.04-1.107l.014-.041 1.365-.98a.459.459 0 0 0-.036-.06c-.219-.04-.376-.084-.376-.084l-.627-.01-1.786 1.311-.242-.508s-3.966 2.006-4.309 2.09a.539.539 0 0 0-.179.092z" fill="#000"/>
        <path d="M41.35 48.575a1.851 1.851 0 0 1-.708 1.005c-.578.416-.497.653-.497.653l-1.712 1.05s-.297.4-.59.332.416 1.822.416 1.822l.94 1.958 2.08-.9c.115-.332.175-.681.178-1.033-.031-.42.181-1.032 1.344-1.368a1.966 1.966 0 0 0 1.374-1.233l.012-.042 1.367-.98a.764.764 0 0 0-.516-.384 1.997 1.997 0 0 1-.22-.046c-.2-.06-.295-.166-.293-.348 0-.25-.01-1.326-.472-1.359-.463-.033-2.703.873-2.703.873z" fill="#4C4981"/>
        <path d="m44.818 49.393-.868.779.225.672a.552.552 0 0 0 .012-.041l1.367-.98a.764.764 0 0 0-.515-.384 1.997 1.997 0 0 1-.22-.046z" fill="#4C4981"/>
        <path opacity=".1" d="m44.818 49.393-.868.779.225.672a.552.552 0 0 0 .012-.041l1.367-.98a.764.764 0 0 0-.515-.384 1.997 1.997 0 0 1-.22-.046zM44.555 43.698l-.312.188.421 1.524s.14.08.34.212a19.72 19.72 0 0 1-.234-1.374c-.016-.155-.02-.263 0-.278.02-.015.033 0 .061.012a22.704 22.704 0 0 0-.276-.284z" fill="#000"/>
        <path d="M41.683 42.946s-.527 2.166-.288 3.261c0 0 .198 1.602-.045 2.368l2.61-.406.093-.484s-.468-.331-.544-.749c-.076-.417-.205-.868-.205-.868a7.014 7.014 0 0 0-.166-1.16c-.098-.284.306-.332.613-.136.041.025.08.053.114.086a.383.383 0 0 0 .098.506c.111.077.234.134.365.165.192.052.39.086.588.105 0 0-.187-.928-.239-1.409-.018-.156-.021-.264 0-.277.092-.054.733.58.733.58s.031-.798-.317-.964c0 0-.054.228-.242.146-.187-.083-2.22-1.21-2.22-1.21s-.77-.655-.948.446z" fill="#4C4981"/>
        <path opacity=".1" d="m43.488 43.826.263.956c.042.025.08.053.115.087a.383.383 0 0 0 .097.505c.111.078.234.134.365.166.164.038.33.064.497.08 0 0-.187-.929-.24-1.408l-1.097-.386z" fill="#000"/>
        <path d="m43.585 43.844.28 1.019a.383.383 0 0 0 .098.505c.275.207.955.264.955.264s-.187-.928-.239-1.409l-1.094-.38z" fill="#4C4981"/>
        <path opacity=".1" d="m43.609 43.826.28 1.018a.385.385 0 0 0 .096.507c.277.207.956.262.956.262s-.187-.928-.24-1.407l-1.092-.38z" fill="#fff"/>
        <path opacity=".1" d="m37.142 67.881-1.902-1.07s-.06.884-.199 1.746c.655.415 1.263.809 1.775 1.087-.05-.646.326-1.763.326-1.763zM25.48 62.56c.224.378.488.73.79 1.05 0 0 .192.266.528.639.146-.08.315-.166.51-.25.552-.276 1.081-.592 1.583-.95l-.994-1.491-1.823.744c-.216.035-.42.124-.593.258z" fill="#000"/>
        <path d="M31.57 56.481c-.342.535-2.003 2.32-2.003 2.32a9.226 9.226 0 0 0-.749 1.132c-.292.547-1.186 1.228-1.87 1.844-.685.617-.685.204-1.09.426-.404.222.8 1.508.8 1.508s2.036 2.817 4.344 2.937c2.309.12 5.683 3.167 7.085 3.47 1.402.303.532-.497 1.128-.704.597-.207.888-.864.888-.864s-.218-1.605-.04-1.96c.18-.355.389-1.803.389-1.803s0-1.281.099-1.492c.1-.21.053-1.705-.02-2.137-.073-.433.317-1.058.317-1.058s-.138-.228.054-.737-.165-2.135-.165-2.135c-2.977-1.746-3.489-3.626-3.489-3.626l-.373.115c-2.36-.595-4.966 2.229-5.306 2.764z" fill="#444053"/>
        <path opacity=".1" d="M36.876 53.712s.233 2.527 3.864 3.513c-2.98-1.743-3.492-3.623-3.492-3.623l-.372.11zM37.273 58.065s-2.993 4.833-3.069 5.087c-.076.254 3.192-4.953 3.07-5.087zM37.006 56.549s-2.297 3.445-2.747 3.59c0 0 2.202-3.325 2.747-3.59zM35.606 55.734s-1.62 1.16-2.88 1.024l2.88-1.024zM35.16 54.988s-1.556.648-1.949.613l1.95-.613zM38.73 59.423l.118 3.197-.566-.943.448-2.254zM48.345 48.846c-.03.178-.126.353-.076.526.048.12.127.222.228.3.237.22.463.497.498.81.043.46-.324.88-.285 1.34a.776.776 0 0 0 .326.57c.166.113.37.158.567.123a.98.98 0 0 0 .707-.677c.09-.332.096-.681.015-1.016-.166-.88-.593-1.687-1.01-2.486a.385.385 0 0 0-.135-.166c-.146-.084-.706-.094-.845.019-.192.154.176.56.01.657z" fill="#000"/>
        <path d="M48.406 48.81c-.031.178-.126.353-.078.526.048.119.128.222.23.3.236.22.461.488.498.81.041.459-.332.88-.287 1.339a.794.794 0 0 0 .327.57c.165.114.37.16.568.124a.974.974 0 0 0 .706-.678c.091-.33.098-.68.017-1.015-.166-.88-.594-1.687-1.011-2.486a.385.385 0 0 0-.135-.166c-.145-.084-.706-.094-.845.018-.195.148.176.56.01.658z" fill="#925978"/>
        <path d="m51.734 59.938-.943.721.353.25 1.914 1.358s.663 1.374 1.823.994c1.16-.38-.663-1.556-.79-1.606-.125-.05-.359-.187-.359-.187l-1.702-1.3-.296-.23z" fill="#EFB7B9"/>
        <path opacity=".1" d="m51.734 59.938-.943.721.353.25c.446-.283.828-.591.89-.742l-.3-.229zM40.874 53.852l-2.04 1.325 1.432 2.02c.146-.126 1.989-1.712 2.721-1.463.76.26 2.217-.598 2.217-.598s.617-1.294.78-1.573c.165-.278-.133-1.48-.133-1.48.08-.087.174-.162.278-.217a1.34 1.34 0 0 0-.27.017c-.403.177-.608.457-.623.976V53c0 .08.008.166.018.254v.041c.1.81-.262 1.15-.262 1.15a1.78 1.78 0 0 1-1.012.829c-.711.229-3.106-1.423-3.106-1.423z" fill="#000"/>
        <path d="m40.947 53.973-2.04 1.326 1.61 2.282s.8-.438 1.061-.761c.262-.323 1.595-.86 1.595-.86 1.607.566 2.296-.398 2.296-.398s1.866 2.905 1.989 2.918c.123.014 1.134.81 1.134.81s.782 1.005 1.01 1.088c.087.03.17.068.249.112a.574.574 0 0 1 .066.044l-.684.397.011.025.009.013c.1.174.243.319.417.416.31.166 2.334-1.095 2.3-1.378a.3.3 0 0 0-.06-.146 1.718 1.718 0 0 0-.528-.411l-.053-.03-.02-.01s-1.17-1.173-1.55-1.346c-.379-.172-1.656-2.23-1.656-2.23s-.663-.883-.577-1.074c.086-.19-.34-1.795-.608-1.823-.269-.028-.388-.396-.388-.396.177-.373-.008-.497-.217-.53a1.291 1.291 0 0 0-.375 0c-.437.194-.643.508-.623 1.118 0 .092.01.19.024.295.099.809-.262 1.15-.262 1.15a1.78 1.78 0 0 1-1.013.829c-.722.222-3.117-1.43-3.117-1.43z" fill="#4C4981"/>
        <path opacity=".1" d="M51.904 59.86a.25.25 0 0 1 .025.085c.033.284-1.988 1.551-2.3 1.38a1.136 1.136 0 0 1-.381-.356l-.008-.013a.173.173 0 0 1-.012-.025l.684-.398a.563.563 0 0 0-.066-.043l.03-.016a2.042 2.042 0 0 0 1.448-1.054l.58.44z" fill="#000"/>
        <path d="m49.912 60.533-.684.398c.098.19.25.348.438.454.31.166 2.333-1.096 2.3-1.379-.025-.225-.421-.466-.589-.557-.291.57-.833.973-1.465 1.084z" fill="#4C4981"/>
        <path opacity=".1" d="m49.912 60.533-.684.398c.098.19.25.348.438.454.31.166 2.333-1.096 2.3-1.379-.025-.225-.421-.466-.589-.557-.291.57-.833.973-1.465 1.084z" fill="#fff"/>
        <path d="m45.309 53.13.497.213.497-1.337a1.284 1.284 0 0 0-.374 0c-.435.199-.64.514-.62 1.123z" fill="#4C4981"/>
        <path opacity=".1" d="m45.33 53.117.498.213.497-1.338a1.291 1.291 0 0 0-.375 0c-.434.2-.64.514-.62 1.125zM48.532 48.738c-.031.177-.127.353-.078.525.048.12.126.222.229.3.237.22.462.489.497.81.042.46-.331.88-.286 1.34a.783.783 0 0 0 .135.399.756.756 0 0 0 .183.165.748.748 0 0 0 .767.058.76.76 0 0 1-1.216-.555c-.039-.459.331-.88.286-1.339-.028-.321-.253-.59-.497-.81a.698.698 0 0 1-.23-.3c-.048-.166.046-.348.078-.525.165-.098-.203-.498-.017-.663a.297.297 0 0 1 .096-.043c-.112.179.206.545.053.638zM44.197 52.38s-.647.045-.724.38c0 0 .62-.598.533-.754" fill="#000"/>
        <path d="M55.026 62.386s-1.67-.8-1.445.205c.226 1.006 1.445-.205 1.445-.205z" fill="#EFB7B9"/>
        <path d="m53.072 55.843-1.583.723 8.125 17.787 1.583-.723-8.125-17.787z" fill="#6C63FF"/>
        <path d="M31.886 27.32c-.309.676-1.06 1.278-.837 1.989.114.366.464.601.789.805.758.48 1.532.978 2.083 1.687.55.71.848 1.682.53 2.523-.217.575-.688 1.019-.963 1.569a3.287 3.287 0 0 0-.18 2.214 7.64 7.64 0 0 0 .91 2.073c.14.242.306.497.57.593.197.048.399.065.6.05.702.026 1.335.497 1.71 1.085.374.589.525 1.301.6 1.999.036.351.062.724.261 1.016.279.407.809.542 1.296.625 1.266.215 2.554.281 3.835.197" stroke="#444053" stroke-miterlimit="10"/>
        <path d="M41.9 44.712h.774a.752.752 0 1 1 0 1.505H41.9a.752.752 0 1 1 0-1.505z" fill="#444053"/>
    </g>
    <defs>
        <linearGradient id="b" x1="157.408" y1="132.973" x2="157.408" y2="96.913" gradientUnits="userSpaceOnUse">
            <stop stop-color="gray" stop-opacity=".25"/>
            <stop offset=".54" stop-color="gray" stop-opacity=".12"/>
            <stop offset="1" stop-color="gray" stop-opacity=".1"/>
        </linearGradient>
        <linearGradient id="c" x1="129.984" y1="79.364" x2="128.472" y2="40.023" gradientUnits="userSpaceOnUse">
            <stop stop-color="gray" stop-opacity=".25"/>
            <stop offset=".54" stop-color="gray" stop-opacity=".12"/>
            <stop offset="1" stop-color="gray" stop-opacity=".1"/>
        </linearGradient>
        <clipPath id="a">
            <path fill="#fff" d="M0 0h188.2v142H0z"/>
        </clipPath>
    </defs>
</svg>
