<svg width="190" height="140" fill="none" xmlns="http://www.w3.org/2000/svg">
    <path opacity=".1" d="M110.148 20.918c-12.154-.42-23.73-4.346-34.782-8.638C64.313 7.988 53.361 3.232 41.5.957 33.871-.506 25.145-.709 18.998 3.378c-5.917 3.936-7.828 10.737-8.855 17.037-.773 4.745-1.228 9.73.89 14.178 1.47 3.082 4.083 5.674 5.89 8.627 6.283 10.278 1.845 22.95-4.97 32.982-3.187 4.707-6.9 9.197-9.364 14.208-2.465 5.012-3.606 10.751-1.45 15.861 2.14 5.067 7.233 8.872 12.75 11.548 11.21 5.436 24.418 6.993 37.298 7.873 28.512 1.943 57.175 1.104 85.762.265 10.579-.313 21.204-.63 31.613-2.266 5.778-.908 11.744-2.349 15.938-5.83 5.326-4.419 6.647-11.902 3.077-17.448-5.986-9.293-22.54-11.602-26.724-21.575-2.304-5.49.062-11.605 3.409-16.697 7.18-10.923 19.216-20.505 19.85-32.99.436-8.575-5.35-17.163-14.295-21.22-9.379-4.253-22.381-3.717-29.3 3.322-7.12 7.25-19.639 10.038-30.369 9.665z" fill="#5AC0FC"/>
    <path d="m111.429 126.815-32.715-.419.096-.839 1.582-13.841h28.73l2.114 13.841.161 1.048.032.21z" fill="#D0D2D5"/>
    <path opacity=".1" d="M111.397 126.604H95.071l-16.357-.209.096-.839h32.426l.161 1.048z" fill="#000"/>
    <path d="M116.672 125.765h-43.41v1.048h43.41v-1.048z" fill="#D0D2D5"/>
    <path d="M158.089 28.583a2.735 2.735 0 0 0-.79-1.934 2.73 2.73 0 0 0-1.926-.81H34.141a2.731 2.731 0 0 0-2.718 2.744v73.483H158.09V28.583z" fill="#444053"/>
    <path d="M31.423 101.336v8.607a2.716 2.716 0 0 0 2.718 2.717h121.232a2.717 2.717 0 0 0 2.716-2.717v-8.607H31.423z" fill="#D0D2D5"/>
    <path opacity=".1" d="M153.475 30.453H36.665v66.06h116.81v-66.06z" fill="#6C63FF"/>
    <path d="M95.385 109.393a2.84 2.84 0 0 0 2.448-1.404l-1.554-.255 1.678.013a2.83 2.83 0 0 0 .054-2.245l-2.254 1.175 2.08-1.527a2.837 2.837 0 0 0-1.818-1.334 2.825 2.825 0 0 0-3.017 1.242 2.836 2.836 0 0 0-.35 2.227c.096.375.27.727.508 1.032a2.839 2.839 0 0 0 2.225 1.076z" fill="#5AC0FC"/>
    <path opacity=".1" d="m98.217 112.661 13.051 13.106-2.001-13.106h-11.05z" fill="#000"/>
    <path d="M116.331 42.371H40.532a.436.436 0 0 0-.436.436v45.097c0 .24.196.436.436.436h75.799a.436.436 0 0 0 .436-.436V42.807a.436.436 0 0 0-.436-.436zM153.509 30.459H36.742v3.859h116.767v-3.859z" fill="#fff"/>
    <path d="M40.469 31.13h-3.094a.13.13 0 0 0-.13.132v2.087c0 .072.058.13.13.13h3.094a.13.13 0 0 0 .13-.13v-2.087a.13.13 0 0 0-.13-.131z" fill="#5AC0FC"/>
    <path opacity=".3" d="M112.308 31.13H77.271a.097.097 0 0 0-.097.098v2.154c0 .054.043.098.097.098h35.037a.098.098 0 0 0 .098-.098v-2.154a.098.098 0 0 0-.098-.097z" fill="#5AC0FC"/>
    <path d="M111.361 32.546h-.086l-.032-.027a.695.695 0 1 0-.525.243.718.718 0 0 0 .457-.168l.031.027v.087l.537.537.168-.167-.55-.532zm-.644 0a.483.483 0 0 1-.45-.299.49.49 0 0 1 .105-.529.483.483 0 0 1 .747.075.489.489 0 0 1-.217.717.482.482 0 0 1-.185.036z" fill="#444053"/>
    <path d="M151.832 33.48a1.174 1.174 0 1 0 0-2.348 1.174 1.174 0 0 0 0 2.348z" fill="#5AC0FC"/>
    <path d="M132.801 38.51h-10.089a.407.407 0 0 0-.408.408v6.567c0 .225.182.408.408.408h10.089a.408.408 0 0 0 .408-.408v-6.567a.408.408 0 0 0-.408-.407zM150.051 38.51h-13.888a.102.102 0 0 0-.102.103v.97c0 .056.046.102.102.102h13.888a.103.103 0 0 0 .103-.102v-.97a.103.103 0 0 0-.103-.102zM150.051 41.03h-13.888a.102.102 0 0 0-.102.102v.97c0 .056.046.102.102.102h13.888a.103.103 0 0 0 .103-.103v-.97a.103.103 0 0 0-.103-.102zM150.051 43.546h-13.888a.102.102 0 0 0-.102.102v.97c0 .056.046.102.102.102h13.888a.103.103 0 0 0 .103-.102v-.97a.103.103 0 0 0-.103-.102zM132.801 50.089h-10.089a.407.407 0 0 0-.408.407v6.567c0 .225.182.408.408.408h10.089a.408.408 0 0 0 .408-.408v-6.567a.408.408 0 0 0-.408-.407zM150.051 50.089h-13.888a.102.102 0 0 0-.102.102v.97c0 .056.046.102.102.102h13.888a.103.103 0 0 0 .103-.102v-.97a.103.103 0 0 0-.103-.102zM150.051 52.606h-13.888a.102.102 0 0 0-.102.103v.97c0 .056.046.102.102.102h13.888a.103.103 0 0 0 .103-.102v-.97a.103.103 0 0 0-.103-.103zM150.043 55.12h-13.871a.111.111 0 0 0-.111.11v.954c0 .06.05.11.111.11h13.871c.061 0 .111-.05.111-.11v-.953c0-.061-.05-.11-.111-.11zM132.801 61.664h-10.089a.407.407 0 0 0-.408.408v6.566c0 .225.182.408.408.408h10.089a.408.408 0 0 0 .408-.408v-6.566a.408.408 0 0 0-.408-.408zM150.043 61.664h-13.871a.111.111 0 0 0-.111.11v.954c0 .06.05.11.111.11h13.871c.061 0 .111-.05.111-.11v-.953c0-.061-.05-.11-.111-.11zM150.043 64.183h-13.871a.111.111 0 0 0-.111.11v.953c0 .061.05.111.111.111h13.871c.061 0 .111-.05.111-.11v-.954c0-.06-.05-.11-.111-.11zM150.043 66.697h-13.871a.111.111 0 0 0-.111.111v.953c0 .061.05.11.111.11h13.871c.061 0 .111-.049.111-.11v-.953c0-.061-.05-.11-.111-.11zM132.801 73.24h-10.089a.407.407 0 0 0-.408.407v6.566c0 .226.182.408.408.408h10.089a.408.408 0 0 0 .408-.407v-6.567a.408.408 0 0 0-.408-.408zM150.043 73.24h-13.871a.111.111 0 0 0-.111.11v.953c0 .061.05.11.111.11h13.871c.061 0 .111-.049.111-.11v-.953c0-.061-.05-.11-.111-.11zM150.043 75.757h-13.871a.111.111 0 0 0-.111.11v.953c0 .062.05.111.111.111h13.871c.061 0 .111-.05.111-.11v-.953c0-.062-.05-.111-.111-.111zM150.043 78.274h-13.871a.111.111 0 0 0-.111.111v.953c0 .061.05.11.111.11h13.871c.061 0 .111-.049.111-.11v-.953c0-.061-.05-.11-.111-.11zM132.801 84.817h-10.089a.407.407 0 0 0-.408.408v6.567c0 .225.182.407.408.407h10.089a.408.408 0 0 0 .408-.407v-6.567a.408.408 0 0 0-.408-.408zM150.043 84.817h-13.871a.111.111 0 0 0-.111.111v.953c0 .061.05.11.111.11h13.871c.061 0 .111-.049.111-.11v-.953c0-.061-.05-.11-.111-.11zM150.043 87.334h-13.871a.111.111 0 0 0-.111.11v.954c0 .06.05.11.111.11h13.871c.061 0 .111-.05.111-.11v-.953c0-.061-.05-.111-.111-.111zM150.043 89.849h-13.871a.111.111 0 0 0-.111.11v.953c0 .061.05.111.111.111h13.871c.061 0 .111-.05.111-.11v-.954c0-.06-.05-.11-.111-.11z" fill="#fff"/>
    <path opacity=".1" d="M68.408 54.553H51.156v.894h17.252v-.894z" fill="#6C63FF"/>
    <path opacity=".1" d="M54.35 49.825h-1.66v4.728h1.66v-4.728zM56.778 49.825h-1.66v4.728h1.66v-4.728zM59.205 49.825h-1.66v4.728h1.66v-4.728zM61.634 49.825h-1.661v4.728h1.66v-4.728zM64.061 49.825h-1.66v4.728h1.66v-4.728zM66.49 49.825h-1.66v4.728h1.66v-4.728z" fill="#6C63FF"/>
    <path opacity=".1" d="M54.35 50.719h-1.66v.511h1.66v-.511zM56.778 50.719h-1.66v.511h1.66v-.511zM59.205 50.719h-1.66v.511h1.66v-.511zM61.634 50.719h-1.661v.511h1.66v-.511zM64.061 50.719h-1.66v.511h1.66v-.511zM66.49 50.719h-1.66v.511h1.66v-.511zM54.35 53.02h-1.66v.511h1.66v-.511zM56.778 53.02h-1.66v.511h1.66v-.511zM59.205 53.02h-1.66v.511h1.66v-.511zM61.634 53.02h-1.661v.511h1.66v-.511zM64.061 53.02h-1.66v.511h1.66v-.511zM66.49 53.02h-1.66v.511h1.66v-.511zM106.232 56.853H88.98v.895h17.252v-.895zM92.174 52.125h-1.66v4.728h1.66v-4.728zM94.602 52.125H92.94v4.728h1.66v-4.728zM97.03 52.125h-1.661v4.728h1.66v-4.728zM99.459 52.125h-1.661v4.728h1.66v-4.728zM101.886 52.125h-1.661v4.728h1.661v-4.728zM104.315 52.125h-1.661v4.728h1.661v-4.728z" fill="#6C63FF"/>
    <path opacity=".1" d="M92.174 53.02h-1.66v.511h1.66v-.511zM94.602 53.02H92.94v.511h1.66v-.511zM97.03 53.02h-1.661v.511h1.66v-.511zM99.459 53.02h-1.661v.511h1.66v-.511zM101.886 53.02h-1.661v.511h1.661v-.511zM104.315 53.02h-1.661v.511h1.661v-.511zM92.174 55.32h-1.66v.511h1.66v-.512zM94.602 55.32H92.94v.511h1.66v-.512zM97.03 55.32h-1.661v.511h1.66v-.512zM99.459 55.32h-1.661v.511h1.66v-.512zM101.886 55.32h-1.661v.511h1.661v-.512zM104.315 55.32h-1.661v.511h1.661v-.512zM106.232 63.37H88.98v.893h17.252v-.894zM92.174 58.64h-1.66v4.728h1.66v-4.727zM94.602 58.64H92.94v4.728h1.66v-4.727zM97.03 58.64h-1.661v4.728h1.66v-4.727zM99.459 58.64h-1.661v4.728h1.66v-4.727zM101.886 58.64h-1.661v4.728h1.661v-4.727zM104.315 58.64h-1.661v4.728h1.661v-4.727z" fill="#6C63FF"/>
    <path opacity=".1" d="M92.174 59.537h-1.66v.512h1.66v-.512zM94.602 59.537H92.94v.512h1.66v-.512zM97.03 59.537h-1.661v.512h1.66v-.512zM99.459 59.537h-1.661v.512h1.66v-.512zM101.886 59.537h-1.661v.512h1.661v-.512zM104.315 59.537h-1.661v.512h1.661v-.512zM92.174 61.834h-1.66v.512h1.66v-.512zM94.602 61.834H92.94v.512h1.66v-.512zM97.03 61.834h-1.661v.512h1.66v-.512zM99.459 61.834h-1.661v.512h1.66v-.512zM101.886 61.834h-1.661v.512h1.661v-.512zM104.315 61.834h-1.661v.512h1.661v-.512z" fill="#6C63FF"/>
    <path opacity=".1" d="M61.739 64.663a4.793 4.793 0 0 1-.352-.518l2.484-.408-2.684.02a4.54 4.54 0 0 1-.087-3.587l3.598 1.866-3.323-2.443a4.529 4.529 0 1 1 7.477 5.067c.203.255.376.532.517.826l-3.224 1.677 3.437-1.152a4.529 4.529 0 0 1-.73 4.246 4.53 4.53 0 1 1-7.113 0 4.53 4.53 0 0 1 0-5.599v.005z" fill="#5AC0FC"/>
    <path opacity=".1" d="M69.822 67.463a4.512 4.512 0 0 1-.97 2.795 4.53 4.53 0 1 1-7.113 0c-.61-.766 8.083-3.303 8.083-2.795z" fill="#5AC0FC"/>
    <path opacity=".2" d="M66.02 78.794a.401.401 0 0 1 .022.037h-1.536c.008-.012.013-.025.021-.037-.132-.23-.2-.491-.198-.757 0-.181.03-.362.093-.533a5.38 5.38 0 0 0 1.703.002v.008c.06.168.091.346.09.525.004.265-.064.525-.195.755z" fill="#3F3D56"/>
    <path opacity=".1" d="M60.498 78.83h-8.556a4.505 4.505 0 0 1 .049-3.11 4.53 4.53 0 0 1-1.653-5.35 4.338 4.338 0 0 1-.488-.391l2.251-1.123-2.56.812a4.53 4.53 0 0 1-1.14-3.4l3.994.72-3.896-1.353a4.528 4.528 0 0 1 8.503-.996 4.531 4.531 0 0 1 .136 3.63c.27.188.52.405.743.646l-2.587 2.552 2.944-2.117a4.53 4.53 0 0 1 .557 4.278 4.53 4.53 0 0 1 1.703 5.202z" fill="#5AC0FC"/>
    <path opacity=".1" d="M60.498 78.831H51.94a4.504 4.504 0 0 1 .049-3.11c-.805-.557 6.75-5.548 6.899-5.062a4.51 4.51 0 0 1-.1 2.961 4.53 4.53 0 0 1 1.709 5.211zM99.21 72.702a4.513 4.513 0 0 1-2.266 1.906c.04.323.046.649.018.973l-3.625-.218 3.541.768a4.53 4.53 0 0 1-1.748 2.695h-4.936v.129h-5.033a4.53 4.53 0 0 1 2.792-3.201 4.53 4.53 0 0 1 2.874-4.805 4.594 4.594 0 0 1-.037-.626l2.34.925-2.315-1.361a4.53 4.53 0 0 1 1.777-3.117l2.132 3.453-1.599-3.802a4.53 4.53 0 0 1 6.085 6.281z" fill="#5AC0FC"/>
    <path opacity=".1" d="M96.338 77.505c-.309.52-.72.97-1.208 1.326h-4.936v.129h-5.033a4.531 4.531 0 0 1 2.792-3.201c-.042-.336.933-.285 2.233-.067 2.548.428 6.325 1.525 6.152 1.813z" fill="#5AC0FC"/>
    <path d="M74.944 65.424s.621 3.355-.765 4.45c-1.386 1.096 1.175 7.663 5.399 6.896 4.224-.766 5.946-6.274 5.946-6.274s-4.231-.876-2.663-5.327l-7.917.255z" fill="#EE8E9E"/>
    <path opacity=".1" d="M74.944 65.424s.621 3.355-.765 4.45c-1.386 1.096 1.175 7.663 5.399 6.896 4.224-.766 5.946-6.274 5.946-6.274s-4.231-.876-2.663-5.327l-7.917.255z" fill="#000"/>
    <path d="M78.683 67.886a7.004 7.004 0 1 0 0-14.009 7.004 7.004 0 0 0 0 14.009z" fill="#EE8E9E"/>
    <path d="M90.194 74.2v4.76H67.066v-4.544a2.932 2.932 0 0 1 1.79-2.701l.663-.282c1.677-.715 3.716-1.602 4.382-1.971.073-.037.141-.081.204-.133.364-.364.292.11.292.11s-.01.09-.017.246c-.04 1.072.115 5.284 5.052 4.934 4.817-.336 5.033-3.594 4.984-4.552a2.583 2.583 0 0 0-.021-.265c.333.08.659.186.974.319 1.007.372 2.493.97 2.891 1.252.124.087.275.177.44.27a2.892 2.892 0 0 1 1.24 1.36c.168.376.255.784.254 1.196z" fill="#5AC0FC"/>
    <path opacity=".1" d="M85.37 70.121c-.408 1.889-1.688 5.427-6.302 5.52-4.915.097-5.2-4.792-5.169-6.18a.99.99 0 0 0 .207-.132c.365-.364.291.11.291.11s-.619 5.58 5.034 5.18c5.652-.401 4.957-4.815 4.957-4.815 0-.027.421.119.982.317z" fill="#000"/>
    <path d="M70.393 61.233a1.199 1.199 0 0 1 1.263.461c.255.357.293.789.325 1.201.304.064.475-.28.504-.54.112-1.059.12-2.137.476-3.16.356-1.024 1.133-2.014 2.326-2.405a2.699 2.699 0 0 1 1.27-.12c.253.041.491.13.743.167.872.144 1.82-.268 2.637.019.513.18.839.599 1.079 1.016.104.225.246.431.42.61.346.311.89.392 1.388.49.499.096 1.042.266 1.255.65.192.347.05.748-.013 1.124a2.755 2.755 0 0 0 .283 1.74c.093.168.28.37.504.315a.441.441 0 0 0 .238-.193c.572-.802.557-1.845 1.275-2.568.24-.242.55-.43.784-.671a1.522 1.522 0 0 0 .405-1.383c-.129-.553-.572-1.006-.929-1.493a5.874 5.874 0 0 1-.995-2.065.374.374 0 0 1 0-.27.72.72 0 0 1 .255-.208.964.964 0 0 0 .326-1.23c-.203-.414-.65-.73-1.153-.918a7.516 7.516 0 0 0-1.572-.335c-.352.05-.765-.15-.874-.431-.049-.126-.049-.262-.097-.388a.89.89 0 0 0-.671-.47 1.963 1.963 0 0 0-.898.064c-.335.094-.716.235-1.007.07-.152-.085-.236-.241-.4-.311-.336-.141-.682.144-.922.379a2.24 2.24 0 0 1-.83.558 1.238 1.238 0 0 1-1.03-.069c-.23-.145-.346-.38-.529-.566a1.99 1.99 0 0 0-1.25-.504 4.398 4.398 0 0 0-1.41.154 8.518 8.518 0 0 0-2.478 1.04 2.662 2.662 0 0 0-.952.885 2.013 2.013 0 0 0-.213.91c-.037.992.292 2.036 1.15 2.73-.524.218-.7.754-.823 1.228-.196.759-.392 1.529-.318 2.3.037.4.146.8.087 1.197a2.58 2.58 0 0 0-.077.572.548.548 0 0 0 .448.418z" fill="#454B69"/>
    <g opacity=".1" fill="#000">
        <path opacity=".1" d="M87.447 57.674a1.638 1.638 0 0 1-.302.446c-.233.245-.544.435-.784.671-.718.718-.703 1.769-1.275 2.57a.432.432 0 0 1-.238.192c-.218.057-.406-.141-.503-.316a2.893 2.893 0 0 1-.25-.67l-.034.167a2.755 2.755 0 0 0 .284 1.74c.092.168.28.37.503.315a.441.441 0 0 0 .238-.193c.572-.802.557-1.845 1.275-2.568.24-.242.55-.43.784-.671a1.524 1.524 0 0 0 .406-1.383 1.814 1.814 0 0 0-.104-.3zM85.883 52.708a.703.703 0 0 0-.255.208.371.371 0 0 0 0 .269c.066.26.15.516.253.764a.963.963 0 0 0 .326-1.23 1.181 1.181 0 0 0-.118-.196.967.967 0 0 1-.206.185zM71.086 54.264a3.11 3.11 0 0 1-1.099-1.945c-.03.15-.047.303-.05.457a3.494 3.494 0 0 0 .552 2.075c.12-.262.333-.471.597-.587zM84.066 59.508c.064-.377.205-.778.013-1.124-.213-.386-.756-.553-1.254-.65-.499-.098-1.042-.18-1.39-.49a2.194 2.194 0 0 1-.419-.61c-.237-.417-.565-.838-1.079-1.016-.817-.287-1.765.124-2.637-.019-.252-.042-.49-.129-.743-.167a2.685 2.685 0 0 0-1.27.12c-1.193.393-1.97 1.383-2.326 2.404-.355 1.022-.364 2.1-.476 3.161-.029.259-.2.604-.503.54-.032-.414-.07-.838-.326-1.202a1.198 1.198 0 0 0-1.263-.46.614.614 0 0 1-.354-.227c.018.154.018.31 0 .463a2.58 2.58 0 0 0-.077.572.548.548 0 0 0 .438.432 1.2 1.2 0 0 1 1.263.461c.255.357.294.789.325 1.201.304.064.475-.28.504-.54.112-1.059.12-2.137.476-3.16.356-1.024 1.133-2.014 2.325-2.405a2.699 2.699 0 0 1 1.27-.12c.254.041.492.13.744.167.872.144 1.82-.268 2.637.019.513.18.839.599 1.079 1.016.104.225.246.431.42.61.346.311.89.392 1.388.49.499.097 1.007.254 1.23.61-.008-.025 0-.05.005-.076zM70.032 58.987a3.187 3.187 0 0 0-.055-.934c-.05.324-.06.653-.032.98 0 .083.018.167.03.25.018-.1.044-.197.057-.296z"/>
    </g>
    <path d="M61.822 85.73v-3.027a.085.085 0 0 1 .085-.086h.344a.085.085 0 0 1 .086.086v1.26l1.395-1.294a.229.229 0 0 1 .375.168v2.743a.229.229 0 0 1-.375.168l-1.395-1.285v1.253a.085.085 0 0 1-.086.085h-.344a.085.085 0 0 1-.085-.07zM95.548 82.7v3.028a.086.086 0 0 1-.087.086h-.336a.086.086 0 0 1-.085-.086v-1.26l-1.396 1.292a.23.23 0 0 1-.376-.168V82.84a.23.23 0 0 1 .376-.167l1.395 1.285v-1.252a.086.086 0 0 1 .086-.085h.336c.022 0 .043.007.06.022a.085.085 0 0 1 .027.058zM78.115 85.86h-.683a.336.336 0 0 1-.336-.336v-2.507a.336.336 0 0 1 .336-.335h.683a.336.336 0 0 1 .335.335v2.507a.335.335 0 0 1-.335.335zm2.164-.336v-2.507a.335.335 0 0 0-.335-.335h-.69a.336.336 0 0 0-.336.335v2.507a.335.335 0 0 0 .336.335h.683a.334.334 0 0 0 .342-.335z" fill="#444053"/>
    <path opacity=".6" d="M98.817 78.62H58.552v.448h40.265v-.448z" fill="#444053"/>
    <path d="M70.985 79.903a1.062 1.062 0 1 0 0-2.124 1.062 1.062 0 0 0 0 2.124z" fill="#444053"/>
    <path d="M70.985 78.62H58.552v.448h12.433v-.448z" fill="#444053"/>
    <path d="M160.569 129.176c5.511 0 9.978-.859 9.978-1.919s-4.467-1.919-9.978-1.919c-5.51 0-9.977.859-9.977 1.919s4.467 1.919 9.977 1.919z" fill="#5AC0FC"/>
    <path d="M160.402 127.964c.642 0 1.161-.681 1.161-1.52 0-.84-.519-1.52-1.161-1.52-.641 0-1.161.68-1.161 1.52 0 .839.52 1.52 1.161 1.52z" fill="#3F3D56"/>
    <path d="M160.402 126.105c.642 0 1.161-.68 1.161-1.52 0-.839-.519-1.52-1.161-1.52-.641 0-1.161.681-1.161 1.52 0 .84.52 1.52 1.161 1.52z" fill="#3F3D56"/>
    <path d="M160.402 124.248c.642 0 1.161-.681 1.161-1.52s-.519-1.52-1.161-1.52c-.641 0-1.161.681-1.161 1.52s.52 1.52 1.161 1.52z" fill="#3F3D56"/>
    <path d="M160.402 122.39c.642 0 1.161-.681 1.161-1.52 0-.84-.519-1.52-1.161-1.52-.641 0-1.161.68-1.161 1.52 0 .839.52 1.52 1.161 1.52z" fill="#3F3D56"/>
    <path d="M160.402 120.53c.642 0 1.161-.68 1.161-1.52 0-.839-.519-1.52-1.161-1.52-.641 0-1.161.681-1.161 1.52 0 .84.52 1.52 1.161 1.52z" fill="#3F3D56"/>
    <path d="M160.402 118.672c.642 0 1.161-.681 1.161-1.52 0-.84-.519-1.52-1.161-1.52-.641 0-1.161.68-1.161 1.52 0 .839.52 1.52 1.161 1.52z" fill="#3F3D56"/>
    <path d="M160.402 116.812c.642 0 1.161-.68 1.161-1.52 0-.839-.519-1.52-1.161-1.52-.641 0-1.161.681-1.161 1.52 0 .84.52 1.52 1.161 1.52z" fill="#3F3D56"/>
    <path d="M164.75 102.575c.158-.203.303-.416.433-.638l-3.054-.503 3.302.025a5.583 5.583 0 0 0 .106-4.409l-4.426 2.299 4.084-3.002a5.568 5.568 0 0 0-9.518-.192 5.557 5.557 0 0 0-.683 4.389c.194.739.538 1.43 1.01 2.031a5.68 5.68 0 0 0-.634 1.006l3.963 2.059-4.225-1.418a5.57 5.57 0 0 0 .896 5.225 5.566 5.566 0 0 0-.63 5.869 5.567 5.567 0 0 0 7.956 2.284 5.567 5.567 0 0 0 2.579-5.309 5.556 5.556 0 0 0-1.157-2.844 5.571 5.571 0 0 0 0-6.879l-.002.007z" fill="#5AC0FC"/>
    <path opacity=".1" d="M154.815 106.015a5.533 5.533 0 0 0 1.189 3.44 5.566 5.566 0 0 0-.63 5.869 5.56 5.56 0 0 0 5.004 3.132 5.564 5.564 0 0 0 4.374-9.001c.745-.945-9.937-4.064-9.937-3.44z" fill="#000"/>
    <path opacity=".1" d="M48.653 139.511c9.173 0 16.61-1.577 16.61-3.523 0-1.946-7.437-3.523-16.61-3.523-9.173 0-16.609 1.577-16.609 3.523 0 1.946 7.436 3.523 16.61 3.523z" fill="#6C63FF"/>
    <path d="M54.215 135.577c-.335-.122-.694-.102-1.045-.14a3.238 3.238 0 0 1-1.923-.933 3.527 3.527 0 0 1-.768-1.175c.11.041.221.083.335.128-.335-.784.017-1.663.326-2.455a105.619 105.619 0 0 0 1.485-4.048c1.174-3.437 2.18-7.013 2.159-10.67 0-1.322-.243-2.572-.29-3.892-.036-.98.115-1.958.109-2.94 0-.137 0-.273-.01-.411a2.601 2.601 0 0 0 .884-2.124 5.11 5.11 0 0 0-.09-.617 9.964 9.964 0 0 0-.234-1.05c-.11-.364-.262-.713-.391-1.069-.25-.69-.42-1.408-.632-2.109a.724.724 0 0 1 .228.062.488.488 0 0 1-.108-.22 5.437 5.437 0 0 1-.201-1.37l.143-.064c.064-.453.04-.913-.07-1.357.081-.72.207-1.445.284-2.161.029-.269.017-.606-.23-.671-.05-.384-.07-.774-.09-1.161l-.21-4.055c-.07-1.357-.14-2.713-.167-4.072-.019-.862-.03-1.755-.234-2.58a3.119 3.119 0 0 0-.119-1.175c-.312-.988-1.282-1.771-2.265-1.716a4.507 4.507 0 0 0-1.072-1.084c.197-.44.431-.892.624-1.248 1.574-.512 2.725-2.064 2.725-3.909a4.266 4.266 0 0 0-.462-1.944c.03-.074.054-.15.074-.227a1.86 1.86 0 0 0-.075-1.089 3.179 3.179 0 0 0-.307-.637l-.086-.13a2.416 2.416 0 0 0-.168-.228 5.583 5.583 0 0 0-.382-.46 3.788 3.788 0 0 0-.55-.49c-.27-.2-.579-.342-.906-.417a2.757 2.757 0 0 0-.576-.052c-.115 0-.233 0-.349.01-.235.014-.468.03-.701.029-.077 0-.156 0-.233-.012a8.495 8.495 0 0 1-1.215-.253l-.201-.042a3.848 3.848 0 0 0-.76-.067h-.186a5.146 5.146 0 0 0-.556.057l-.184.028c-.466.073-.92.208-1.35.401a2.62 2.62 0 0 0-.169.084l-.033.018c-.045.024-.09.05-.134.076l-.026.015-.142.09-.012.009c-1.332.896-2.119 2.594-2.318 4.278-.223 1.89.167 3.797.558 5.657l.353 1.678.047.225a3.69 3.69 0 0 0-1.106 1.533c-.336.84-.344 1.747-.317 2.656 0 .185.01.37.028.554-.042.349-.078.7-.102 1.052-.106 1.627.092 3.263.04 4.894-.04 1.256-.23 2.516-.137 3.764.08 1.108.377 2.181.67 3.25l.424 1.523c.013.079.05.152.105.21a.32.32 0 0 0 .237.049 14.234 14.234 0 0 0-.688 1.926c-.126.402-.21.817-.248 1.238-.056.768.122 1.532.3 2.278.268 1.119.536 2.241.802 3.369l.562 2.364c.37 1.553.74 3.117.809 4.716.038.803-.018 1.607-.168 2.397a20.89 20.89 0 0 0-.208 7.186 35.24 35.24 0 0 0 1.357 5.941c.136-.073.273-.14.414-.202l-.058.109c-.194.336-.373.68-.537 1.032-.11.229-.207.465-.287.706-.215.671-.248 1.386-.279 2.092-.015.136-.003.274.036.405.092.253.357.382.604.453.724.206 1.478.132 2.231.035a.278.278 0 0 0 .015.049c.092.253.356.382.604.453 1.037.295 2.13.016 3.2-.084 1.068-.101 2.118-.027 3.147-.274.153-.033.3-.089.436-.168.264-.184.458-.454.55-.763a.973.973 0 0 0 .064-.25c.042-.367-.272-.691-.604-.814zm-3.548-15.537c-.058.393-.171.776-.336 1.138a21.703 21.703 0 0 0-1.721 5.397 25.018 25.018 0 0 0-.38 3.733c-.018.923.018 1.889-.367 2.718l.14-.022c-.044.08-.086.168-.126.231l-.02.037a3.63 3.63 0 0 1-.458-1.285c0-.015-.076-.027-.192-.033a34.719 34.719 0 0 1-.49-8.035c.003-.326.048-.65.135-.965.085-.27.23-.516.335-.778.168-.44.28-.898.336-1.366a19.4 19.4 0 0 0 .211-3.61c-.04-1.139.223-2.272.448-3.406.107-.538.206-1.079.26-1.619l.01-.109a16.254 16.254 0 0 1 2.06 5.349c.203.859.255 1.748.155 2.625zm-7.18-24.246.053.047c.162.143.311.3.446.468a.619.619 0 0 1 .141.259c.05.245-.153.453-.319.632-.072.078-.14.16-.203.245-.035-.55-.073-1.1-.114-1.65h-.005z" fill="url(#a)"/>
    <path d="m41.164 85.28-.184 1.424c-.062.483-.124.964-.158 1.45-.113 1.613.096 3.234.042 4.851-.044 1.245-.242 2.488-.146 3.731.085 1.097.397 2.164.71 3.221l.443 1.51a.396.396 0 0 0 .11.208.391.391 0 0 0 .284.046l1.966-.178c-.126-.577-.265-1.174-.336-1.767-.053-.463-.085-.93-.119-1.396-.104-1.452-.223-2.905-.335-4.362l-.21-2.55c-.089-1.107-.181-2.22-.46-3.295a6.558 6.558 0 0 0-1.607-2.894z" fill="#5AC0FC"/>
    <path opacity=".1" d="m41.164 85.28-.184 1.424c-.062.483-.124.964-.158 1.45-.113 1.613.096 3.234.042 4.851-.044 1.245-.242 2.488-.146 3.731.085 1.097.397 2.164.71 3.221l.443 1.51a.396.396 0 0 0 .11.208.391.391 0 0 0 .284.046l1.966-.178c-.126-.577-.265-1.174-.336-1.767-.053-.463-.085-.93-.119-1.396-.104-1.452-.223-2.905-.335-4.362l-.21-2.55c-.089-1.107-.181-2.22-.46-3.295a6.558 6.558 0 0 0-1.607-2.894z" fill="#000"/>
    <path d="M44.667 133.77a5.996 5.996 0 0 0-.302.701c-.224.662-.258 1.374-.292 2.073-.014.135-.002.272.037.401.098.252.376.38.636.448 1.089.294 2.236.019 3.356-.082 1.119-.101 2.224-.027 3.305-.27a1.69 1.69 0 0 0 .458-.159 1.43 1.43 0 0 0 .578-.755.99.99 0 0 0 .066-.249c.035-.369-.285-.687-.634-.808-.35-.121-.73-.103-1.097-.14a3.453 3.453 0 0 1-3.06-2.887c-.014-.08-1.82-.032-2.014.072-.221.123-.355.426-.481.633-.198.332-.383.673-.556 1.022z" fill="#A26565"/>
    <path opacity=".1" d="M44.667 133.77a5.996 5.996 0 0 0-.302.701c-.224.662-.258 1.374-.292 2.073-.014.135-.002.272.037.401.098.252.376.38.636.448 1.089.294 2.236.019 3.356-.082 1.119-.101 2.224-.027 3.305-.27a1.69 1.69 0 0 0 .458-.159 1.43 1.43 0 0 0 .578-.755.99.99 0 0 0 .066-.249c.035-.369-.285-.687-.634-.808-.35-.121-.73-.103-1.097-.14a3.453 3.453 0 0 1-3.06-2.887c-.014-.08-1.82-.032-2.014.072-.221.123-.355.426-.481.633-.198.332-.383.673-.556 1.022z" fill="#000"/>
    <path d="M47.662 134.302a5.74 5.74 0 0 0-.302.699c-.227.672-.26 1.374-.292 2.074a.979.979 0 0 0 .037.401c.095.252.374.379.634.45 1.089.292 2.238.016 3.355-.084 1.118-.101 2.227-.027 3.305-.27.16-.033.315-.089.458-.168.274-.178.479-.444.58-.755a.994.994 0 0 0 .065-.248c.035-.368-.286-.688-.635-.809-.348-.121-.73-.101-1.097-.139a3.458 3.458 0 0 1-3.06-2.886c-.013-.08-1.819-.033-2.013.071-.223.122-.358.426-.483.632-.192.341-.38.683-.552 1.032z" fill="#A26565"/>
    <path d="M55.468 116.478c.023 3.625-1.03 7.169-2.267 10.569a97.099 97.099 0 0 1-1.558 4.012c-.326.785-.693 1.657-.344 2.432-1.007-.382-2.03-.607-3.089-.431.403-.822.364-1.778.383-2.684.034-1.242.166-2.479.396-3.7a20.631 20.631 0 0 1 1.81-5.35c.17-.357.289-.736.35-1.127.138-.863.03-1.748-.149-2.602a15.521 15.521 0 0 0-2.164-5.302l-.01.108a15.639 15.639 0 0 1-.272 1.605c-.236 1.123-.513 2.247-.471 3.376a18.256 18.256 0 0 1-.222 3.578 5.43 5.43 0 0 1-.36 1.352c-.116.26-.267.504-.358.774a3.52 3.52 0 0 0-.14.956c-.135 2.73 0 5.501.556 8.177-.934-.074-1.869.197-2.704.616a33.325 33.325 0 0 1-1.426-5.889 19.56 19.56 0 0 1 .218-7.123 9.469 9.469 0 0 0 .176-2.374c-.072-1.586-.461-3.136-.849-4.676l-.59-2.349c-.28-1.118-.56-2.232-.84-3.34-.186-.74-.373-1.497-.315-2.258.041-.418.129-.83.262-1.228a13.704 13.704 0 0 1 1.857-3.799c3.233.182 6.505-.12 9.73-.369a.652.652 0 0 1 .457.078c.11.111.176.259.185.415l1.213 6.879c.196.956.311 1.927.344 2.903 0 .973-.151 1.942-.114 2.914.05 1.308.298 2.546.305 3.857z" fill="#454B69"/>
    <path opacity=".1" d="M48.83 112.402c-.063.54-.154 1.076-.273 1.606-.702-1.216-1.46-2.403-2.108-3.649-.168-.321-.326-.646-.485-.971l-.478-.974a12.731 12.731 0 0 1-.259-.552 3.973 3.973 0 0 1-.3-.838c.235-.044.815.59.99.756.356.353.692.725 1.006 1.114.383.433.734.893 1.05 1.376.407.656.696 1.378.856 2.132z" fill="#000"/>
    <path d="M51.522 79.033s-1.795 2.86-1.463 3.46c.332.598-5.654-.532-5.654-.532s3.26-2.861 2.926-4.059c-.334-1.198 4.191 1.13 4.191 1.13z" fill="#EFB7B9"/>
    <path d="M49.926 79.898a4.058 4.058 0 1 0 0-8.117 4.058 4.058 0 0 0 0 8.117z" fill="#EFB7B9"/>
    <path d="M51.583 82.033a4.12 4.12 0 0 0-1.707-1.373c-.393-.14-.8-.24-1.213-.298l-1.619-.285c-.396-.07-.82-.136-1.19.026a1.95 1.95 0 0 0-.502.371c-.563.522-1.108 1.094-1.814 1.396-.193.082-.394.143-.587.225-.79.335-1.381 1.05-1.715 1.845-.352.83-.362 1.73-.335 2.63 0 .312.03.622.092.927.08.29.183.574.307.849.223.588.41 1.19.56 1.8.42 1.605.769 3.227 1.047 4.865.024.235.093.463.203.672.157.208.346.39.56.538.17.14.328.295.468.465.07.069.123.154.153.248.052.242-.168.45-.335.626a3.028 3.028 0 0 0-.759 1.32.531.531 0 0 0-.12.364c.035.092.048.191.038.289a.652.652 0 0 1-.153.236.897.897 0 0 0-.167.718c1.257.547 2.603.862 3.972.93.336.017.672.017 1.007.057.238.03.473.079.712.107.345.033.693.042 1.04.027 1.806-.037 3.665-.082 5.325-.798.156-.851-.181-1.718-.393-2.557-.335-1.342-.42-2.716-.671-4.07-.168-.925-.42-1.836-.562-2.767-.143-.931-.168-1.896.08-2.802.227-.802.296-1.62.53-2.42.236-.8.4-1.668.135-2.46-.336-.98-1.354-1.757-2.387-1.701z" fill="#5AC0FC"/>
    <path d="M53.575 73.687c.198-.72-.19-1.47-.654-2.056-.503-.629-1.144-1.196-1.93-1.353-.64-.13-1.303.026-1.954-.026-.575-.045-1.129-.253-1.7-.335a5.387 5.387 0 0 0-1.558.058 5.913 5.913 0 0 0-1.418.396c-1.727.767-2.74 2.656-2.974 4.53-.235 1.874.176 3.763.585 5.607l.371 1.668c.386 1.736.772 3.48.874 5.254.103 1.775-.089 3.597-.818 5.218a11.222 11.222 0 0 0 5.155-5.837c.262-.686.456-1.399.748-2.073.25-.58.57-1.131.792-1.723.25-.669.37-1.379.354-2.093-.013-.536-.102-1.07-.087-1.607.015-.537.153-1.095.524-1.484.335-.344.796-.504 1.22-.727a5.084 5.084 0 0 0 1.71-1.426c.267-.349.282-.503.35-.9.066-.395.306-.71.41-1.091z" fill="#A26565"/>
    <path d="M53.58 104.172c.043.418-.033.839.058 1.254.068.308.228.587.322.889.093.348.14.708.142 1.068.014.302-.01.672-.278.812-.118.063-.259.063-.381.116-.122.054-.226.2-.156.314.07.114.191.096.302.117.11.022.23.136.168.229a.198.198 0 0 1-.098.062 1.161 1.161 0 0 0-.315.151.318.318 0 0 0-.13.307.192.192 0 0 0 .189.144.181.181 0 0 0 .082-.02.837.837 0 0 0-.079.335c.43.185.911-.057 1.314-.29.174-.097.342-.205.503-.322a2.514 2.514 0 0 0 .98-2.142 4.995 4.995 0 0 0-.096-.613 9.22 9.22 0 0 0-.246-1.042c-.116-.36-.274-.704-.41-1.058-.288-.754-.475-1.542-.736-2.305a.347.347 0 0 0-.126-.2.343.343 0 0 0-.186-.035 3.025 3.025 0 0 0-.874.08c-.168.051-.455.168-.534.336-.079.168.047.308.123.448.24.421.398.884.462 1.365z" fill="#EFB7B9"/>
    <path opacity=".1" d="M53.308 83.787c.086.088.158.189.214.299.578 1.048.584 2.302.611 3.498.03 1.342.104 2.684.178 4.035l.22 4.026c.022.384.042.769.097 1.15.258.065.268.4.24.67-.186 1.641-.648 3.331-.168 4.909a.493.493 0 0 0 .112.218 1.32 1.32 0 0 0-.75-.01c-.24.051-.47.14-.712.195-.306.069-.651.099-.86.336a16.704 16.704 0 0 1-.562-2.168c-.113-.671-.145-1.362-.417-1.983-.11-.25-.257-.482-.391-.722-.703-1.254-1.049-2.672-1.386-4.071a5.946 5.946 0 0 1-.107-2.024c.048-.308.077-.619.084-.93a7.149 7.149 0 0 0-.13-.98 6.57 6.57 0 0 1 .197-2.838c.251-.853.473-1.753 1.006-2.47.534-.719 1.633-1.128 2.524-1.14z" fill="#000"/>
    <path d="M53.507 83.651c.086.09.159.19.215.3.577 1.048.584 2.303.61 3.499.03 1.342.104 2.684.178 4.026l.22 4.027c.022.384.042.768.097 1.149.259.065.269.4.239.67-.185 1.642-.646 3.329-.168 4.91a.493.493 0 0 0 .112.218 1.311 1.311 0 0 0-.75-.01c-.24.05-.471.139-.713.193-.305.07-.65.099-.859.335a16.488 16.488 0 0 1-.557-2.177c-.114-.671-.146-1.36-.417-1.982a8.12 8.12 0 0 0-.391-.721c-.705-1.255-1.049-2.674-1.386-4.073a5.941 5.941 0 0 1-.108-2.024 4.361 4.361 0 0 0-.045-1.91 6.558 6.558 0 0 1 .196-2.836c.252-.854.474-1.753 1.007-2.471.533-.718 1.63-1.11 2.52-1.123z" fill="#5AC0FC"/>
    <g opacity=".1" fill="#000">
        <path opacity=".1" d="M52.92 71.63c-.503-.629-1.144-1.196-1.93-1.353-.64-.13-1.302.026-1.953-.026-.576-.045-1.13-.253-1.701-.335a5.387 5.387 0 0 0-1.557.059 5.912 5.912 0 0 0-1.418.396c-.245.11-.48.243-.7.397.405-.157.825-.27 1.254-.335a5.368 5.368 0 0 1 1.555-.06c.574.075 1.126.281 1.703.326.649.052 1.312-.102 1.953.026.786.157 1.43.726 1.929 1.355.465.584.852 1.334.656 2.055-.104.38-.346.712-.411 1.102-.066.391-.082.55-.35.9-.345.447-.761.835-1.232 1.146.129-.06.261-.121.387-.187a5.084 5.084 0 0 0 1.71-1.426c.267-.349.282-.503.349-.899s.307-.721.41-1.102c.199-.703-.19-1.453-.653-2.039zM49.884 77.839c.07-.072.146-.138.227-.196-.388.188-.795.352-1.092.67-.371.388-.504.949-.524 1.485-.02.537.076 1.07.087 1.606a5.603 5.603 0 0 1-.354 2.094c-.221.592-.541 1.14-.791 1.723-.29.67-.485 1.385-.747 2.072a11.24 11.24 0 0 1-4.263 5.305l-.029.067a11.222 11.222 0 0 0 5.156-5.837c.262-.686.456-1.4.748-2.074.25-.58.57-1.13.792-1.723.25-.668.37-1.378.354-2.092-.013-.537-.102-1.07-.087-1.607.015-.537.153-1.104.523-1.493z"/>
    </g>
    <defs>
        <linearGradient id="a" x1="48.096" y1="138.055" x2="48.096" y2="69.287" gradientUnits="userSpaceOnUse">
            <stop stop-color="gray" stop-opacity=".25"/>
            <stop offset=".54" stop-color="gray" stop-opacity=".12"/>
            <stop offset="1" stop-color="gray" stop-opacity=".1"/>
        </linearGradient>
    </defs>
</svg>
