<svg width="189" height="137" fill="none" xmlns="http://www.w3.org/2000/svg">
    <path opacity=".1" d="M96.869 23.646c-11.832 1.976-23.683.912-35.09-.56-11.409-1.471-22.79-3.35-34.647-2.986-7.623.237-16.103 1.735-21.378 6.332C.68 30.857-.046 36.904.002 42.37c.037 4.114.423 8.375 3.208 11.681 1.934 2.297 4.89 3.962 7.126 6.085 7.789 7.388 5.58 18.832.648 28.525-2.32 4.546-5.155 9.01-6.711 13.67s-1.71 9.686 1.223 13.553c2.906 3.824 8.466 6.03 14.251 7.21 11.748 2.398 24.787 1.16 37.398-.56 27.912-3.833 55.52-10.033 83.029-16.214 10.187-2.289 20.418-4.589 30.219-7.954 5.442-1.867 10.979-4.215 14.464-7.927 4.423-4.714 4.462-11.222.092-15.171-7.323-6.614-23.729-5.378-29.424-12.911-3.139-4.143-1.861-9.713.537-14.611 5.137-10.507 15.204-20.823 13.754-31.38-.994-7.253-8.017-13.323-17.347-15.002-9.777-1.76-22.274 1.179-27.804 8.387-5.703 7.421-17.349 12.15-27.796 13.894z" fill="#FF8532"/>
    <path d="M142.319 9.08H7.057v86.924h135.262V9.08z" fill="#E6E6E6"/>
    <path d="M138.449 19.98H10.927v70.886H138.45V19.981z" fill="#fff"/>
    <path d="M142.263 9H7v5.764h135.263V9z" fill="#FF8532"/>
    <path d="M11.268 13.021c.59 0 1.067-.478 1.067-1.07a1.068 1.068 0 1 0-2.134 0c0 .592.477 1.07 1.067 1.07zM15.31 13.021c.59 0 1.066-.478 1.066-1.07a1.068 1.068 0 1 0-2.134 0c.011.592.488 1.07 1.067 1.07zM19.35 13.021c.59 0 1.067-.478 1.067-1.07a1.068 1.068 0 1 0-2.134 0c.012.592.488 1.07 1.067 1.07z" fill="#fff"/>
    <path d="M55.277 27.34h-32.76v56.169H55.29v-56.17h-.012z" fill="#E6E6E6"/>
    <path d="M88.242 27.34h-27.3v15.457h27.311V27.34h-.011z" fill="#FF8532"/>
    <path d="M88.242 47.102h-27.3v16.643h27.311V47.103h-.011zM88.242 68.05h-27.3v15.458h27.311V68.051h-.011zM126.859 27.34h-32.76v24.479h32.771v-24.48h-.011z" fill="#E6E6E6"/>
    <path d="M126.859 59.03h-32.76v24.478h32.771V59.03h-.011z" fill="#FF8532"/>
    <path d="M161.753 52.57c-2.157-3.702-6.436-3.873-6.436-3.873s-4.166-.535-6.845 5.092c-2.486 5.251-5.926 10.32-.556 11.54l.976-3.065.601 3.292c.761.057 1.533.068 2.305.034 5.755-.194 11.238.057 11.067-2.039-.238-2.768.965-7.427-1.112-10.98z" fill="#2F2E41"/>
    <path d="m141.253 72.31-1.896 4.853-9.456 8.85s-5.676 4.215-3.156 5.48c2.52 1.264 4.836-4.636 4.836-4.636l10.08-6.117 2.1-6.96-2.508-1.47zM144.408 126.065l1.896 4.852h2.736l-2.316-5.695-2.316.843zM152.592 128.172l1.896 4.853h2.736l-2.316-5.696-2.316.843z" fill="#F9B6B8"/>
    <path d="m152.388 129.015 3.576-.843-4.62-18.761 1.532-14.432h.046s2.622-10.23.522-12.963c-2.1-2.745-12.6-1.686-12.6-1.686s-3.996 4.01-3.78 13.065c.204 9.068 0 16.87 1.476 20.447 1.475 3.588 5.675 13.065 5.675 13.065l3.36-.421L144 110.88l-.568-13.555c.454 5.434 1.373 15.742 1.828 16.517.612 1.048 7.128 15.173 7.128 15.173z" fill="#2F2E41"/>
    <path d="m163.104 76.73 1.464 5.274 6.516 11.801s5.675 5.058 3.36 5.696c-2.305.638-5.88-4.636-5.88-4.636l-7.356-10.332-1.884-7.586 3.78-.216zM155.544 61.763c2.894 0 5.255-2.358 5.255-5.274s-2.349-5.274-5.255-5.274c-2.906 0-5.256 2.358-5.256 5.274s2.35 5.274 5.256 5.274z" fill="#F9B6B8"/>
    <path d="m152.808 59.234-1.26 4.01-2.1 4.636 7.776-3.167s-.42-3.371 0-4.214l-4.416-1.265z" fill="#F9B6B8"/>
    <path d="m161.844 67.674-4.836-4.01-5.46 2.325.216-3.418-5.824 1.868-.896.285-1.26 6.539s-.84.637-1.68 4.214a31.392 31.392 0 0 1-2.1 6.117s9.035-3.588 13.44 1.265c0 0 .635-.422.42-1.06-.216-.638 1.884-3.793 1.884-3.793s0 .638.84-.638c.84-1.264 1.464-1.48 1.464-1.48l3.792-8.214z" fill="#FF8532"/>
    <path d="m146.292 65.35-.919-.74s-.761-.307-1.396.74c-.636 1.06-3.78 7.587-3.78 7.587l3.78 1.903 2.315-9.49zM158.904 67.458l2.94.216s1.68.843 1.68 2.108c0 1.264.42 8.008.42 8.008l-4.62 1.48-1.896-5.9 1.476-5.912z" fill="#FF8532"/>
    <path d="m145.691 130.177-3.576 1.481s-4.2.205-3.576 2.323c.636 2.108 6.936.638 6.936.638s5.676.205 5.676-1.264c0-1.47-.84-3.167-1.68-3.167h-3.78v-.011z" fill="#2F2E41"/>
    <path d="m153.671 132.067-3.576 1.47s-4.2.216-3.575 2.324c.635 2.107 6.935.637 6.935.637s5.676.205 5.676-1.264c0-1.481-.84-3.167-1.68-3.167h-3.78zM160.799 52.218l-4.222-2.244-5.835.91-1.203 5.4 3.008-.114.84-1.982v1.948l1.385-.057.806-3.155.499 3.36 4.927-.102-.205-3.964z" fill="#2F2E41"/>
    <path d="M132.535 26.61a28.371 28.371 0 0 0-14.803-6.493 28.304 28.304 0 0 0-15.937 2.666 28.462 28.462 0 0 0-11.896 10.97 28.59 28.59 0 0 0-4.007 15.707 28.583 28.583 0 0 0 5.187 15.355 28.316 28.316 0 0 0 12.703 10.013 28.362 28.362 0 0 0 16.096 1.435 28.252 28.252 0 0 0 14.257-7.609l34.792 29.457c.261.228.568.387.897.49.329.102.669.148 1.01.114a2.612 2.612 0 0 0 1.771-.923 2.673 2.673 0 0 0 .601-1.914 2.7 2.7 0 0 0-.283-.98 2.565 2.565 0 0 0-.636-.796l-34.792-29.458a28.552 28.552 0 0 0 4.847-19.98 28.372 28.372 0 0 0-9.807-18.054zm-2.237 35.187a21.186 21.186 0 0 1-10.352 6.732 21.183 21.183 0 0 1-12.339-.171 21.235 21.235 0 0 1-10.16-7.017 21.331 21.331 0 0 1-4.563-11.505 21.41 21.41 0 0 1 2.577-12.108 21.283 21.283 0 0 1 8.843-8.635 21.133 21.133 0 0 1 12.134-2.244 21.155 21.155 0 0 1 11.329 4.898 21.37 21.37 0 0 1 7.469 14.501 21.407 21.407 0 0 1-4.938 15.549z" fill="#403D56"/>
    <path opacity=".3" d="M100.353 64.348a21.358 21.358 0 0 1-7.378-13.623 21.384 21.384 0 0 1 3.769-15.037c-.409.41-.795.843-1.18 1.288a21.164 21.164 0 0 0-4.008 7.279 21.47 21.47 0 0 0-.93 8.27 21.668 21.668 0 0 0 2.292 7.996 21.439 21.439 0 0 0 5.176 6.504 21.056 21.056 0 0 0 7.254 4.021 21.033 21.033 0 0 0 8.241.923 21.287 21.287 0 0 0 7.969-2.313 21.384 21.384 0 0 0 7.548-6.572 21.263 21.263 0 0 1-14.143 6.265 21.151 21.151 0 0 1-14.61-5z" fill="#000"/>
</svg>
