<svg width="158" height="102" viewBox="0 0 158 102" fill="none" xmlns="http://www.w3.org/2000/svg">
<path d="M157.764 100.847H0V102H157.764V100.847Z" fill="#85848B"/>
<path d="M124.99 80.4902C124.99 81.3771 119.821 83.9624 113.681 83.9624C107.54 83.9624 102.756 81.3771 102.756 80.4902C102.756 79.6034 107.733 79.889 113.879 79.889C120.025 79.889 124.99 79.6019 124.99 80.4902Z" fill="#504F60"/>
<path opacity="0.2" d="M124.99 80.4902C124.99 81.3771 119.821 83.9624 113.681 83.9624C107.54 83.9624 102.756 81.3771 102.756 80.4902" fill="black"/>
<path d="M63.1535 64.2176C64.15 64.3454 65.1842 64.4266 66.1387 64.1169C66.289 64.0703 66.4543 63.9666 66.4393 63.8163C66.4285 63.7617 66.4054 63.7103 66.3717 63.666C66.0119 63.1264 65.7096 62.5505 65.4698 61.9479C65.4603 61.9165 65.4408 61.889 65.4142 61.8698C65.3831 61.8585 65.3491 61.8585 65.318 61.8698C64.8776 61.9855 64.4973 62.2696 64.0599 62.3913C63.8368 62.4525 63.6041 62.4699 63.3744 62.4425C63.176 62.4199 62.9055 62.2561 62.7251 62.2771C62.8273 62.934 63.0768 63.5472 63.1535 64.2176Z" fill="#6C63FF"/>
<path d="M82.0005 62.5536C82.6574 62.1027 83.3383 61.6292 83.7261 60.9332C83.7538 60.8916 83.7699 60.8434 83.7727 60.7935C83.7661 60.7443 83.7469 60.6977 83.7171 60.6582C83.3477 60.0709 82.8721 59.5576 82.3147 59.1445C82.0238 59.35 81.7611 59.5925 81.5331 59.866C81.3677 60.0404 80.9108 60.317 80.9062 60.583C80.9062 60.7333 81.0806 60.9077 81.1618 61.034C81.2715 61.1963 81.3752 61.3616 81.4744 61.53C81.5316 61.6127 82.0531 62.5205 82.0005 62.5536Z" fill="#6C63FF"/>
<path d="M67.06 66.2303C67.0718 66.3851 67.0292 66.5392 66.9398 66.6662C66.8696 66.7368 66.7827 66.7885 66.6872 66.8165C65.2939 67.3155 63.681 66.6932 62.2906 67.1848C62.005 67.2855 61.7345 67.4313 61.4474 67.5275C61.1051 67.6304 60.752 67.6929 60.3952 67.7138C59.9037 67.7604 59.4092 67.7905 58.9161 67.804C58.5415 67.8306 58.1651 67.7976 57.8008 67.7063C57.6187 67.6597 57.4484 67.5753 57.301 67.4585C57.1536 67.3417 57.0325 67.1951 56.9455 67.0284C56.87 66.879 56.8549 66.7062 56.9035 66.5459C56.9253 66.491 56.9563 66.4401 56.9952 66.3956C57.0894 66.2899 57.2 66.2001 57.3228 66.1296L57.8354 65.7989C58.0757 65.6289 58.3369 65.4905 58.6125 65.387C58.8154 65.3209 59.0304 65.2923 59.2363 65.2367C59.9563 65.0263 60.5064 64.4551 61.0175 63.9065L61.7149 63.1624C61.7801 63.0805 61.8628 63.0143 61.9569 62.9685C62.0537 62.9363 62.1565 62.9265 62.2576 62.94C62.935 62.9883 63.5892 63.2076 64.159 63.5773C64.3046 63.6865 64.4619 63.7793 64.628 63.8538C65.0368 64.0132 65.5614 63.8929 65.9387 63.6915C66.1176 63.5953 66.0785 63.5412 66.1536 63.3698C66.2288 63.1985 66.4122 63.0888 66.5715 63.2451C66.6196 63.2991 66.6536 63.3642 66.6707 63.4345C66.821 63.9305 66.7639 64.4641 66.7639 64.9842C66.7595 65.0655 66.7697 65.147 66.794 65.2247C66.8323 65.3031 66.8781 65.3776 66.9308 65.4472C66.9415 65.4656 66.951 65.4847 66.9593 65.5043C67.0513 65.7345 67.0858 65.9837 67.06 66.2303Z" fill="#514E7F"/>
<path d="M67.06 66.2305C67.0718 66.3854 67.0292 66.5395 66.9398 66.6664C66.8696 66.737 66.7827 66.7887 66.6872 66.8167C65.2939 67.3158 63.681 66.6935 62.2906 67.185C62.005 67.2857 61.7345 67.4315 61.4474 67.5277C61.1051 67.6306 60.752 67.6932 60.3952 67.7141C59.9037 67.7607 59.4092 67.7908 58.9161 67.8043C58.5415 67.8308 58.1651 67.7978 57.8008 67.7066C57.6187 67.6599 57.4484 67.5755 57.301 67.4587C57.1536 67.3419 57.0325 67.1954 56.9455 67.0287C56.87 66.8792 56.8549 66.7064 56.9035 66.5462C56.9253 66.4912 56.9563 66.4404 56.9952 66.3959C57.0763 66.5657 57.1349 66.7912 57.186 66.8723C57.2551 66.9926 57.349 67.0968 57.4615 67.1779C57.574 67.2591 57.7025 67.3153 57.8384 67.3428C58.0419 67.3553 58.2458 67.3293 58.4396 67.2662C59.7023 66.9535 61.0445 66.949 62.2576 66.4755C62.6739 66.3117 63.0707 66.0937 63.5082 65.9945C63.9456 65.8953 64.41 65.9224 64.861 65.8848C65.5734 65.8277 66.2634 65.6127 66.9653 65.5C67.056 65.7321 67.0885 65.9829 67.06 66.2305Z" fill="#464353"/>
<path d="M85.1924 62.4619C85.1263 62.991 84.7911 63.4465 84.4228 63.8328C84.0545 64.2191 83.6382 64.5663 83.3451 65.0112C82.9843 65.5629 82.822 66.2468 82.353 66.7127C82.173 66.8822 81.9707 67.0263 81.7518 67.1411C81.5065 67.2858 81.2471 67.4052 80.9777 67.4974C80.2772 67.7213 79.5226 67.6702 78.7906 67.6161C78.553 67.6138 78.3177 67.5685 78.0962 67.4823C77.9953 67.4311 77.8988 67.3718 77.8076 67.305C77.6241 67.192 77.4696 67.0375 77.3566 66.854C77.3012 66.7543 77.2856 66.6372 77.3131 66.5264C77.3549 66.4043 77.4267 66.2947 77.522 66.2077C77.6867 66.0364 77.8635 65.8772 78.0511 65.7312C78.3084 65.5651 78.5403 65.3626 78.7395 65.13C78.8617 64.9461 78.9517 64.7428 79.0056 64.5287C79.112 64.1537 79.1771 63.7681 79.1995 63.3788C79.1986 63.1202 79.2254 62.8622 79.2791 62.6092C79.3904 62.2124 79.685 61.8577 79.6519 61.4473C79.6385 61.3886 79.6438 61.3271 79.6669 61.2715C79.7019 61.228 79.7507 61.1978 79.8052 61.1858C80.0349 61.0942 80.2772 61.038 80.5237 61.0189C80.6474 61.0104 80.7714 61.0294 80.8868 61.0747C81.0022 61.1199 81.1062 61.1902 81.1911 61.2805C81.2933 61.4037 81.3609 61.5811 81.5113 61.6292C81.5857 61.6495 81.6639 61.6526 81.7397 61.6382C82.1095 61.6006 82.5003 61.5541 82.7919 61.3151C82.9267 61.1942 83.035 61.0467 83.11 60.8819C83.185 60.7171 83.2251 60.5386 83.2278 60.3576C83.2278 60.2208 83.1662 60.078 83.3781 60.0569C83.5375 60.0359 83.6637 60.2073 83.7449 60.3125C84.038 60.7048 84.3386 61.1151 84.4484 61.5931C84.491 61.5766 84.5364 61.5679 84.5821 61.5676C84.6759 61.5668 84.7684 61.5886 84.8519 61.6313C84.9354 61.6739 85.0074 61.7361 85.0616 61.8126C85.1813 62.0065 85.2277 62.2368 85.1924 62.4619Z" fill="#514E7F"/>
<path d="M85.1922 62.4619C85.1261 62.9909 84.7909 63.4464 84.4226 63.8327C84.0543 64.219 83.638 64.5662 83.3449 65.0111C82.9841 65.5628 82.8218 66.2467 82.3528 66.7127C82.1728 66.8821 81.9705 67.0262 81.7516 67.141C81.5063 67.2858 81.2469 67.4051 80.9775 67.4973C80.277 67.7213 79.5224 67.6701 78.7904 67.616C78.5528 67.6138 78.3175 67.5684 78.096 67.4823C77.9952 67.431 77.8986 67.3717 77.8074 67.3049C77.6239 67.1919 77.4694 67.0374 77.3564 66.854C77.4973 66.7862 77.6511 66.7493 77.8074 66.7457C78.1321 66.7638 78.3695 67.0704 78.6807 67.1651C79.1241 67.2989 79.566 66.9862 80.0155 66.8795C80.3086 66.8104 80.6167 66.8284 80.9068 66.7292C81.1486 66.6358 81.3719 66.5004 81.5667 66.3294C81.8336 66.1385 82.0711 65.9096 82.2716 65.65C82.4382 65.3903 82.5767 65.1136 82.685 64.8247C82.9223 64.2711 83.2017 63.7364 83.5207 63.2254C83.5679 63.1445 83.625 63.0698 83.6906 63.003C83.7612 62.9383 83.8409 62.8932 83.9206 62.8361C84.2212 62.6092 84.3459 62.2349 84.4512 61.8681C84.4797 61.7566 84.5195 61.6484 84.5699 61.5449C84.6637 61.5441 84.7562 61.566 84.8397 61.6086C84.9232 61.6513 84.9951 61.7135 85.0494 61.79C85.1787 61.9884 85.2296 62.2279 85.1922 62.4619Z" fill="#464353"/>
<path d="M53.6732 15.598C54.0473 15.8783 54.3552 16.2376 54.5751 16.6502C54.7855 17.062 55.9985 20.2577 55.9279 20.7221C56.3232 20.3238 57.8819 20.2592 58.2818 19.8608C58.4486 19.694 59.349 18.8613 59.4843 18.6674C59.6195 18.4735 60.6236 18.0661 60.7333 17.8617C61.1437 17.1267 57.8233 14.3414 58.2487 13.6154C58.2722 13.582 58.2844 13.542 58.2833 13.5011C58.2736 13.4669 58.2543 13.4361 58.2276 13.4125C57.9556 13.1344 57.5948 12.9615 57.2672 12.7556C56.9395 12.5497 56.6238 12.2626 56.5351 11.8838C56.2227 12.0276 55.9358 12.2216 55.6859 12.458C55.0766 12.9801 54.4779 13.5127 53.8897 14.0558C53.6597 14.2692 53.2148 14.5533 53.108 14.8585C52.9818 15.1861 53.4538 15.4191 53.6732 15.598Z" fill="#A1616A"/>
<path d="M59.0485 14.415C58.5391 14.7574 58.063 15.1469 57.6266 15.5784C57.2147 15.9858 56.8239 16.4578 56.7247 17.0275C56.6826 17.2514 56.6886 17.4784 56.6541 17.7054C56.5037 18.6899 55.653 19.4114 55.2772 20.3328C55.1683 20.6172 55.0883 20.9118 55.0382 21.2121C54.9326 21.7815 54.8748 22.3587 54.8653 22.9377C54.8563 23.4984 55.4065 23.8847 55.6079 24.4078C55.8093 24.9308 55.8634 25.469 55.9656 26.0056C56.158 27.0187 56.5113 27.9957 56.8675 28.9667C57.6085 31.014 60.0105 36.6732 60.7516 38.7219C63.0228 38.1523 69.0683 36.843 71.0795 35.6421C71.7499 35.2422 66.4273 30.7314 67.1443 30.4202C67.1853 30.4138 67.2242 30.398 67.2581 30.374C67.2919 30.35 67.3196 30.3185 67.3392 30.2819C67.3587 30.2453 67.3695 30.2046 67.3706 30.1632C67.3717 30.1217 67.3632 30.0805 67.3457 30.0429C66.6287 26.9074 64.3861 24.3311 63.3685 21.2783C63.0152 20.2186 62.3809 19.3137 61.8999 18.3066C61.464 17.3942 61.231 16.3856 60.7095 15.5183C60.6111 15.3396 60.4824 15.1794 60.3292 15.0448C60.1991 14.9451 60.0585 14.8599 59.9098 14.7908C59.6122 14.6465 59.3356 14.5608 59.0485 14.415Z" fill="#514E7F"/>
<path d="M53.7936 15.2416C55.7569 15.2416 57.3485 13.65 57.3485 11.6867C57.3485 9.72341 55.7569 8.13184 53.7936 8.13184C51.8303 8.13184 50.2388 9.72341 50.2388 11.6867C50.2388 13.65 51.8303 15.2416 53.7936 15.2416Z" fill="#A1616A"/>
<path d="M57.4102 13.3568C57.5873 13.1934 57.8099 13.0875 58.0484 13.0532C58.287 13.0188 58.5304 13.0576 58.7464 13.1644C58.9869 13.2892 59.1974 13.5417 59.1432 13.8062L60.9064 13.8333C61.187 13.8256 61.4676 13.8513 61.7421 13.9099C62.0185 13.9701 62.2651 14.1248 62.4396 14.3474C62.4606 14.3759 62.4847 14.4105 62.5208 14.415C62.5501 14.4155 62.5787 14.4059 62.6019 14.3879C62.8732 14.2519 63.1787 14.1996 63.4797 14.2376C64.4327 14.2993 65.3135 14.7757 66.0606 15.371C66.1953 15.4636 66.2998 15.5937 66.3612 15.7453C66.4228 15.9452 66.3492 16.1962 66.5115 16.339C66.5115 17.9924 67.0797 19.5376 67.4585 21.149C67.5261 21.4361 67.8012 21.6901 67.9921 21.9155C68.228 22.1655 68.4205 22.453 68.5618 22.7663C68.8835 23.602 68.44 24.5851 68.7527 25.4238C68.8849 25.7786 69.1405 26.0702 69.3539 26.3783C69.6353 26.7341 69.8132 27.1606 69.868 27.6109C69.8815 27.8123 69.856 28.0152 69.868 28.2121C69.8882 28.4829 69.9386 28.7507 70.0183 29.0103C70.1466 29.4953 70.2808 29.9798 70.4211 30.4638C70.6496 31.2454 70.9472 32.0886 71.6477 32.505C69.9567 32.7921 68.174 33.0732 66.5626 32.4855C66.3379 32.4088 66.1245 32.3021 65.9283 32.1683C65.3466 31.7534 65.0655 31.044 64.8145 30.3736C64.5349 29.622 64.2508 28.8569 64.1937 28.0573C64.1943 27.803 64.1583 27.5499 64.087 27.3057C63.9232 26.8698 63.4858 26.6068 63.0889 26.3648C62.6408 26.1192 62.2349 25.8036 61.8864 25.4298C61.7135 25.2416 61.5811 25.0199 61.4974 24.7784C61.4136 24.5369 61.3803 24.2808 61.3994 24.0259C61.4295 23.7779 61.5272 23.5389 61.5362 23.2894C61.5452 23.0399 61.434 22.7543 61.195 22.6882C59.964 22.3154 59.3762 20.8574 59.1027 19.6008C58.9846 18.9513 58.9317 18.2916 58.9448 17.6317L58.9283 16.3495C58.7584 16.195 58.6218 16.0074 58.5267 15.7984C58.4316 15.5893 58.38 15.3631 58.3752 15.1335C58.3915 14.9995 58.389 14.8639 58.3676 14.7307C58.3082 14.5678 58.2114 14.421 58.0851 14.3023C57.8133 14.0233 57.5857 13.7045 57.4102 13.3568Z" fill="#464353"/>
<path d="M53.6235 17.4214C53.5829 17.8182 53.6731 18.2255 53.5844 18.6149C53.5498 18.7652 53.4897 18.9155 53.4461 19.0553C53.3129 19.6156 53.3705 20.2044 53.61 20.7282C53.8491 21.2469 54.1354 21.7425 54.4652 22.2088C54.5768 22.368 54.6687 22.5401 54.7388 22.7214C54.7957 22.9117 54.831 23.1078 54.844 23.3061C54.9311 24.1021 55.0707 24.8914 55.2619 25.669C55.4302 26.3424 57.3422 32.0993 57.7871 32.6329C57.8679 32.7511 57.9903 32.8343 58.1298 32.8659C58.2305 32.8697 58.3305 32.8491 58.4215 32.8058L59.3233 32.4601C59.4 32.4366 59.4711 32.3977 59.5323 32.3458C59.6168 32.2471 59.6627 32.1211 59.6615 31.9911C59.7262 31.2576 57.8097 25.46 57.5662 24.7671C56.8296 22.6748 55.8496 20.6576 55.3701 18.4916C55.2363 17.8903 55.1657 16.9644 54.7253 16.4849C54.5434 16.2865 54.605 16.3707 54.3871 16.4744C54.2769 16.5222 54.1704 16.578 54.0684 16.6413C53.9408 16.7299 53.8347 16.846 53.7577 16.981C53.6807 17.116 53.6349 17.2664 53.6235 17.4214Z" fill="#464353"/>
<path d="M56.3611 21.391C56.6031 22.6702 56.8527 23.9463 57.1007 25.2255L60.63 24.3011C60.6585 23.9313 60.4616 23.5886 60.3294 23.2489C60.0077 22.4417 60.0002 21.5428 59.7401 20.7131C59.5432 20.0818 59.2005 19.5016 59.0156 18.8658C58.9089 18.496 58.8548 18.1142 58.7496 17.74C58.6367 17.3724 58.4981 17.0133 58.3347 16.6652C58.1366 16.1605 57.8782 15.6815 57.5651 15.2388C57.1142 15.4071 56.6332 15.6025 56.3762 16.0099C56.2443 16.2394 56.1691 16.497 56.1567 16.7614C56.0951 17.5536 56.3822 18.3502 56.2875 19.1379C56.1899 19.8879 56.2148 20.6489 56.3611 21.391Z" fill="#6C63FF"/>
<path d="M60.6882 38.406C60.8866 39.1575 60.5995 39.9482 60.365 40.6922C60.012 41.8129 59.7713 42.966 59.6465 44.1343C59.6312 44.4317 59.5714 44.725 59.4692 45.0046C59.3579 45.2557 59.1685 45.4676 59.0393 45.7066C58.6845 46.3349 58.6935 47.1015 58.7702 47.82C58.8213 48.2935 58.898 48.7654 58.9927 49.2314C59.1084 49.8011 59.2512 50.3963 59.0844 50.9525C59.3639 50.8908 59.5533 51.2531 59.5353 51.5372C59.5173 51.8213 59.4256 52.1384 59.5623 52.3834C59.9081 52.5097 59.9111 52.9847 59.9005 53.353C59.9063 53.9915 59.987 54.6272 60.141 55.2469C60.6641 57.7621 61.2193 60.2703 61.8065 62.7715C63.0766 63.1653 64.5602 63.5756 65.7717 63.03C65.9972 62.9293 66.2227 62.7685 66.2738 62.525C66.287 62.3937 66.2705 62.2612 66.2257 62.1372L65.6515 60.0478C65.5117 59.5428 65.3719 59.0212 65.4455 58.5026C65.5012 58.1163 65.6695 57.7 65.4801 57.3588C65.4155 57.2415 65.3133 57.1498 65.2381 57.0386C64.9375 56.5982 65.0953 56.009 65.1194 55.4754C65.1287 55.3556 65.1206 55.2351 65.0953 55.1176C65.0541 54.9804 64.9966 54.8487 64.924 54.7253C64.4494 53.804 64.2216 52.7756 64.2626 51.7401C64.2805 51.608 64.2624 51.4734 64.21 51.3508C64.1735 51.3002 64.1409 51.2469 64.1123 51.1915C64.0899 51.095 64.101 50.9937 64.1438 50.9044C63.9716 50.7737 63.8161 50.6222 63.6809 50.4534C63.7643 50.4016 63.8348 50.3315 63.8871 50.2485C63.9394 50.1654 63.9721 50.0715 63.9828 49.9739C63.9936 49.8764 63.982 49.7776 63.9489 49.6852C63.9159 49.5927 63.8623 49.509 63.7921 49.4403C63.8534 49.428 63.9101 49.3989 63.9559 49.3563C64.0016 49.3137 64.0347 49.2592 64.0513 49.1989C64.068 49.1387 64.0676 49.0749 64.0503 49.0149C64.0329 48.9548 63.9992 48.9007 63.9529 48.8586C63.8793 48.8075 63.7816 48.785 63.729 48.7083C63.6478 48.5971 63.714 48.4423 63.7801 48.3235L64.1303 47.6907C64.3919 47.2202 64.4505 46.6385 64.7316 46.1876C65.1344 45.5307 65.3974 44.7987 65.6575 44.0742L66.6691 41.2829L67.35 41.8736C67.5768 42.0469 67.7669 42.2636 67.9092 42.511C68.006 42.7555 68.0672 43.0126 68.091 43.2746C68.3406 44.7897 69.2935 46.1034 69.6468 47.596C69.7249 47.9282 69.7775 48.2769 69.9684 48.561C70.0367 48.6482 70.098 48.7407 70.1518 48.8376C70.2016 48.9854 70.2274 49.1401 70.2285 49.296C70.26 49.6013 70.3568 49.8963 70.5125 50.1608C70.6681 50.4254 70.8788 50.6533 71.1303 50.8292C71.4655 51.0592 71.8819 51.217 72.0638 51.5808C72.1001 51.6934 72.1507 51.801 72.2141 51.9009C72.3764 52.0963 72.7266 52.1189 72.7958 52.3639C72.8349 52.5007 72.7627 52.6645 72.8394 52.7848C72.8829 52.8404 72.9405 52.8835 73.0062 52.9095L73.9847 53.398C75.079 53.9452 75.6382 55.2018 76.4453 56.1172C76.7241 56.4153 76.9709 56.7418 77.1819 57.0912C77.5306 57.715 77.6914 58.4981 78.2807 58.8949C78.4391 58.9771 78.5832 59.0842 78.7075 59.2121C78.8924 59.4556 78.8248 59.7968 78.8413 60.1035C78.8579 60.4101 79.0923 60.7753 79.3839 60.6821C79.2818 61.0535 79.2818 61.4456 79.3839 61.817C80.6641 61.7512 81.885 61.2568 82.8501 60.4131C83.1357 60.1636 83.4108 59.8449 83.4138 59.4661C83.4182 59.4007 83.4036 59.3355 83.3717 59.2782C83.3139 59.2042 83.2377 59.1467 83.1508 59.1114C82.2354 58.6154 81.9603 57.4655 81.4973 56.532C81.093 55.7083 80.4948 54.9989 79.9942 54.2338C78.906 52.5879 78.1634 50.5962 76.5175 49.5095C76.1553 49.2705 75.7344 49.0585 75.5525 48.6632C75.4518 48.4423 75.4398 48.1897 75.3601 47.9613C75.2804 47.7328 75.0895 47.5103 74.846 47.5103C74.9813 47.1797 74.9543 46.7768 74.9633 46.4191C74.9725 46.2603 74.9542 46.1011 74.9092 45.9486C74.8466 45.7845 74.7654 45.6282 74.6672 45.4826C74.2377 44.7556 74.023 43.9217 74.0479 43.0776C74.0599 42.6432 74.1366 42.1953 74.0058 41.7805C73.9397 41.5715 73.8239 41.3806 73.7443 41.1792C73.6242 40.8142 73.5608 40.433 73.5564 40.0489L73.4662 38.6044C73.4526 38.1233 73.3901 37.6449 73.2798 37.1764C72.9792 36.0551 72.6785 31.3578 71.6489 30.8287C70.6193 30.2996 68.8501 33.9146 67.6912 33.9853C67.1785 34.0066 66.6719 34.1044 66.1881 34.2754C65.417 34.564 64.7706 35.1021 64.1408 35.6282L62.0094 37.4184C61.5585 37.7897 61.1857 38.1444 60.6882 38.406Z" fill="#464353"/>
<path d="M50.4583 7.73982C50.9273 7.09949 51.7329 6.75979 52.5266 6.73123C53.3202 6.70267 54.1019 6.95219 54.8128 7.30542C55.0227 7.42476 55.247 7.51669 55.4802 7.57899C55.856 7.65564 56.2739 7.55343 56.6136 7.7293C57.0645 7.96829 57.1517 8.57706 57.1126 9.0821C57.0735 9.58715 56.9788 10.1478 57.2479 10.5852C57.3433 10.71 57.4302 10.841 57.5079 10.9775C57.6237 11.2376 57.556 11.5382 57.4869 11.8133C57.311 11.663 57.2118 11.436 57.0555 11.2616C56.8992 11.0873 56.6271 10.97 56.4332 11.1008C56.2393 11.2316 56.2423 11.4691 56.2318 11.6825C56.2212 11.8959 56.1671 12.1515 55.9657 12.2206C55.8816 12.2398 55.7936 12.2332 55.7133 12.2019C55.6329 12.1705 55.5637 12.1158 55.5148 12.0447C55.1706 11.6239 55.3089 10.952 54.9676 10.5281C54.7737 10.2876 54.4506 10.1704 54.2717 9.91784C54.1304 9.71943 54.0943 9.4669 53.9711 9.25346C53.8478 9.04002 53.5607 8.88369 53.3698 9.031C53.3047 9.09324 53.2503 9.16588 53.209 9.24594C53.09 9.41645 52.9169 9.54183 52.7178 9.60184C52.5187 9.66184 52.3052 9.65296 52.1117 9.57663C51.9639 9.48589 51.804 9.41656 51.6367 9.3707C51.5273 9.36522 51.4184 9.39047 51.3225 9.44359C51.2266 9.49671 51.1475 9.5756 51.0941 9.67133C50.9862 9.86258 50.9342 10.0803 50.9438 10.2996C50.9438 10.6003 50.9979 10.9204 50.8266 11.1609C50.7614 11.2514 50.6798 11.3289 50.5861 11.3894C50.335 11.5502 49.9848 11.6584 49.7533 11.4751C49.6749 11.402 49.6165 11.31 49.5839 11.2078C49.5512 11.1057 49.5454 10.9969 49.5669 10.8919C49.612 10.6826 49.6713 10.4767 49.7443 10.2756C49.8766 9.80961 49.7037 9.28502 49.848 8.84611C49.9992 8.45084 50.2046 8.07851 50.4583 7.73982Z" fill="#464353"/>
<path d="M52.3628 18.3441C52.3402 18.4536 52.3518 18.5674 52.3959 18.6702C52.4406 18.7402 52.5014 18.7985 52.5733 18.8401C53.0787 19.155 53.6536 19.3413 54.2477 19.3827C54.3286 19.3841 54.4079 19.4047 54.4792 19.4428C54.6205 19.536 54.6295 19.7435 54.5769 19.9088C54.5068 20.0648 54.4704 20.2338 54.4702 20.4048C54.5138 20.719 54.8866 20.8558 55.2007 20.9024C55.6411 20.958 56.1236 20.9294 56.4723 20.6543C56.7086 20.4389 56.8886 20.169 56.9969 19.8682C57.8597 17.8856 58.1618 15.6941 59.0352 13.7175C59.1013 13.5884 59.1455 13.4492 59.1659 13.3056C59.1752 13.2337 59.165 13.1607 59.1364 13.0941C59.1079 13.0275 59.062 12.9697 59.0036 12.9268C58.8413 12.8261 58.5887 12.8832 58.479 12.7254C58.4249 12.6457 58.4309 12.5375 58.3828 12.4533C58.2821 12.2745 58.0175 12.303 57.8372 12.1993C57.6959 12.1242 57.5982 11.9693 57.4404 11.9393C57.3629 11.9349 57.2854 11.9486 57.2142 11.9794C57.143 12.0102 57.0799 12.0572 57.03 12.1166C56.5174 12.5946 56.2484 13.2725 55.9628 13.9129C55.5267 14.8944 55.0162 15.8411 54.4356 16.7447C54.5033 16.6395 54.1109 15.8429 53.9576 15.8083C53.6886 15.7542 53.3444 16.2262 53.1986 16.402C52.741 16.9568 52.4511 17.6304 52.3628 18.3441Z" fill="#6C63FF"/>
<path opacity="0.1" d="M57.8234 12.3389C57.7155 12.3407 57.6093 12.3667 57.5128 12.4151C57.4162 12.4635 57.3318 12.533 57.2658 12.6184C57.1049 12.8274 57.0734 13.104 57.0328 13.37C56.896 14.2129 56.5952 15.0208 56.1475 15.7479" fill="black"/>
<path opacity="0.1" d="M58.5901 12.939C58.4411 12.9423 58.2955 12.9844 58.1677 13.0611C58.0398 13.1378 57.9342 13.2464 57.8611 13.3764C57.7616 13.6128 57.6997 13.8633 57.6777 14.1189C57.5489 14.6855 57.3003 15.218 56.9487 15.6807" fill="black"/>
<path d="M94.3131 42.3245V40.4576C94.3127 39.0833 93.7664 37.7655 92.7945 36.7938C91.8226 35.8222 90.5046 35.2764 89.1303 35.2764H15.4039C14.0296 35.2764 12.7116 35.8222 11.7397 36.7938C10.7678 37.7655 10.2216 39.0833 10.2212 40.4576V43.8997L94.3131 42.3245Z" fill="#33323D"/>
<path d="M35.9142 33.088C35.9142 33.088 35.7037 46.1441 38.0185 50.44C40.3333 54.7359 41.3254 73.4241 41.3254 73.4241C41.3254 73.4241 65.5917 75.9343 82.5018 70.4179C99.4118 64.9015 135.393 62.6453 135.393 62.6453L129.33 21.777C129.33 21.777 99.3743 19.856 82.3334 27.9834C65.2926 36.1107 35.9142 33.088 35.9142 33.088Z" fill="#8DD070"/>
<path opacity="0.1" d="M35.9142 33.088C35.9142 33.088 35.7037 46.1441 38.0185 50.44C40.3333 54.7359 41.3254 73.4241 41.3254 73.4241C41.3254 73.4241 65.5917 75.9343 82.5018 70.4179C99.4118 64.9015 135.393 62.6453 135.393 62.6453L129.33 21.777C129.33 21.777 99.3743 19.856 82.3334 27.9834C65.2926 36.1107 35.9142 33.088 35.9142 33.088Z" fill="black"/>
<path d="M41.2846 37.8575C41.2846 37.8575 40.5255 48.6303 42.43 52.0724C44.3344 55.5146 44.4231 70.8809 44.4231 70.8809C44.4231 70.8809 66.2619 71.894 81.7966 66.6061C97.3313 61.3181 129.976 57.888 129.976 57.888L126.266 24.4662C126.266 24.4662 99.2553 24.1881 83.4906 31.6315C67.7259 39.075 41.2846 37.8575 41.2846 37.8575Z" fill="#8DD070"/>
<path opacity="0.1" d="M83.251 60.4869C86.3583 60.0998 88.2043 54.3835 87.3742 47.7191C86.5441 41.0547 83.3522 35.9659 80.2449 36.3529C77.1376 36.74 75.2916 42.4563 76.1217 49.1207C76.9518 55.7851 80.1437 60.8739 83.251 60.4869Z" fill="black"/>
<path opacity="0.2" d="M112.907 1.86865C112.907 1.86865 83.8051 9.23392 70.0816 22.1983C56.3582 35.1627 27.4683 41.3014 27.4683 41.3014C27.4683 41.3014 31.2742 53.7908 34.7945 57.1698C38.3148 60.5488 44.9916 78.0331 44.9916 78.0331C44.9916 78.0331 68.8566 72.9736 83.2564 62.5299C97.6563 52.0863 131.216 38.8964 131.216 38.8964L112.907 1.86865Z" fill="black"/>
<path d="M27.0308 39.4313C27.0308 39.4313 30.8351 51.9222 34.3524 55.3012C37.8697 58.6802 44.5496 76.1629 44.5496 76.1629C44.5496 76.1629 68.4176 71.1049 82.8189 60.6613C97.2203 50.2176 130.777 37.0323 130.777 37.0323L112.468 0C112.468 0 83.3676 7.36527 69.6441 20.3297C55.9207 33.294 27.0308 39.4313 27.0308 39.4313Z" fill="#8DD070"/>
<path opacity="0.1" d="M27.0308 39.4313C27.0308 39.4313 30.8351 51.9222 34.3524 55.3012C37.8697 58.6802 44.5496 76.1629 44.5496 76.1629C44.5496 76.1629 68.4176 71.1049 82.8189 60.6613C97.2203 50.2176 130.777 37.0323 130.777 37.0323L112.468 0C112.468 0 83.3676 7.36527 69.6441 20.3297C55.9207 33.294 27.0308 39.4313 27.0308 39.4313Z" fill="black"/>
<path d="M33.6006 42.3236C33.6006 42.3236 36.1844 52.8108 39.0539 55.5014C41.9233 58.192 46.7198 72.7872 46.7198 72.7872C46.7198 72.7872 67.8145 67.0483 80.9773 57.248C94.1401 47.4477 124.16 34.1797 124.16 34.1797L110.375 3.49805C110.375 3.49805 84.5833 11.5202 71.8624 23.4429C59.1415 35.3656 33.6006 42.3236 33.6006 42.3236Z" fill="#8DD070"/>
<path opacity="0.1" d="M80.491 50.9823C83.3296 49.6605 83.3325 43.6535 80.4974 37.5653C77.6624 31.4771 73.0629 27.6133 70.2243 28.9352C67.3856 30.257 67.3828 36.264 70.2178 42.3522C73.0529 48.4404 77.6524 52.3042 80.491 50.9823Z" fill="black"/>
<path opacity="0.1" d="M96.3031 44.157V96.0146C96.3031 96.6035 96.187 97.1867 95.9616 97.7308C95.7362 98.2749 95.4058 98.7692 94.9893 99.1856C94.5728 99.602 94.0783 99.9322 93.5341 100.157C92.9899 100.383 92.4067 100.499 91.8178 100.498H14.7079C13.519 100.498 12.3789 100.025 11.5383 99.1846C10.6978 98.3437 10.2256 97.2035 10.2256 96.0146V38.9292C12.4352 39.7499 12.4352 39.7499 14.7079 39.6808H91.8178C93.0058 39.6808 94.1453 40.1521 94.9862 40.9913C95.8271 41.8305 96.3007 42.969 96.3031 44.157Z" fill="black"/>
<path d="M96.3031 44.8172V96.6748C96.3027 97.8641 95.8299 99.0045 94.9888 99.8454C94.1477 100.686 93.0071 101.159 91.8178 101.159H14.7079C13.519 101.158 12.3789 100.686 11.5383 99.8447C10.6978 99.0039 10.2256 97.8637 10.2256 96.6748V39.5879C12.4352 40.4071 12.4352 40.4071 14.7079 40.3394H91.8178C93.0061 40.3394 94.1458 40.811 94.9867 41.6505C95.8276 42.49 96.3011 43.629 96.3031 44.8172Z" fill="#504F60"/>
<path opacity="0.1" d="M96.0837 63.9893V80.5731H80.0004C77.8206 80.5438 75.74 79.6573 74.2089 78.1054C72.6778 76.5536 71.8193 74.4612 71.8193 72.2812C71.8193 70.1012 72.6778 68.0088 74.2089 66.457C75.74 64.9051 77.8206 64.0186 80.0004 63.9893H96.0837Z" fill="black"/>
<path d="M96.303 63.5474V80.1343H80.2196C78.0398 80.1049 75.9592 79.2184 74.4281 77.6665C72.897 76.1147 72.0386 74.0223 72.0386 71.8423C72.0386 69.6623 72.897 67.57 74.4281 66.0181C75.9592 64.4663 78.0398 63.5797 80.2196 63.5504L96.303 63.5474Z" fill="#33323D"/>
<path opacity="0.1" d="M80.991 75.5152C82.7767 75.5152 84.2242 74.0677 84.2242 72.282C84.2242 70.4964 82.7767 69.0488 80.991 69.0488C79.2054 69.0488 77.7578 70.4964 77.7578 72.282C77.7578 74.0677 79.2054 75.5152 80.991 75.5152Z" fill="black"/>
<path d="M81.2107 75.0763C82.9964 75.0763 84.4439 73.6287 84.4439 71.8431C84.4439 70.0574 82.9964 68.6099 81.2107 68.6099C79.4251 68.6099 77.9775 70.0574 77.9775 71.8431C77.9775 73.6287 79.4251 75.0763 81.2107 75.0763Z" fill="#6C63FF"/>
<path d="M124.22 63.4046C124.348 64.7889 123.3 66.1327 123.606 67.4885C123.672 67.7786 123.796 68.0522 123.842 68.3453C123.968 69.151 123.488 69.9131 123.03 70.5865L119.092 76.3645C118.934 76.6185 118.745 76.8517 118.53 77.0589C117.778 77.7293 116.648 77.6601 115.659 77.86C114.963 78.0012 114.307 78.2915 113.735 78.7108C113.711 78.7313 113.695 78.7601 113.692 78.7914C113.689 78.8227 113.698 78.8541 113.717 78.8792C113.88 79.1017 114.097 79.2798 114.347 79.3972C114.597 79.5146 114.872 79.5675 115.148 79.5511C115.251 79.6878 115.148 79.8878 114.997 79.9855C114.785 80.1358 114.495 80.1718 114.453 80.5296C114.438 80.6544 114.463 80.7808 114.525 80.8903C114.684 81.1333 114.931 81.3052 115.214 81.3698C116.577 81.7862 118.05 81.0542 119.071 80.0576C120.091 79.061 120.823 77.8029 121.824 76.7883C122.379 76.2277 123.009 75.7467 123.58 75.2025C124.719 74.1173 125.605 72.7976 126.46 71.4763C126.717 71.078 126.976 70.6691 127.084 70.2077C127.192 69.7462 127.141 69.2803 127.263 68.8338C127.422 68.2476 127.85 67.7817 128.207 67.2901C128.906 66.3281 129.372 65.1512 129.28 63.9667C129.188 62.7823 128.453 61.6114 127.335 61.2085C126.988 61.0693 126.606 61.0461 126.245 61.1424C125.787 61.2837 125.448 61.6625 125.136 62.0247L124.384 62.889C124.197 63.0786 124.049 63.3034 123.948 63.5504C123.9 63.6744 123.889 63.8097 123.915 63.94C123.942 64.0703 124.006 64.1902 124.099 64.2854" fill="#FBBEBE"/>
<path opacity="0.05" d="M124.22 63.4046C124.348 64.7889 123.3 66.1327 123.606 67.4885C123.672 67.7786 123.796 68.0522 123.842 68.3453C123.968 69.151 123.488 69.9131 123.03 70.5865L119.092 76.3645C118.934 76.6185 118.745 76.8517 118.53 77.0589C117.778 77.7293 116.648 77.6601 115.659 77.86C114.963 78.0012 114.307 78.2915 113.735 78.7108C113.711 78.7313 113.695 78.7601 113.692 78.7914C113.689 78.8227 113.698 78.8541 113.717 78.8792C113.88 79.1017 114.097 79.2798 114.347 79.3972C114.597 79.5146 114.872 79.5675 115.148 79.5511C115.251 79.6878 115.148 79.8878 114.997 79.9855C114.785 80.1358 114.495 80.1718 114.453 80.5296C114.438 80.6544 114.463 80.7808 114.525 80.8903C114.684 81.1333 114.931 81.3052 115.214 81.3698C116.577 81.7862 118.05 81.0542 119.071 80.0576C120.091 79.061 120.823 77.8029 121.824 76.7883C122.379 76.2277 123.009 75.7467 123.58 75.2025C124.719 74.1173 125.605 72.7976 126.46 71.4763C126.717 71.078 126.976 70.6691 127.084 70.2077C127.192 69.7462 127.141 69.2803 127.263 68.8338C127.422 68.2476 127.85 67.7817 128.207 67.2901C128.906 66.3281 129.372 65.1512 129.28 63.9667C129.188 62.7823 128.453 61.6114 127.335 61.2085C126.988 61.0693 126.606 61.0461 126.245 61.1424C125.787 61.2837 125.448 61.6625 125.136 62.0247L124.384 62.889C124.197 63.0786 124.049 63.3034 123.948 63.5504C123.9 63.6744 123.889 63.8097 123.915 63.94C123.942 64.0703 124.006 64.1902 124.099 64.2854" fill="black"/>
<path d="M127.201 99.0434C126.341 99.568 125.27 99.5995 124.27 99.4778C124.109 99.4582 123.918 99.4462 123.819 99.571C123.669 99.7514 123.846 100.022 124.03 100.162C124.619 100.604 125.312 100.889 126.042 100.99C126.694 101.082 127.353 101.126 128.011 101.121C129.815 101.152 131.619 101.182 133.394 100.924C133.499 100.916 133.602 100.886 133.695 100.837C133.809 100.756 133.889 100.635 133.917 100.498C134.039 100.035 133.804 99.5394 133.45 99.2178C133.095 98.8961 132.639 98.7172 132.195 98.5444L130.631 97.9356C130.265 97.7928 129.677 97.414 129.278 97.4441C128.53 97.4982 127.822 98.6796 127.201 99.0434Z" fill="#3F3D56"/>
<path opacity="0.05" d="M127.201 99.0434C126.341 99.568 125.27 99.5995 124.27 99.4778C124.109 99.4582 123.918 99.4462 123.819 99.571C123.669 99.7514 123.846 100.022 124.03 100.162C124.619 100.604 125.312 100.889 126.042 100.99C126.694 101.082 127.353 101.126 128.011 101.121C129.815 101.152 131.619 101.182 133.394 100.924C133.499 100.916 133.602 100.886 133.695 100.837C133.809 100.756 133.889 100.635 133.917 100.498C134.039 100.035 133.804 99.5394 133.45 99.2178C133.095 98.8961 132.639 98.7172 132.195 98.5444L130.631 97.9356C130.265 97.7928 129.677 97.414 129.278 97.4441C128.53 97.4982 127.822 98.6796 127.201 99.0434Z" fill="black"/>
<path d="M128.297 78.2914C127.646 79.1572 126.973 80.1568 127.133 81.2285C127.221 81.8057 127.544 82.3152 127.781 82.8488C128.103 83.5733 128.271 84.352 128.437 85.1276C128.68 86.2609 128.925 87.3973 129.074 88.5487C129.244 89.8489 128.446 93.6112 128.372 94.9204C128.354 95.236 128.316 95.5772 128.097 95.8042C128.011 95.8944 127.897 95.9666 127.858 96.0838C127.835 96.1968 127.854 96.3142 127.911 96.4145C128.277 97.2412 129.027 97.8575 129.865 98.2092C130.702 98.5609 132.721 99.1682 133.633 99.1998C133.753 99.213 133.875 99.197 133.988 99.1532C134.109 99.0791 134.205 98.9694 134.261 98.839C134.915 97.5884 134.287 93.1422 134.296 91.7308C134.305 90.5538 134.583 89.3844 134.532 88.209C134.49 87.265 134.231 86.3421 134.145 85.4011C133.995 83.8589 134.278 82.3092 134.562 80.7851C134.778 79.6156 134.996 78.4462 135.274 77.2918C135.444 76.5869 135.641 75.8759 136.026 75.2641C136.327 74.7786 136.749 74.3728 137.099 73.9113C138.071 72.6368 138.503 71.0312 138.302 69.4411C138.281 69.2907 136.047 70.0077 135.85 70.0934C135.047 70.4336 134.307 70.9089 133.665 71.4988C133.147 71.9918 132.74 72.6502 132.288 73.2018C131.647 73.9825 131.015 74.7686 130.391 75.5602C129.678 76.4651 128.98 77.3755 128.297 78.2914Z" fill="#464353"/>
<path opacity="0.05" d="M128.297 78.239C127.646 79.1048 126.973 80.1058 127.133 81.1761C127.221 81.7548 127.544 82.2643 127.781 82.7979C128.103 83.5209 128.271 84.301 128.437 85.0751C128.68 86.21 128.925 87.3464 129.074 88.4962C129.244 89.7979 128.446 93.5587 128.372 94.868C128.354 95.1836 128.316 95.5263 128.097 95.7533C128.011 95.842 127.897 95.9141 127.858 96.0314C127.835 96.1443 127.854 96.2618 127.911 96.362C128.277 97.1903 129.027 97.805 129.865 98.1658C130.702 98.5265 132.721 98.8407 133.633 98.8708C133.753 98.884 133.875 98.868 133.988 98.8242C134.109 98.7511 134.205 98.6417 134.261 98.5115C134.915 97.2609 134.287 93.1003 134.296 91.6874C134.305 90.5089 134.583 89.341 134.532 88.1641C134.49 87.2201 134.231 86.2972 134.145 85.3577C133.995 83.814 134.278 82.2643 134.562 80.7402C134.778 79.5722 134.996 78.4028 135.274 77.2469C135.444 76.542 135.641 75.831 136.026 75.2192C136.327 74.7337 136.749 74.3279 137.099 73.8664C138.071 72.5921 138.503 70.9863 138.302 69.3961C138.281 69.2458 136.047 69.9628 135.85 70.0485C135.047 70.3898 134.308 70.8656 133.665 71.4554C133.147 71.9469 132.74 72.6053 132.288 73.1569C131.647 73.9376 131.015 74.7242 130.391 75.5168C129.678 76.4147 128.98 77.3221 128.297 78.239Z" fill="black"/>
<path d="M121.055 59.2229C123.07 59.2229 124.703 57.5896 124.703 55.5748C124.703 53.5601 123.07 51.9268 121.055 51.9268C119.041 51.9268 117.407 53.5601 117.407 55.5748C117.407 57.5896 119.041 59.2229 121.055 59.2229Z" fill="#FBBEBE"/>
<path d="M124.34 55.4213C124.677 55.9589 125.119 56.4231 125.64 56.7862C126.16 57.1493 126.748 57.4038 127.369 57.5346L127.094 58.5342C126.619 60.2508 126.085 62.0665 124.76 63.257C124.91 62.6753 124.718 62.0545 124.39 61.5495C124.062 61.0444 123.602 60.6476 123.151 60.2553L121.051 58.4365C120.991 58.3872 120.94 58.327 120.901 58.2591C120.849 58.1309 120.849 57.9876 120.901 57.8593C121.169 57.0266 121.932 56.5065 122.555 55.9443C122.867 55.6536 123.146 55.329 123.386 54.9763C123.805 54.3781 124.065 54.9793 124.34 55.4213Z" fill="#FBBEBE"/>
<path d="M116.249 51.9072L116.167 51.2218C116.742 51.3721 117.289 50.8821 117.658 50.3755C118.026 49.869 118.367 49.2723 118.928 49.0603C119.609 48.8048 120.33 49.2106 120.981 49.5533C121.71 49.9577 122.509 50.2179 123.336 50.3199C123.468 50.3243 123.599 50.3455 123.726 50.3831C124.15 50.5334 124.351 51.0655 124.413 51.548C124.474 52.0305 124.458 52.543 124.667 52.9729C124.817 53.2991 125.097 53.5411 125.268 53.8628C125.719 54.7256 125.283 55.9055 125.753 56.7518L124.584 55.68C124.477 55.5823 124.327 55.4801 124.208 55.5628C124.115 55.6289 124.108 55.7717 124.07 55.886C123.957 56.2197 123.539 56.3189 123.237 56.1866C122.935 56.0543 122.714 55.7672 122.486 55.5057C121.969 54.8954 121.352 54.3588 120.631 54.0988C120.315 53.9805 119.977 53.9309 119.64 53.9532C119.303 53.9755 118.975 54.0692 118.677 54.228C118.131 54.5362 117.731 55.2547 117.062 55.2802C116.146 55.3148 115.764 53.6072 115.34 52.9323C115.495 52.8156 115.604 52.6481 115.648 52.459C115.692 52.2699 115.668 52.0714 115.58 51.8982C115.642 51.8726 116.236 51.802 116.249 51.9072Z" fill="#464353"/>
<path d="M71.1275 30.5792C70.8344 30.8399 70.5634 31.1245 70.3174 31.43C70.0697 31.7397 69.9378 32.1262 69.9446 32.5228C69.9459 32.6378 69.9826 32.7496 70.0498 32.8429C70.0841 32.8876 70.1315 32.9205 70.1854 32.9369C70.2393 32.9533 70.297 32.9525 70.3504 32.9346C70.4108 32.9038 70.4625 32.8583 70.5007 32.8023C70.6596 32.6114 70.8282 32.4288 71.0058 32.2552C71.0704 32.1906 71.1561 32.1229 71.2433 32.147C71.2824 32.1609 71.3175 32.1841 71.3455 32.2146C71.4466 32.302 71.5202 32.4169 71.5574 32.5453C71.61 32.7753 71.4763 33.0053 71.3244 33.1856C71.1726 33.366 70.9938 33.5389 70.9321 33.7658C70.9088 33.8258 70.9088 33.8923 70.9321 33.9522C70.9612 33.9956 71.0018 34.03 71.0494 34.0514C71.2646 34.1699 71.5033 34.2397 71.7485 34.2558C71.9937 34.2719 72.2394 34.234 72.4683 34.1446C72.7689 34.0229 73.0365 33.8139 73.3461 33.7057C73.4802 33.669 73.6102 33.6187 73.7339 33.5554C73.8225 33.4965 73.8985 33.4205 73.9576 33.3321C74.0167 33.2436 74.0577 33.1442 74.0782 33.0398C74.1172 32.8312 74.1248 32.6179 74.1007 32.407C74.0632 31.5905 73.8884 30.7861 73.5836 30.0276C73.566 29.9787 73.5359 29.9352 73.4965 29.9013C73.4512 29.8738 73.3991 29.8597 73.3461 29.8607C72.9613 29.8202 72.33 29.6233 71.9588 29.7661C71.8289 29.8372 71.7169 29.9369 71.6311 30.0577C71.5619 30.1343 71.1275 30.4785 71.1275 30.5792Z" fill="#A1616A"/>
<path d="M71.0058 30.2395C71.0058 29.8727 70.5549 28.9874 71.2719 28.9288C71.2719 28.5365 70.7172 28.293 70.8209 27.8766C70.854 27.7383 70.9713 27.6256 70.9848 27.4843C71.0299 27.0829 70.3054 26.865 70.4256 26.4802C70.4707 26.3299 70.63 26.2427 70.6646 26.0939C70.7458 25.7467 70.125 25.5919 70.113 25.2356C70.113 25.1154 70.1806 25.0026 70.1746 24.8824C70.1746 24.7321 70.0438 24.6178 69.9717 24.4871C69.7838 24.1519 69.8755 23.6333 69.5328 23.4604C69.7597 23.48 69.8334 23.1433 69.7402 22.9373C69.647 22.7314 69.4561 22.5525 69.4546 22.3241C69.4659 22.2413 69.4659 22.1573 69.4546 22.0746C69.3915 21.8551 69.0322 21.8371 68.9721 21.6236C68.9643 21.5417 68.9618 21.4594 68.9646 21.3771C68.9405 21.2073 68.7662 21.099 68.6023 21.0509C68.4321 21.022 68.2683 20.9635 68.1183 20.8781C68.0131 20.7984 67.8914 20.6661 67.7786 20.7278C67.7365 20.7533 67.7155 20.8014 67.6839 20.8375C67.5487 20.9953 67.2901 20.9262 67.1203 20.8104C66.6182 20.4692 66.3687 19.8575 66.262 19.2607C66.1553 18.664 66.1583 18.0477 66.0245 17.457C65.9837 17.2729 65.9294 17.092 65.8622 16.9159C65.805 16.7656 65.6217 16.5296 65.6096 16.3777C65.5826 16.032 66.2981 16.268 66.5701 16.3026C66.8343 16.3284 67.0954 16.3787 67.3502 16.4529C67.6222 16.5557 67.8886 16.6726 68.1484 16.8031C69.2337 17.2826 70.5444 17.3412 71.4162 18.1469C71.7033 18.4115 71.9453 18.7587 72.318 18.8789C72.489 18.9117 72.6577 18.9554 72.8231 19.0097C73.2364 19.2036 73.3011 19.7522 73.5265 20.1491C73.5974 20.2539 73.6593 20.3645 73.7114 20.4798C73.7549 20.6157 73.7752 20.758 73.7716 20.9006L73.8031 21.9423C73.8542 23.6874 73.9053 25.437 73.719 27.1716C73.6588 27.7443 73.5686 28.3335 73.7385 28.8837C73.7836 29.034 73.8467 29.1753 73.8888 29.3271C73.926 29.5051 73.9451 29.6864 73.9459 29.8682L73.97 30.5431C73.9783 30.5956 73.9665 30.6493 73.9369 30.6934C73.9118 30.7138 73.8824 30.7283 73.8509 30.7359C73.8194 30.7434 73.7867 30.7438 73.755 30.737C72.8156 30.6528 71.8656 30.1237 70.9788 30.4439" fill="#464353"/>
<path d="M113.878 82.0975C120.018 82.0975 124.995 81.3781 124.995 80.4906C124.995 79.6032 120.018 78.8838 113.878 78.8838C107.738 78.8838 102.761 79.6032 102.761 80.4906C102.761 81.3781 107.738 82.0975 113.878 82.0975Z" fill="#504F60"/>
<path d="M123.442 80.5686C123.247 79.7313 123.125 78.9963 123.125 78.9963C123.125 78.9963 123.17 78.0854 122.761 77.4015V77.173V75.4895C122.878 75.1839 123.02 74.8887 123.187 74.6072C123.487 74.0781 123.187 72.1391 123.187 72.1391C123.187 72.1391 122.064 69.4049 122.336 67.6703C122.608 65.9357 120.03 59.9684 120.03 59.9684C120.046 59.3929 120.127 58.821 120.272 58.2638C120.299 58.1467 120.311 58.0263 120.305 57.9061C120.305 57.8911 120.305 57.8775 120.305 57.8625C120.305 57.8475 120.305 57.8715 120.305 57.876C120.266 56.7321 119.361 54.5887 119.361 54.5887L119.483 50.5032C119.483 50.5032 120.06 48.0982 119.119 44.859C118.79 43.7302 118.579 42.8268 118.446 42.1294C118.431 42.0512 118.416 41.9791 118.404 41.9024C120.341 41.6018 121.822 41.3613 121.822 41.3613C121.822 41.3613 120.697 36.658 119.938 35.8343C119.179 35.0106 118.572 32.4237 118.572 32.4237C118.572 32.4237 118.177 29.1034 118.815 28.1323C119.454 27.1613 119.544 25.4869 119.544 25.4869C119.544 25.4869 121.001 24.4347 121.184 23.9582C121.368 23.4817 121.67 22.4295 121.67 21.8719C121.67 21.3142 121.488 20.8197 121.548 20.5191C121.608 20.2184 121.123 19.1076 121.366 18.5785C121.429 18.416 121.462 18.2433 121.462 18.069C121.463 18.064 121.463 18.0589 121.462 18.0539C121.465 17.5909 121.422 17.1288 121.335 16.6741C120.913 16.3183 120.422 16.0555 119.892 15.903L119.86 15.7767L119.777 15.446C119.731 15.4155 119.684 15.3874 119.635 15.3619V15.2416L119.621 14.7636L119.85 13.6904C120.301 11.8235 117.807 11.5455 117.807 11.5455C117.656 11.2591 117.404 11.0386 117.1 10.9262C116.6 10.7503 117.018 13.734 117.251 13.9324C117.427 14.0827 117.971 15.0116 118.234 15.4716L118.276 15.5467C118.235 15.5838 118.196 15.624 118.162 15.667L118.256 16.3148L118.271 16.414C118.106 16.6193 117.972 16.8477 117.873 17.092C117.873 17.092 118.324 17.591 118.238 18.1441C118.153 18.6973 118.378 19.3992 118.389 19.4368C118.361 19.4052 118.041 19.0595 117.721 19.1437C117.401 19.2279 116.507 19.4969 116.507 19.4969C116.507 19.4969 115.839 19.6142 115.905 19.7615C115.972 19.9088 115.454 20.5551 115.454 20.5551L113.66 18.8536C113.642 18.8025 113.622 18.7514 113.607 18.7033C113.534 18.458 113.484 18.2064 113.457 17.9517C113.652 17.9053 113.844 17.8445 114.031 17.7699C114.22 17.7051 114.39 17.5958 114.527 17.4512C114.709 17.2363 114.743 16.9446 114.817 16.6771C114.958 16.154 115.268 15.6895 115.483 15.192C115.847 14.3513 115.964 13.4244 115.821 12.5195C115.794 12.2406 115.699 11.9725 115.546 11.7379C115.253 11.335 114.721 11.1712 114.335 10.8495C113.948 10.5278 113.699 10.0363 113.248 9.79733C112.841 9.57938 112.346 9.60493 111.886 9.68008C110.988 9.82822 110.125 10.1422 109.341 10.606C109.08 10.7563 108.791 10.9412 108.491 10.8856C108.232 10.839 108.04 10.6331 107.877 10.4346C107.879 10.4264 107.882 10.4184 107.885 10.4106C107.877 10.4033 107.871 10.3952 107.865 10.3865C107.675 10.8087 107.58 11.2674 107.586 11.7303C107.586 11.8025 107.586 11.8806 107.595 11.9453V12.0204C107.595 12.0415 107.595 12.0625 107.595 12.0821C107.595 12.1141 107.59 12.146 107.581 12.1768C107.543 12.2687 107.486 12.3513 107.413 12.4188C107.358 12.4814 107.307 12.5483 107.262 12.6187C107.262 12.5946 107.278 12.5706 107.287 12.545C107.172 12.7124 107.107 12.9089 107.1 13.1117C107.092 13.2593 107.14 13.4045 107.235 13.5175C107.325 13.6049 107.424 13.6835 107.529 13.752C107.493 13.9505 107.475 14.1517 107.474 14.3533C107.478 14.951 107.635 15.5377 107.932 16.0567C108.228 16.5757 108.654 17.0094 109.167 17.3159C109.188 17.3655 109.208 17.4166 109.227 17.4662C109.457 18.0675 109.63 18.7739 109.553 19.4203C109.553 19.4669 109.54 19.515 109.532 19.5616C109.525 19.6082 109.487 19.6112 109.468 19.6367C109.468 19.6367 106.502 19.6668 105.804 19.0355C105.107 18.4042 104.043 20.5792 104.043 20.5792C104.043 20.5792 102.98 20.7851 102.767 20.5792C102.553 20.3733 101.31 20.5506 101.31 20.5506C100.801 20.0977 100.138 19.8558 99.4568 19.8742C99.044 19.5605 98.5884 19.3074 98.104 19.1227L98.0709 19.1106C97.8571 19.0327 97.6285 19.0039 97.402 19.0265C97.402 19.0265 95.944 17.824 95.5186 17.1746C95.0932 16.5253 93.0686 14.1278 93.0595 14.1173V14.0015L93.037 13.6528C92.9768 13.6623 92.916 13.6673 92.8551 13.6679C92.8446 13.6333 92.8296 13.5927 92.8145 13.5461C92.6979 13.206 92.5541 12.8757 92.3846 12.5586C92.3846 12.5586 92.3846 12.1181 92.5124 12.0069C92.6402 11.8957 92.4598 10.2798 92.4598 10.2798C92.4598 10.2798 91.1461 7.20896 89.9691 9.50121C89.9691 9.50121 87.7445 10.9848 89.6114 12.7134C89.6114 12.7134 90.3629 13.0741 90.4621 13.3597C90.5313 13.5446 90.7838 14.0632 90.9537 14.4119L91.0303 14.5622L91.0093 14.5802L91.0363 14.8688L91.0484 14.9801C90.6966 15.18 90.4576 15.3784 90.5163 15.5272C90.6198 15.7819 90.691 16.0485 90.7282 16.3209C90.7282 16.3209 93.3106 19.5556 93.6442 20.9369C93.6442 20.9369 100.569 25.0525 102.846 25.3456L102.443 27.3973C102.385 27.9541 102.355 28.5135 102.353 29.0733C102.383 29.5137 102.08 31.5129 102.08 31.5129C102.08 31.5129 101.684 34.453 101.351 34.8648C101.017 35.2767 101.077 37.0398 101.077 37.0398C100.998 37.8839 100.848 38.7197 100.626 39.538C100.293 40.6548 100.535 42.0377 100.535 42.0377C100.535 42.0377 99.3816 44.6832 102.144 42.8899C102.144 42.8899 103.497 42.8058 105.063 42.7517C105.063 42.8028 105.063 42.8554 105.063 42.902C105.063 43.1034 105.063 43.3213 105.053 43.5498C105.032 45.065 105.023 47.1573 105.092 48.7326C105.214 51.5254 106.065 57.0523 106.065 57.0523V59.8346C106.01 60.0955 105.982 60.3616 105.983 60.6282C105.965 61.6072 106.226 62.571 106.735 63.4075L106.948 65.2593C106.948 65.2593 107.447 66.4799 107.456 67.2134C107.454 67.2725 107.447 67.3313 107.435 67.3892C107.416 67.4826 107.408 67.578 107.411 67.6733C107.383 68.5151 107.889 70.5293 107.889 70.5293C107.889 70.5293 107.919 72.557 108.223 72.6757C108.483 72.7764 107.876 73.8436 107.695 74.1503C107.691 74.1315 107.687 74.1124 107.685 74.0931L107.647 74.1533C107.585 74.3174 107.553 74.4916 107.553 74.6673C107.535 74.8058 107.558 74.9463 107.618 75.0724C107.677 75.1985 107.771 75.3051 107.889 75.3798C108.466 75.733 108.776 76.0262 108.286 76.1434C108.106 76.1714 107.927 76.209 107.751 76.2561C107.751 76.2336 107.733 76.2095 107.725 76.1885C107.656 76.2155 107.599 76.2656 107.562 76.3302C107.526 76.3949 107.513 76.4701 107.526 76.5432C107.53 76.7817 107.591 77.0156 107.704 77.2256C108.19 78.3139 108.527 78.7288 108.527 78.7288L108.76 78.7032C108.725 78.7922 108.68 78.8766 108.624 78.9542C108.536 79.0803 108.418 79.1834 108.282 79.2549C108.154 79.331 108.012 79.3797 107.865 79.3977C107.701 79.403 107.539 79.443 107.391 79.515C107.243 79.587 107.111 79.6894 107.005 79.8155C106.705 80.2078 106.512 80.7414 107.111 81.2104L109.283 81.962C109.283 81.962 113.019 82.4475 112.821 81.6087C112.623 80.77 112.502 80.0365 112.502 80.0365C112.518 79.5244 112.415 79.0155 112.202 78.5499C112.163 78.4739 112.118 78.4006 112.069 78.3304L112.202 78.3169C112.202 78.3169 112.475 76.4636 112.839 76.1118C112.923 76.0307 112.943 75.9615 112.923 75.9194C112.961 75.8187 112.865 75.7601 112.743 75.7255L112.716 75.7992C112.597 75.7732 112.475 75.7596 112.354 75.7586C112.354 75.7586 112.232 74.7891 112.627 74.4359C112.659 74.3956 112.682 74.3492 112.695 74.2995C112.709 74.2499 112.711 74.1981 112.704 74.1473C112.707 74.0142 112.693 73.8814 112.662 73.7519C112.658 73.7603 112.653 73.7683 112.648 73.776C112.45 72.8952 111.776 71.4958 111.776 71.4958C111.776 71.4958 111.746 70.6149 111.99 70.2617C112.233 69.9085 111.958 65.4698 111.958 65.4698C111.958 65.4698 112.05 63.3248 111.776 62.3252C111.503 61.3257 112.11 60.1487 112.11 60.1487C112.11 60.1487 112.11 60.1262 112.11 60.0856V60.0706L112.075 59.7324C112.075 59.7394 112.075 59.7464 112.075 59.7534C112.014 59.1852 111.898 58.1556 111.812 57.6806C111.691 57.0042 111.844 53.7725 111.844 53.7725L112.39 52.3896L113.362 54.7721L114.395 57.9467C114.395 57.9467 114.906 58.6171 114.918 59.2995C114.918 59.3325 114.918 59.3656 114.918 59.3987C114.91 59.469 114.906 59.5398 114.906 59.6106C114.888 60.0117 114.998 60.4082 115.22 60.7425C115.22 60.7425 115.494 62.2456 115.919 62.6229C116.344 63.0001 116.344 63.7397 116.344 63.7397C116.344 63.7397 116.86 65.9162 117.096 66.295C117.3 66.6166 117.311 67.4975 117.309 67.7725C117.309 67.8221 117.309 67.8507 117.309 67.8507C117.309 67.8507 117.381 68.6293 117.378 69.2817C117.378 69.3628 117.378 69.441 117.378 69.5147C117.379 69.5092 117.379 69.5036 117.378 69.4981C117.378 69.6764 117.357 69.854 117.315 70.0272L117.306 70.0573C117.306 70.0197 117.306 69.9836 117.317 69.9476C117.211 70.3906 117.161 70.845 117.167 71.3004C117.153 72.082 117.272 73.0079 117.745 73.555C118.566 74.496 119.081 74.3787 119.081 74.3787C119.081 74.3787 118.688 75.5542 118.201 75.7902C118.182 75.7989 118.165 75.81 118.15 75.8232C118.15 75.7992 118.141 75.7766 118.138 75.7541C118.083 75.8127 118.042 75.8821 118.016 75.9576C117.99 76.0332 117.98 76.1134 117.987 76.193C117.953 76.7101 118.279 77.5458 118.588 77.9351C118.703 78.0477 118.844 78.1303 118.999 78.1756C118.974 78.1929 118.949 78.2085 118.922 78.2222C118.868 78.2519 118.812 78.2785 118.755 78.3019C118.676 78.3355 118.593 78.3572 118.507 78.3665C118.342 78.3709 118.181 78.4105 118.032 78.4825C117.884 78.5546 117.753 78.6575 117.648 78.7844C117.347 79.1752 117.154 79.7088 117.753 80.1778L119.925 80.9293C119.925 80.9293 123.637 81.4058 123.442 80.5686Z" fill="url(#paint0_linear)"/>
<path d="M109.176 81.9575L107.072 81.2059C106.492 80.737 106.676 80.2033 106.969 79.811C107.07 79.6859 107.197 79.5839 107.341 79.5118C107.484 79.4397 107.642 79.3993 107.802 79.3932C107.945 79.375 108.082 79.3263 108.204 79.2504C108.337 79.1779 108.451 79.0749 108.537 78.9497C108.691 78.7061 108.774 78.4245 108.776 78.1366C108.776 78.1366 111.085 77.4602 111.716 78.1366C111.829 78.259 111.923 78.3972 111.996 78.5469C112.206 79.0138 112.308 79.5218 112.297 80.0335C112.297 80.0335 112.414 80.767 112.605 81.6058C112.796 82.4445 109.176 81.9575 109.176 81.9575Z" fill="#2D293D"/>
<path d="M119.463 80.9205L117.359 80.1689C116.779 79.6999 116.963 79.1663 117.257 78.7755C117.357 78.6499 117.483 78.5475 117.626 78.4754C117.77 78.4032 117.927 78.3631 118.088 78.3576C118.171 78.3491 118.252 78.3273 118.328 78.293C118.384 78.2695 118.438 78.2429 118.491 78.2133C119.078 77.8902 119.063 77.0965 119.063 77.0965C119.063 77.0965 121.371 76.4201 122.003 77.0965C122.088 77.1881 122.162 77.289 122.224 77.3971C122.62 78.0811 122.576 78.9935 122.576 78.9935C122.576 78.9935 122.693 79.7285 122.877 80.5657C123.06 81.4029 119.463 80.9205 119.463 80.9205Z" fill="#2D293D"/>
<path opacity="0.1" d="M111.718 78.135C111.83 78.2574 111.924 78.3957 111.997 78.5454L108.54 78.9467C108.694 78.703 108.776 78.4215 108.779 78.1335C108.779 78.1335 111.086 77.4586 111.718 78.135Z" fill="black"/>
<path opacity="0.1" d="M122.227 77.4001V78.0479C121.689 78.9333 119.087 78.7394 118.331 78.2959C118.387 78.2725 118.441 78.2459 118.493 78.2163C119.081 77.8931 119.066 77.0995 119.066 77.0995C119.066 77.0995 121.373 76.423 122.006 77.0995C122.091 77.1911 122.165 77.2919 122.227 77.4001Z" fill="black"/>
<path d="M122.638 74.607C122.477 74.8893 122.339 75.1844 122.227 75.4893V77.8116C121.638 78.7811 118.582 78.458 118.169 77.9289C117.755 77.3998 117.324 76.0229 117.788 75.7839C118.253 75.5449 118.641 74.3725 118.641 74.3725C118.641 74.3725 118.14 74.4897 117.347 73.5488C116.553 72.6078 116.789 70.5215 116.936 70.0225C117.084 69.5234 116.936 67.8475 116.936 67.8475C116.936 67.8475 116.966 66.6705 116.732 66.2887C116.497 65.9069 115.997 63.7334 115.997 63.7334C115.997 63.7334 115.997 62.9984 115.585 62.6166C115.173 62.2348 114.909 60.7347 114.909 60.7347C114.668 60.3598 114.564 59.9132 114.615 59.4706C114.703 58.7356 114.115 57.9419 114.115 57.9419L113.115 54.7658L112.174 52.3849L111.645 53.7663C111.645 53.7663 111.495 56.9995 111.617 57.6744C111.738 58.3493 111.917 60.144 111.917 60.144C111.917 60.144 111.33 61.3194 111.594 62.319C111.859 63.3186 111.762 65.4665 111.762 65.4665C111.762 65.4665 112.027 69.9037 111.791 70.257C111.555 70.6102 111.585 71.4925 111.585 71.4925C111.585 71.4925 112.788 74.0779 112.409 74.4311C112.03 74.7843 112.144 75.7538 112.144 75.7538C112.144 75.7538 112.966 75.7538 112.615 76.1071C112.263 76.4603 111.997 78.3121 111.997 78.3121L108.442 78.7285C108.442 78.7285 108.117 78.3182 107.647 77.2254C107.176 76.1326 107.734 76.2559 108.208 76.1371C108.681 76.0184 108.382 75.7268 107.823 75.3736C107.264 75.0203 107.588 74.2267 107.588 74.2267C107.588 74.2267 108.441 72.7867 108.146 72.6695C107.851 72.5522 107.823 70.523 107.823 70.523C107.823 70.523 107.235 68.118 107.382 67.4657C107.53 66.8133 106.912 65.2621 106.912 65.2621L106.706 63.4103C106.077 62.3594 105.848 61.1172 106.06 59.911V57.0551C106.06 57.0551 105.236 51.5296 105.119 48.7368C105.044 46.9481 105.065 44.5071 105.089 42.9844C105.104 42.1306 105.119 41.564 105.119 41.564L117.817 40.2412C117.817 40.2412 117.805 40.8274 118.047 42.1276C118.178 42.8251 118.381 43.7284 118.699 44.8573C119.61 48.0905 119.053 50.5 119.053 50.5L118.934 54.587C118.934 54.587 120.051 57.3196 119.816 58.2606C119.674 58.8193 119.595 59.3919 119.579 59.9681C119.579 59.9681 122.077 65.9355 121.812 67.6701C121.548 69.4047 122.635 72.1388 122.635 72.1388C122.635 72.1388 122.932 74.0779 122.638 74.607Z" fill="#464353"/>
<path opacity="0.05" d="M115.378 59.2934L119.244 58.7778C119.244 58.7778 117.054 61.013 115.378 59.2934Z" fill="black"/>
<path opacity="0.1" d="M118.684 55.0005C118.684 55.0005 118.817 56.3683 117.979 56.8824C117.979 56.8824 119.478 56.6479 118.684 55.0005Z" fill="black"/>
<path opacity="0.1" d="M118.447 50.6504C118.447 50.6504 115.215 53.3109 114.04 53.0899C112.864 52.869 118.447 50.6504 118.447 50.6504Z" fill="black"/>
<path opacity="0.1" d="M110.585 60.541C110.585 60.541 108.131 61.0987 108.057 62.0847C107.984 63.0708 110.585 60.541 110.585 60.541Z" fill="black"/>
<path opacity="0.05" d="M111.126 72.8003C111.126 72.8003 107.658 73.4466 108.643 73.887C109.627 74.3275 111.245 74.6807 111.245 74.6807C111.245 74.6807 112.364 74.7393 111.126 72.8003Z" fill="black"/>
<g opacity="0.05">
<path opacity="0.05" d="M107.942 74.5875C107.855 74.533 107.781 74.4596 107.726 74.3727C107.671 74.2858 107.637 74.1876 107.625 74.0854L107.589 74.1471C107.589 74.1471 107.266 74.9407 107.825 75.2925C107.888 75.333 107.95 75.3736 108.005 75.4127C108.109 75.3932 108.22 75.3781 108.327 75.3511C108.801 75.2338 108.501 74.9407 107.942 74.5875Z" fill="black"/>
<path opacity="0.05" d="M112.409 74.3517C112.506 74.2646 112.503 74.0391 112.444 73.7505C112.294 73.9775 112.25 74.3322 112.247 74.6012C112.284 74.5079 112.339 74.4229 112.409 74.3517Z" fill="black"/>
<path opacity="0.05" d="M111.876 59.728C111.748 60.0757 111.669 60.4394 111.642 60.8088C111.709 60.5536 111.799 60.3051 111.911 60.0662L111.876 59.728Z" fill="black"/>
<path opacity="0.05" d="M119.819 58.1854C119.842 58.0798 119.852 57.9719 119.85 57.8638C119.807 58.0832 119.776 58.2861 119.754 58.465C119.773 58.3733 119.794 58.2861 119.819 58.1854Z" fill="black"/>
<path opacity="0.05" d="M111.793 70.1788C111.841 70.1066 111.868 69.8631 111.88 69.5249C111.771 69.7866 111.713 70.0667 111.71 70.3501C111.731 70.2899 111.758 70.2323 111.793 70.1788Z" fill="black"/>
<path opacity="0.05" d="M112.514 75.7227C112.332 76.3123 112.197 76.9154 112.11 77.5264L108.555 77.9367C108.555 77.9367 108.23 77.5264 107.76 76.4336C107.722 76.3492 107.688 76.2629 107.659 76.1751C107.446 76.2728 107.358 76.4938 107.641 77.1386C108.111 78.2268 108.438 78.6417 108.438 78.6417L111.992 78.2299C111.992 78.2299 112.257 76.378 112.609 76.0248C112.789 75.8549 112.678 75.7662 112.514 75.7227Z" fill="black"/>
<path opacity="0.05" d="M107.825 70.4437C107.825 70.4437 107.853 72.4714 108.148 72.5887C108.298 72.2535 108.396 71.9348 108.264 71.8822C107.963 71.765 107.941 69.7358 107.941 69.7358C107.941 69.7358 107.353 67.3308 107.5 66.6784C107.648 66.0261 107.03 64.4748 107.03 64.4748L106.824 62.623C106.195 61.5722 105.965 60.3299 106.177 59.1238V56.2678C106.177 56.2678 105.354 50.7424 105.237 47.9496C105.161 46.1609 105.182 43.7198 105.206 42.1972C105.206 41.9221 105.215 41.6786 105.22 41.4727L105.119 41.4832C105.119 41.4832 105.103 42.0483 105.089 42.9036C105.065 44.4263 105.043 46.8673 105.119 48.6545C105.237 51.4473 106.059 56.9743 106.059 56.9743V59.8302C105.848 61.0361 106.078 62.2776 106.707 63.328L106.911 65.1798C106.911 65.1798 107.529 66.737 107.381 67.3849C107.234 68.0327 107.825 70.4437 107.825 70.4437Z" fill="black"/>
<path opacity="0.05" d="M118.289 77.1444C118.001 76.7264 117.808 76.2495 117.726 75.748C117.364 76.0757 117.78 77.3474 118.177 77.8524C118.587 78.3815 121.644 78.7047 122.235 77.7337V77.1745C121.434 77.9606 118.677 77.645 118.289 77.1444Z" fill="black"/>
<path opacity="0.05" d="M122.757 73.8228C122.595 74.1051 122.458 74.4002 122.345 74.7051V75.1215C122.412 74.9711 122.507 74.7697 122.645 74.5322C122.738 74.3008 122.782 74.0526 122.775 73.8032C122.775 73.8032 122.761 73.8168 122.757 73.8228Z" fill="black"/>
<path opacity="0.05" d="M118.47 74.2869C118.582 74.0605 118.679 73.827 118.76 73.5879C118.76 73.5879 118.259 73.7052 117.466 72.7642C116.889 72.0803 116.856 70.7876 116.938 69.9429C116.788 70.4434 116.555 72.5297 117.349 73.4707C117.867 74.0855 118.259 74.2478 118.47 74.2869Z" fill="black"/>
<path opacity="0.05" d="M116.937 67.7682C116.989 68.3473 117.008 68.9289 116.996 69.5103C117.01 69.4185 117.03 69.3276 117.056 69.2382C117.206 68.7377 117.056 67.0632 117.056 67.0632C117.056 67.0632 117.086 65.8862 116.85 65.5045C116.614 65.1227 116.122 62.9461 116.122 62.9461C116.122 62.9461 116.122 62.2111 115.71 61.8293C115.298 61.4475 115.034 59.9474 115.034 59.9474C114.791 59.5733 114.685 59.1267 114.733 58.6833C114.822 57.9483 114.234 57.1546 114.234 57.1546L113.235 53.9801L112.294 51.5991L111.763 52.982C111.763 52.982 111.763 53.1563 111.745 53.4329L112.175 52.3101L113.116 54.6865L114.116 57.8611C114.116 57.8611 114.703 58.6548 114.615 59.3898C114.566 59.8332 114.672 60.2798 114.915 60.6539C114.915 60.6539 115.18 62.157 115.592 62.5358C116.003 62.9146 116.002 63.6526 116.002 63.6526C116.002 63.6526 116.502 65.8276 116.737 66.2079C116.971 66.5882 116.937 67.7682 116.937 67.7682Z" fill="black"/>
</g>
<path d="M119.405 13.6858L119.184 14.759L119.197 15.237L119.206 15.5888L117.98 15.715L117.843 15.461C117.589 15.001 117.061 14.0661 116.891 13.9218C116.664 13.7324 116.26 10.7472 116.741 10.9246C117.037 11.0389 117.28 11.2591 117.423 11.5424C117.423 11.5424 119.839 11.8189 119.405 13.6858Z" fill="#FFCDD3"/>
<path opacity="0.1" d="M119.206 15.589L117.98 15.7153L117.843 15.4613C118.008 15.2735 118.233 15.1486 118.479 15.1081C118.726 15.0675 118.979 15.1137 119.196 15.2388L119.206 15.589Z" fill="black"/>
<path d="M119.516 16.1707L117.899 16.545L117.864 16.3045L117.772 15.6567C117.772 15.6567 118.413 14.8029 119.339 15.4432L119.42 15.7724L119.516 16.1707Z" fill="#6C63FF"/>
<path d="M93.3169 13.8033L91.5898 14.7292L91.4395 14.4046C91.2757 14.0604 91.0307 13.5418 90.963 13.3524C90.8608 13.0668 90.1408 12.706 90.1408 12.706C88.3371 10.979 90.4865 9.49389 90.4865 9.49389C91.6259 7.20164 92.8915 10.2725 92.8915 10.2725C92.8915 10.2725 93.0689 11.8914 92.9441 11.9996C92.8194 12.1078 92.8194 12.5512 92.8194 12.5512C92.984 12.8689 93.1232 13.1991 93.2357 13.5388C93.2883 13.7026 93.3169 13.8033 93.3169 13.8033Z" fill="#FFCDD3"/>
<path opacity="0.1" d="M93.3169 13.8032L91.5898 14.7291L91.4395 14.4044C91.683 14.2 92.5473 13.5026 92.8313 13.5311C92.9669 13.5481 93.1039 13.5516 93.2402 13.5416C93.2883 13.7025 93.3169 13.8032 93.3169 13.8032Z" fill="black"/>
<path d="M93.492 14.3249L91.5515 15.2809L91.5124 14.8645L91.4854 14.5759C91.4854 14.5759 92.6097 13.6124 92.9419 13.65C93.1098 13.6743 93.2804 13.6743 93.4484 13.65L93.471 13.9987L93.492 14.3249Z" fill="#6C63FF"/>
<path d="M114.701 20.8153C114.701 20.8153 106.242 21.7698 107.823 21.2557C108.923 20.8965 109.361 20.2035 109.452 19.4219C109.527 18.7711 109.359 18.0691 109.138 17.4679C108.939 16.9345 108.688 16.4224 108.387 15.9392C108.387 15.9392 114.85 12.3828 113.559 15.616C113.36 16.1051 113.236 16.6215 113.192 17.1477C113.153 17.6706 113.21 18.1962 113.359 18.6989C113.603 19.5146 114.067 20.247 114.701 20.8153Z" fill="#FFCDD3"/>
<path opacity="0.1" d="M113.554 15.6111C113.355 16.1002 113.232 16.6166 113.188 17.1428C112.579 17.6554 111.912 17.6208 111.053 17.6208C110.395 17.6208 109.664 17.7801 109.138 17.463C108.939 16.9296 108.688 16.4175 108.387 15.9343C108.387 15.9343 114.849 12.3779 113.554 15.6111Z" fill="black"/>
<path d="M110.939 17.8466C112.871 17.8466 114.437 16.2806 114.437 14.3488C114.437 12.4171 112.871 10.8511 110.939 10.8511C109.007 10.8511 107.441 12.4171 107.441 14.3488C107.441 16.2806 109.007 17.8466 110.939 17.8466Z" fill="#FFCDD3"/>
<path opacity="0.1" d="M114.701 20.815C114.701 20.815 106.242 21.7695 107.823 21.2554C108.923 20.8962 109.361 20.2032 109.452 19.4216C109.873 18.9707 110.719 18.6355 111.256 18.4611C111.752 18.2943 112.288 18.2854 112.789 18.4356C112.986 18.495 113.174 18.582 113.347 18.6941C113.593 19.5128 114.062 20.247 114.701 20.815Z" fill="black"/>
<path opacity="0.1" d="M119.516 16.1704L117.899 16.5446L117.864 16.3041C118.037 16.0663 118.28 15.8876 118.558 15.7923C118.836 15.6971 119.137 15.69 119.42 15.772L119.516 16.1704Z" fill="black"/>
<path opacity="0.1" d="M93.4923 14.3247L91.5518 15.2807L91.5127 14.8644C92.1412 14.5264 92.7945 14.2365 93.4667 13.9971L93.4923 14.3247Z" fill="black"/>
<path opacity="0.1" d="M118.047 42.131C114.769 42.6541 110.109 43.3215 109.37 43.096C108.755 42.9097 106.795 42.9292 105.089 42.9878C105.104 42.134 105.119 41.5674 105.119 41.5674L117.817 40.2446C117.817 40.2446 117.805 40.8308 118.047 42.131Z" fill="black"/>
<path d="M121.315 41.3613C121.315 41.3613 110.527 43.2131 109.37 42.8644C108.212 42.5157 102.268 42.893 102.268 42.893C99.5921 44.6862 100.709 42.0407 100.709 42.0407C100.709 42.0407 100.474 40.6593 100.798 39.5425C101.015 38.7226 101.163 37.8859 101.241 37.0413C101.241 37.0413 101.182 35.2767 101.506 34.8648C101.829 34.453 102.212 31.5144 102.212 31.5144C102.212 31.5144 102.505 29.5152 102.477 29.0748C102.448 28.6344 102.564 27.3988 102.564 27.3988L102.947 25.3411C100.742 25.048 94.0396 20.9324 94.0396 20.9324C93.7164 19.5511 91.2182 16.3179 91.2182 16.3179C91.1818 16.046 91.1127 15.7795 91.0123 15.5242C90.8364 15.0537 93.4819 14.1128 93.4819 14.1128C93.4819 14.1128 95.451 16.5178 95.8629 17.1701C96.2747 17.8225 97.6846 19.022 97.6846 19.022C97.9037 18.9994 98.125 19.0283 98.331 19.1061L98.3655 19.1167C98.838 19.3022 99.2811 19.5553 99.6808 19.8682C100.344 19.8525 100.987 20.0951 101.474 20.5446C101.474 20.5446 102.676 20.3673 102.885 20.5732C103.094 20.7791 104.119 20.5732 104.119 20.5732C104.119 20.5732 105.148 18.3982 105.824 19.0295C106.5 19.6608 109.37 19.6307 109.37 19.6307C109.752 19.1227 110.682 18.7589 111.264 18.5786C111.76 18.4124 112.295 18.4035 112.797 18.553C113.013 18.6176 113.217 18.7193 113.398 18.8536L115.143 20.5582C115.143 20.5582 115.642 19.9103 115.584 19.7645C115.525 19.6187 116.171 19.5 116.171 19.5C116.171 19.5 117.024 19.2354 117.347 19.1467C117.67 19.058 117.966 19.4083 117.993 19.4398C117.983 19.4023 117.762 18.6883 117.843 18.1472C117.924 17.606 117.49 17.095 117.49 17.095C118.518 14.5667 120.84 16.6831 120.84 16.6831C120.84 16.6831 121.105 18.0645 120.87 18.5936C120.636 19.1227 121.105 20.2395 121.046 20.5341C120.987 20.8287 121.165 21.3278 121.165 21.8869C121.165 22.4461 120.864 23.5028 120.694 23.9732C120.524 24.4437 119.107 25.5019 119.107 25.5019C119.107 25.5019 119.018 27.1779 118.401 28.1474C117.783 29.1169 118.171 32.4328 118.171 32.4328C118.171 32.4328 118.758 35.0196 119.493 35.8434C120.228 36.6671 121.315 41.3613 121.315 41.3613Z" fill="#3F3D56"/>
<path opacity="0.1" d="M105.589 22.0194C105.589 22.0194 105.266 21.0499 104.971 20.9672C104.679 20.8596 104.394 20.732 104.119 20.5854L104.309 20.2231C104.309 20.2231 105.412 20.5238 105.589 20.8499C105.767 21.1761 105.589 22.0194 105.589 22.0194Z" fill="black"/>
<path opacity="0.1" d="M99.6804 19.874C99.6218 20.1747 97.0049 20.4317 97.0049 20.4317L98.3276 19.106L98.3607 19.118C98.835 19.3045 99.2796 19.5592 99.6804 19.874Z" fill="black"/>
<path d="M92.1114 16.0744C92.2409 16.0744 92.3459 15.9695 92.3459 15.84C92.3459 15.7105 92.2409 15.6055 92.1114 15.6055C91.9819 15.6055 91.877 15.7105 91.877 15.84C91.877 15.9695 91.9819 16.0744 92.1114 16.0744Z" fill="#575988"/>
<path d="M92.4112 16.5447C92.5407 16.5447 92.6457 16.4397 92.6457 16.3102C92.6457 16.1807 92.5407 16.0757 92.4112 16.0757C92.2817 16.0757 92.1768 16.1807 92.1768 16.3102C92.1768 16.4397 92.2817 16.5447 92.4112 16.5447Z" fill="#575988"/>
<path d="M92.7062 16.9792C92.8357 16.9792 92.9407 16.8742 92.9407 16.7447C92.9407 16.6152 92.8357 16.5103 92.7062 16.5103C92.5767 16.5103 92.4717 16.6152 92.4717 16.7447C92.4717 16.8742 92.5767 16.9792 92.7062 16.9792Z" fill="#575988"/>
<path d="M93.0148 17.4485C93.1443 17.4485 93.2492 17.3435 93.2492 17.214C93.2492 17.0845 93.1443 16.9795 93.0148 16.9795C92.8853 16.9795 92.7803 17.0845 92.7803 17.214C92.7803 17.3435 92.8853 17.4485 93.0148 17.4485Z" fill="#575988"/>
<path d="M120.723 17.3789C120.829 17.3789 120.914 17.2934 120.914 17.188C120.914 17.0825 120.829 16.9971 120.723 16.9971C120.618 16.9971 120.532 17.0825 120.532 17.188C120.532 17.2934 120.618 17.3789 120.723 17.3789Z" fill="#575988"/>
<path d="M120.752 17.8134C120.858 17.8134 120.943 17.728 120.943 17.6225C120.943 17.5171 120.858 17.4316 120.752 17.4316C120.647 17.4316 120.562 17.5171 120.562 17.6225C120.562 17.728 120.647 17.8134 120.752 17.8134Z" fill="#575988"/>
<path d="M120.779 18.2465C120.884 18.2465 120.97 18.1611 120.97 18.0556C120.97 17.9502 120.884 17.8647 120.779 17.8647C120.673 17.8647 120.588 17.9502 120.588 18.0556C120.588 18.1611 120.673 18.2465 120.779 18.2465Z" fill="#575988"/>
<path opacity="0.1" d="M105.6 29.9855C105.571 29.9509 112.198 38.3187 117.342 33.4832C117.347 33.4847 109.219 34.5865 105.6 29.9855Z" fill="black"/>
<path opacity="0.1" d="M101.797 34.3359C101.797 34.3359 105.762 34.4442 106.177 35.585V36.7725C106.064 36.8351 105.937 36.868 105.808 36.868C105.679 36.868 105.552 36.8351 105.439 36.7725C105.039 36.556 102.642 35.3385 101.797 35.9247V34.3359Z" fill="black"/>
<path d="M101.871 34.3359C101.871 34.3359 105.663 34.4397 106.06 35.5279V36.6583C105.952 36.7183 105.831 36.7498 105.707 36.7498C105.583 36.7498 105.462 36.7183 105.354 36.6583C104.972 36.4538 102.68 35.2919 101.871 35.8511V34.3359Z" fill="#3F3D56"/>
<path opacity="0.1" d="M103.962 25.7261C104.367 26.6638 104.883 27.5494 105.5 28.364C106.17 29.2644 106.982 30.0498 107.905 30.6894C107.905 30.6894 104.028 26.2702 103.962 25.7261Z" fill="black"/>
<path opacity="0.1" d="M102.664 21.1187C102.664 21.1187 103.325 23.9746 105.03 24.9441L102.664 21.1187Z" fill="black"/>
<path opacity="0.1" d="M101.65 21.4071C101.633 21.3545 101.062 23.6618 103.847 24.944C103.847 24.944 102.664 24.5426 101.65 21.4071Z" fill="black"/>
<path opacity="0.1" d="M118.964 19.4926C118.92 19.4926 120.338 20.3945 120.724 20.8154C120.724 20.8154 119.801 19.4325 118.964 19.4926Z" fill="black"/>
<path d="M109.994 17.5188C109.994 17.5951 110.011 17.6705 110.042 17.7402C110.073 17.8098 110.118 17.8723 110.175 17.9236C110.231 17.9748 110.298 18.0138 110.37 18.0381C110.443 18.0623 110.519 18.0713 110.595 18.0645C111.661 18.1306 112.772 18.1772 113.752 17.7638C113.936 17.6982 114.101 17.5889 114.233 17.4452C114.407 17.2302 114.442 16.9386 114.512 16.6711C114.651 16.148 114.945 15.6835 115.157 15.186C115.516 14.3454 115.636 13.4223 115.504 12.518C115.477 12.2407 115.385 11.9737 115.237 11.7378C114.954 11.3335 114.439 11.1697 114.064 10.848C113.69 10.5263 113.45 10.0348 113.012 9.79581C112.618 9.57635 112.136 9.60341 111.692 9.67857C110.82 9.82667 109.985 10.1405 109.23 10.603C108.976 10.7533 108.698 10.9382 108.407 10.8826C108.151 10.8345 107.965 10.6195 107.805 10.4181C107.6 10.8991 107.514 11.4224 107.554 11.9438C107.565 12.0203 107.563 12.0981 107.547 12.1737C107.51 12.2652 107.454 12.3477 107.383 12.4157C107.12 12.7164 106.956 13.2049 107.216 13.5145C107.329 13.6483 107.503 13.722 107.613 13.8587C107.81 14.1037 107.744 14.46 107.739 14.7726C107.728 14.8818 107.756 14.9913 107.817 15.0823C107.874 15.1353 107.944 15.1727 108.019 15.1909C108.095 15.209 108.174 15.2074 108.249 15.186C108.398 15.1411 108.554 15.1263 108.709 15.1424C108.872 15.1954 109.012 15.3012 109.109 15.443C109.594 16.0758 109.786 16.7643 109.994 17.5188Z" fill="#2D293D"/>
<g opacity="0.1">
<path opacity="0.1" d="M114.357 17.1795C114.225 17.3232 114.06 17.4325 113.876 17.4981C112.89 17.9085 111.781 17.8619 110.72 17.7988C110.606 17.7999 110.493 17.7747 110.391 17.7251C110.228 17.6304 110.167 17.432 110.117 17.2516C109.91 16.5001 109.719 15.8101 109.226 15.1833C109.131 15.0388 108.99 14.9303 108.826 14.8752C108.671 14.8606 108.515 14.8754 108.366 14.9188C108.291 14.9404 108.212 14.9423 108.137 14.9244C108.061 14.9065 107.992 14.8693 107.935 14.8166C107.873 14.7256 107.846 14.6161 107.856 14.5069C107.856 14.1913 107.927 13.8381 107.73 13.593C107.62 13.4563 107.446 13.3826 107.333 13.2473C107.26 13.1476 107.215 13.0298 107.203 12.9064C107.191 12.7831 107.213 12.6588 107.266 12.5469C107.078 12.8475 106.998 13.2248 107.216 13.4833C107.329 13.6171 107.503 13.6907 107.613 13.8275C107.81 14.074 107.744 14.4288 107.739 14.7414C107.728 14.8504 107.755 14.96 107.816 15.0511C107.873 15.1043 107.943 15.1419 108.019 15.1601C108.094 15.1782 108.174 15.1764 108.249 15.1548C108.398 15.1099 108.554 15.0951 108.709 15.1112C108.872 15.1642 109.012 15.27 109.109 15.4118C109.6 16.0386 109.792 16.727 110 17.4816C110.024 17.6673 110.117 17.8372 110.26 17.9581C110.363 18.0078 110.476 18.0325 110.591 18.0302C111.656 18.0964 112.767 18.1445 113.747 17.7296C113.931 17.6644 114.096 17.555 114.228 17.411C114.294 17.3263 114.345 17.2306 114.378 17.1284C114.38 17.1479 114.369 17.1645 114.357 17.1795Z" fill="black"/>
<path opacity="0.1" d="M107.555 12.0822C107.602 12.031 107.638 11.9706 107.661 11.9049C107.675 11.8288 107.675 11.7509 107.661 11.6749C107.632 11.2463 107.688 10.8162 107.825 10.4093L107.806 10.3867C107.6 10.867 107.514 11.39 107.555 11.9109C107.559 11.9679 107.559 12.0252 107.555 12.0822Z" fill="black"/>
</g>
<path opacity="0.1" d="M109.37 19.6382C109.37 19.6382 113.74 20.2184 114.132 19.5615L109.37 19.6382Z" fill="black"/>
<path opacity="0.1" d="M117.864 17.8301C117.864 17.8301 120.293 17.8301 120.827 18.744L117.864 17.8301Z" fill="black"/>
<path d="M131.453 99.021C130.733 99.6651 129.797 100.015 128.83 100.001C128.584 100.001 128.243 100.048 128.241 100.294C128.247 100.366 128.272 100.436 128.313 100.496C128.618 101.004 129.1 101.382 129.666 101.558C130.192 101.718 130.754 101.691 131.303 101.662L132.904 101.579C133.205 101.563 133.505 101.548 133.806 101.51C134.106 101.473 134.434 101.411 134.748 101.36C135.52 101.25 136.301 101.214 137.08 101.252C137.287 101.259 137.53 101.252 137.654 101.101C137.777 100.951 137.714 100.664 137.667 100.438C137.571 99.974 137.667 99.487 137.579 99.021C137.428 98.2033 136.72 97.5765 135.945 97.2804C135.223 97.0068 133.946 96.6927 133.263 97.1496C132.543 97.6291 132.103 98.4303 131.453 99.021Z" fill="#3F3D56"/>
<path d="M133.043 71.6249C133.185 72.2968 133.836 72.8109 133.854 73.4963C133.87 74.0464 133.478 74.5079 133.195 74.9783C132.929 75.4656 132.704 75.9745 132.523 76.4995C131.991 77.8665 131.331 79.1801 130.551 80.4226C130.176 81.0239 129.755 81.6657 129.84 82.3647C129.9 82.6915 130.016 83.0057 130.182 83.2936L131.309 85.5332C131.556 85.9804 131.749 86.4552 131.885 86.9477C131.982 87.373 131.991 87.8135 132.048 88.2464C132.226 89.6202 132.871 91.0031 132.489 92.3348C132.456 92.4491 132.339 92.5874 132.247 92.5077C132.62 93.2036 132.919 93.9041 132.89 94.6932C132.875 95.1066 132.749 95.538 132.901 95.9228C132.965 96.0836 133.078 96.2339 133.077 96.4068C133.077 96.521 133.024 96.6277 133.012 96.739C132.98 97.0561 133.272 97.3207 133.574 97.4214C133.876 97.5221 134.205 97.5146 134.511 97.6063C135.097 97.7821 135.516 98.2872 136.014 98.6374C136.524 98.989 137.126 99.1848 137.745 99.2011C137.834 99.2105 137.923 99.1927 138.001 99.15C138.045 99.1113 138.08 99.0637 138.105 99.0104C138.129 98.957 138.142 98.899 138.142 98.8403C138.169 98.5596 138.127 98.2765 138.019 98.0159C137.911 97.7554 137.741 97.5254 137.523 97.3462C137.427 97.2865 137.348 97.2038 137.293 97.1057C137.265 97.0189 137.258 96.9268 137.272 96.8367C137.362 95.6047 137.34 94.367 137.206 93.139C137.145 92.7498 137.125 92.3553 137.147 91.9621C137.179 91.6344 137.278 91.3097 137.242 90.9835C137.206 90.6574 137.039 90.3597 136.941 90.0456C136.767 89.4864 136.815 88.8852 136.791 88.3005C136.761 87.2844 136.528 86.2863 136.296 85.2942C136.205 84.9049 136.104 84.4976 135.829 84.209C135.594 83.964 135.215 83.7295 135.304 83.4033C135.353 83.2831 135.426 83.1741 135.519 83.0831C135.628 82.9465 135.708 82.7892 135.754 82.6207C135.8 82.4522 135.811 82.2761 135.787 82.1031C135.886 82.1283 135.99 82.1185 136.082 82.0751C136.175 82.0318 136.249 81.9578 136.293 81.8656C138.124 81.0013 139.6 79.2727 140.258 77.3563C140.297 77.2139 140.357 77.0782 140.436 76.9534C140.606 76.7159 140.9 76.6137 141.162 76.483C141.983 76.0696 142.549 75.2955 143.069 74.5379C143.37 74.099 143.671 73.6451 143.806 73.128C143.877 72.7936 143.911 72.4523 143.906 72.1104L143.953 70.3442C143.963 70.2279 143.952 70.1108 143.92 69.9985C143.875 69.8936 143.811 69.7986 143.729 69.7189C143.229 69.1903 142.573 68.8362 141.856 68.7088C141.375 68.6232 140.884 68.6397 140.397 68.5991C139.453 68.521 138.521 68.2278 137.577 68.2985C136.093 68.4082 134.772 69.4364 134.073 70.7501C133.828 71.213 133.57 71.6159 133.043 71.6249Z" fill="#464353"/>
<path d="M124.807 60.1411C124.827 60.4137 124.79 60.6876 124.699 60.9452C124.583 61.1918 124.293 61.3842 124.039 61.2834C124.116 61.1106 123.913 60.9137 123.724 60.9347C123.63 60.9562 123.544 61 123.471 61.0623C123.399 61.1246 123.342 61.2036 123.307 61.2925C123.182 61.5449 123.139 61.8307 123.187 62.1087C123.247 62.4544 123.447 62.7866 123.394 63.1338C123.352 63.4224 123.14 63.7095 123.253 63.977C123.326 64.0993 123.418 64.2093 123.525 64.3032C123.674 64.4861 123.746 64.7191 123.728 64.954C123.71 65.1889 123.602 65.4079 123.427 65.5658L126.271 65.6229C126.168 66.0979 126.381 66.5834 126.625 67.0058C127.307 68.167 128.248 69.1545 129.376 69.8907C130.504 70.6269 131.787 71.0919 133.124 71.2491C133.052 71.2913 132.99 71.3491 132.942 71.4182C132.895 71.4874 132.864 71.5661 132.851 71.6488C132.838 71.7315 132.843 71.8161 132.867 71.8965C132.89 71.9768 132.932 72.0509 132.987 72.1134C133.219 72.3434 133.611 72.3148 133.901 72.166C134.191 72.0172 134.418 71.7707 134.683 71.5798C135.15 71.2489 135.72 71.0954 136.29 71.1469C136.646 71.1815 136.992 71.2972 137.349 71.3152C138.401 71.3709 139.303 70.6133 140.316 70.3037C141.054 70.0767 141.892 70.0767 142.511 69.6152C142.779 69.4168 142.998 69.0906 142.92 68.769C142.855 68.5841 142.753 68.4147 142.619 68.2714C142.263 67.81 142.053 67.2553 141.797 66.7307C141.291 65.6921 140.594 64.758 139.742 63.977C139.1 63.4153 138.418 62.899 137.704 62.4318C137.531 62.3043 137.347 62.1931 137.154 62.0996C136.904 61.9899 136.628 61.9373 136.402 61.799C136.069 61.5886 135.876 61.2173 135.619 60.9182C135.056 60.2598 134.19 59.9577 133.495 59.4406C133.029 59.0934 132.617 58.6365 132.061 58.4696C131.791 58.3869 131.504 58.3809 131.233 58.2998C130.618 58.1134 130.17 57.5677 129.568 57.3468C129.091 57.1724 128.565 57.2175 128.065 57.1559C127.5 57.0863 126.961 56.881 126.494 56.5576C126.343 56.435 126.174 56.3366 125.993 56.266C125.231 56.0346 125.17 57.4535 125.091 57.945C124.991 58.6755 124.807 59.4015 124.807 60.1411Z" fill="#6C63FF"/>
<path d="M125.55 64.9001C125.678 66.286 124.631 67.6282 124.937 68.9856C125.001 69.2742 125.126 69.5492 125.171 69.8423C125.299 70.6465 124.818 71.4086 124.359 72.082L120.421 77.8615C120.263 78.1152 120.074 78.3484 119.859 78.5559C119.107 79.2248 117.977 79.1571 116.988 79.3556C116.293 79.4983 115.637 79.7884 115.064 80.2063C115.038 80.2263 115.021 80.2555 115.017 80.2878C115.012 80.3202 115.021 80.3529 115.04 80.3792C115.203 80.6015 115.42 80.7795 115.669 80.8969C115.919 81.0142 116.194 81.0672 116.47 81.0511C116.573 81.1864 116.47 81.3878 116.327 81.4855C116.116 81.6358 115.825 81.6704 115.783 82.0296C115.768 82.1544 115.794 82.2806 115.855 82.3903C116.014 82.6326 116.261 82.8038 116.543 82.8683C117.906 83.2862 119.38 82.5527 120.4 81.5561C121.421 80.5596 122.153 79.3014 123.154 78.2883C123.709 77.7262 124.338 77.2467 124.91 76.7026C126.049 75.6158 126.936 74.2976 127.789 72.9763C128.047 72.578 128.307 72.1692 128.413 71.7077C128.52 71.2462 128.47 70.7788 128.592 70.3323C128.751 69.7476 129.18 69.2802 129.536 68.7901C130.235 67.8282 130.703 66.6512 130.609 65.4653C130.516 64.2793 129.783 63.1099 128.664 62.707C128.317 62.5692 127.936 62.546 127.575 62.6409C127.116 62.7822 126.778 63.161 126.465 63.5247L125.714 64.3875C125.531 64.5786 125.387 64.8038 125.291 65.0504C125.243 65.1746 125.231 65.3102 125.258 65.4408C125.285 65.5715 125.348 65.6916 125.442 65.7869" fill="#FBBEBE"/>
<path d="M127.545 59.2154C127.028 59.2455 126.459 59.2966 126.093 59.6664C125.94 59.8361 125.816 60.0302 125.727 60.2405C125.372 60.9635 125.026 61.7196 125.001 62.5253C124.98 63.1686 125.166 63.7984 125.264 64.4342C125.345 64.9633 125.139 65.503 125.1 66.0381C125.742 65.8412 126.589 65.5736 127.171 65.2414C127.568 65.0144 127.951 64.7559 128.384 64.6116C129.002 64.4057 130.038 64.7619 130.625 65.0475C130.657 64.6357 130.347 63.9172 130.38 63.5038C130.385 63.3298 130.416 63.1575 130.472 62.9928C130.56 62.8185 130.664 62.6529 130.783 62.4982C131.007 62.1345 131.11 61.7093 131.077 61.2835C131.044 60.8577 130.878 60.4532 130.601 60.1278C130.08 59.5416 129.264 59.3221 128.485 59.2259C127.995 59.1691 127.5 59.152 127.007 59.1748" fill="#6C63FF"/>
<defs>
<linearGradient id="paint0_linear" x1="106.153" y1="82.0972" x2="106.153" y2="8.64594" gradientUnits="userSpaceOnUse">
<stop stop-color="#808080" stop-opacity="0.25"/>
<stop offset="0.54" stop-color="#808080" stop-opacity="0.12"/>
<stop offset="1" stop-color="#808080" stop-opacity="0.1"/>
</linearGradient>
</defs>
</svg>
